<svg width="321" height="204" viewBox="0 0 321 204" fill="none" xmlns="http://www.w3.org/2000/svg">
<path fill-rule="evenodd" clip-rule="evenodd" d="M54.7998 155.45V181.85H318.8V2H54.7998V76.25H114.2V155.45H54.7998Z" stroke="#1D1D1F" stroke-width="3"/>
<path d="M114.2 76.25H2V155.45H114.2V76.25Z" stroke="#1D1D1F" stroke-width="3"/>
<path fill-rule="evenodd" clip-rule="evenodd" d="M285.72 122.448L260.9 93.7098C259.129 91.6589 256.1 93.1125 256.1 96.0132V136.001C256.1 138.38 258.167 140.014 260.081 139.148L284.721 127.982C286.68 127.094 287.207 124.17 285.72 122.448Z" stroke="#1D1D1F" stroke-width="3" stroke-linecap="round" stroke-linejoin="round"/>
<path d="M273.438 135.176L278.426 150.851" stroke="#1D1D1F" stroke-width="3" stroke-linecap="round" stroke-linejoin="round"/>
<path fill-rule="evenodd" clip-rule="evenodd" d="M64.8233 135.65L49.438 113.769L40.1568 126.969L33.9693 118.169L21.6777 135.65H64.8233Z" stroke="#1D1D1F" stroke-width="3"/>
<path d="M82.8504 119.15C90.1406 119.15 96.0504 113.24 96.0504 105.95C96.0504 98.6598 90.1406 92.75 82.8504 92.75C75.5602 92.75 69.6504 98.6598 69.6504 105.95C69.6504 113.24 75.5602 119.15 82.8504 119.15Z" stroke="#1D1D1F" stroke-width="3"/>
<path fill-rule="evenodd" clip-rule="evenodd" d="M54.7998 155.45H38.2998V201.65H290.75V181.85H54.7998V155.45ZM38.2998 33.3496V76.2496H54.7998V33.3496H38.2998Z" fill="#0071E3" stroke="#0071E3" stroke-width="3"/>
</svg>
