<svg width="330" height="248" viewBox="0 0 330 248" fill="none" xmlns="http://www.w3.org/2000/svg">
<g clip-path="url(#clip0)">
<path d="M256.642 101.605L263.721 76.5436L245.07 58.3837L270.122 65.4562L288.286 46.7954L281.208 71.8564L299.859 90.0163L274.806 82.9438L256.642 101.605ZM274.124 80.3971L291.88 85.41L278.661 72.5386L283.677 54.7781L270.805 68.0029L253.048 62.99L266.268 75.8614L261.251 93.6219L274.124 80.3971Z" fill="black" fill-opacity="0.8"/>
<path d="M24.1881 186.546L29.06 150.854L0.0149526 129.569L35.6942 134.434L56.9836 105.374L52.1117 141.067L81.1567 162.352L45.4775 157.487L24.1881 186.546ZM44.0121 154.035L69.0086 157.444L48.66 142.532L52.0727 117.529L37.1596 137.885L12.1631 134.477L32.5117 149.389L29.099 174.391L44.0121 154.035Z" fill="black" fill-opacity="0.8"/>
<path d="M216.743 144.939L242.075 149.758L258.38 129.79L253.565 155.116L273.54 171.424L248.208 166.604L231.903 186.572L236.718 161.247L216.743 144.939ZM240.242 159.964L237.44 174.696L246.925 163.081L261.66 165.884L250.041 156.398L252.843 141.666L243.358 153.282L228.623 150.479L240.242 159.964Z" fill="black" fill-opacity="0.8"/>
<path d="M78.1067 185.944L103.439 190.763L119.744 170.795L114.928 196.121L134.903 212.428L109.571 207.609L93.266 227.577L98.0815 202.252L78.1067 185.944ZM101.605 200.969L98.8037 215.701L108.289 204.086L123.023 206.889L111.405 197.403L114.206 182.671L104.721 194.287L89.9867 191.484L101.605 200.969Z" fill="black" fill-opacity="0.8"/>
<path d="M210.067 47.8089L208.714 33.1729L216.878 45.3969L231.513 44.0483L219.292 52.2086L220.645 66.8447L212.48 54.6206L197.846 55.9692L210.067 47.8089ZM211.631 48.5546L203.553 53.9484L213.226 53.057L218.622 61.1362L217.728 51.4629L225.806 46.0691L216.133 46.9605L210.737 38.8813L211.631 48.5546Z" fill="black" fill-opacity="0.8"/>
<path d="M259.906 30.9855L259.178 23.113L263.57 29.6881L271.441 28.9627L264.868 33.352L265.596 41.2244L261.204 34.6493L253.333 35.3747L259.906 30.9855ZM260.747 31.3865L256.402 34.2878L261.605 33.8083L264.508 38.154L264.027 32.9509L268.372 30.0496L263.169 30.5291L260.266 26.1834L260.747 31.3865Z" fill="black" fill-opacity="0.8"/>
<path d="M109.027 115.867L107.791 102.502L115.246 113.664L128.61 112.433L117.45 119.885L118.686 133.249L111.23 122.087L97.8673 123.319L109.027 115.867ZM110.455 116.548L103.078 121.473L111.911 120.659L116.839 128.037L116.022 119.204L123.398 114.278L114.565 115.092L109.638 107.715L110.455 116.548Z" fill="black" fill-opacity="0.8"/>
<path d="M321.469 211.252L307.265 195.655L321.469 195.655L321.469 211.252Z" fill="white" stroke="#1D1D1F" stroke-width="3"/>
<path d="M27.8874 85.0395L13.6608 85.2182L13.4645 100.613L27.8874 85.0395Z" fill="#0071E3"/>
<rect x="10" y="16" width="178" height="72" rx="10" fill="#0071E3"/>
<rect x="149.5" y="120.5" width="176" height="80" rx="8.5" fill="white" stroke="#1D1D1F" stroke-width="3"/>
<path d="M308.5 195.5L320 195V202H315L308.5 195.5Z" fill="white"/>
</g>
<defs>
<clipPath id="clip0">
<rect width="330" height="247.5" fill="white"/>
</clipPath>
</defs>
</svg>
