<svg width="330" height="248" viewBox="0 0 330 248" fill="none" xmlns="http://www.w3.org/2000/svg">
<path d="M35.7263 156.751L31.9082 141.414H34.8254L37.4852 152.675L40.4668 141.414H42.8263L45.8722 152.74L48.6178 141.414H51.2776L47.438 156.751H44.5852L41.5607 145.575L38.4505 156.751H35.7263ZM58.5825 156.751L54.7644 141.414H57.6816L60.3414 152.675L63.3229 141.414H65.6824L68.7283 152.74L71.4739 141.414H74.1337L70.2942 156.751H67.4413L64.4169 145.575L61.3066 156.751H58.5825ZM81.4386 156.751L77.6205 141.414H80.5377L83.1975 152.675L86.1791 141.414H88.5386L91.5845 152.74L94.3301 141.414H96.9899L93.1503 156.751H90.2975L87.273 145.575L84.1628 156.751H81.4386ZM101.292 156.901C100.348 156.901 99.5972 156.172 99.5972 155.228C99.5972 154.284 100.348 153.533 101.292 153.533C102.257 153.533 103.008 154.284 103.008 155.228C103.008 156.172 102.257 156.901 101.292 156.901Z" fill="#1D1D1F"/>
<path fill-rule="evenodd" clip-rule="evenodd" d="M128.7 69.3008C128.7 92.0829 110.232 110.551 87.4502 110.551C64.6681 110.551 46.2002 92.0829 46.2002 69.3008C46.2002 46.5186 64.6681 28.0508 87.4502 28.0508C110.232 28.0508 128.7 46.5186 128.7 69.3008Z" stroke="#1D1D1F" stroke-width="3" stroke-linecap="round" stroke-linejoin="round"/>
<path fill-rule="evenodd" clip-rule="evenodd" d="M103.95 69.3008C103.95 92.0829 96.5629 110.551 87.4502 110.551C78.3375 110.551 70.9502 92.0829 70.9502 69.3008C70.9502 46.5186 78.3375 28.0508 87.4502 28.0508C96.5629 28.0508 103.95 46.5186 103.95 69.3008Z" stroke="#1D1D1F" stroke-width="3" stroke-linecap="round" stroke-linejoin="round"/>
<path fill-rule="evenodd" clip-rule="evenodd" d="M87.4502 52.8008C110.232 52.8008 128.7 60.1881 128.7 69.3008C128.7 78.4135 110.232 85.8008 87.4502 85.8008C64.6681 85.8008 46.2002 78.4135 46.2002 69.3008C46.2002 60.1881 64.6681 52.8008 87.4502 52.8008Z" stroke="#1D1D1F" stroke-width="3" stroke-linecap="round" stroke-linejoin="round"/>
<path d="M290.4 80.8506C304.069 80.8506 315.15 69.7696 315.15 56.1006C315.15 42.4315 304.069 31.3506 290.4 31.3506C276.731 31.3506 265.65 42.4315 265.65 56.1006C265.65 69.7696 276.731 80.8506 290.4 80.8506Z" fill="#0071E3" stroke="#0071E3" stroke-width="3"/>
<path d="M18.9752 54.4504C26.721 54.4504 33.0002 48.1712 33.0002 40.4254C33.0002 32.6796 26.721 26.4004 18.9752 26.4004C11.2294 26.4004 4.9502 32.6796 4.9502 40.4254C4.9502 48.1712 11.2294 54.4504 18.9752 54.4504Z" fill="#0071E3" stroke="#0071E3" stroke-width="3"/>
<path d="M245.85 223.351C251.318 223.351 255.75 219.153 255.75 213.976C255.75 208.798 251.318 204.601 245.85 204.601C240.383 204.601 235.95 208.798 235.95 213.976C235.95 219.153 240.383 223.351 245.85 223.351Z" fill="#0071E3" stroke="#0071E3" stroke-width="3"/>
<path fill-rule="evenodd" clip-rule="evenodd" d="M56.2383 96.2708C64.0279 105.277 75.3098 110.55 87.4506 110.55C99.5914 110.55 110.873 105.277 118.663 96.2708L119.156 95.7002H311.851V134.794L309.248 132.952C302.34 128.065 294.098 125.4 285.451 125.4C262.669 125.4 244.201 143.868 244.201 166.65C244.201 176.695 247.802 186.179 254.238 193.621L256.599 196.35H6.60059V95.7002H55.7448L56.2383 96.2708Z" stroke="#1D1D1F" stroke-width="3"/>
<path d="M286.2 207.9C309.396 207.9 328.2 189.432 328.2 166.65C328.2 143.869 309.396 125.4 286.2 125.4C263.004 125.4 244.2 143.869 244.2 166.65C244.2 189.432 263.004 207.9 286.2 207.9Z" fill="#0071E3" stroke="#0071E3" stroke-width="3"/>
</svg>
