<svg width="330" height="248" viewBox="0 0 330 248" fill="none" xmlns="http://www.w3.org/2000/svg">
<path d="M205.5 202C205.5 206.067 201.996 209.5 197.5 209.5C193.004 209.5 189.5 206.067 189.5 202C189.5 197.933 193.004 194.5 197.5 194.5C201.996 194.5 205.5 197.933 205.5 202Z" fill="#0071E3" stroke="#0071E3" stroke-width="3"/>
<rect x="45.5" y="27.5" width="172" height="97" stroke="#1D1D1F" stroke-width="3"/>
<rect x="1.5" y="124.5" width="172" height="97" stroke="#0071E3" stroke-width="3" stroke-dasharray="8 5"/>
<path d="M205.5 148C205.5 152.067 201.996 155.5 197.5 155.5C193.004 155.5 189.5 152.067 189.5 148C189.5 143.933 193.004 140.5 197.5 140.5C201.996 140.5 205.5 143.933 205.5 148Z" stroke="#1D1D1F" stroke-width="3"/>
<circle cx="197.5" cy="174.5" r="8" stroke="#1D1D1F" stroke-width="3"/>
<path fill-rule="evenodd" clip-rule="evenodd" d="M277.076 210.173L246.009 174.201C243.792 171.634 240 173.454 240 177.085V227.138C240 230.116 242.588 232.161 244.984 231.076L275.825 217.1C278.278 215.989 278.938 212.329 277.076 210.173Z" stroke="#1D1D1F" stroke-width="3" stroke-linecap="round" stroke-linejoin="round"/>
<path d="M261.702 226.104L267.945 245.725" stroke="#1D1D1F" stroke-width="3" stroke-linecap="round" stroke-linejoin="round"/>
<path d="M303.663 99.1367L305.354 98.5184L304.921 97.3367H303.663V99.1367ZM263.751 99.1367V97.3367H262.487L262.058 98.5262L263.751 99.1367ZM254.787 124V125.8H256.052L256.48 124.61L254.787 124ZM241.832 124L240.15 123.358L239.218 125.8H241.832V124ZM278.211 28.7344V26.9344H276.972L276.529 28.0922L278.211 28.7344ZM289.203 28.7344L290.884 28.0912L290.442 26.9344H289.203V28.7344ZM325.647 124V125.8H328.263L327.329 123.357L325.647 124ZM312.758 124L311.067 124.618L311.5 125.8H312.758V124ZM267.546 88.7988L265.854 88.1851L264.978 90.5988H267.546V88.7988ZM299.934 88.7988V90.5988H302.505L301.625 88.1829L299.934 88.7988ZM283.707 44.2412L285.398 43.6253L283.704 38.9715L282.015 43.6275L283.707 44.2412ZM303.663 97.3367H263.751V100.937H303.663V97.3367ZM262.058 98.5262L253.094 123.39L256.48 124.61L265.444 99.7472L262.058 98.5262ZM254.787 122.2H241.832V125.8H254.787V122.2ZM243.514 124.642L279.893 29.3765L276.529 28.0922L240.15 123.358L243.514 124.642ZM278.211 30.5344H289.203V26.9344H278.211V30.5344ZM287.522 29.3775L323.966 124.643L327.329 123.357L290.884 28.0912L287.522 29.3775ZM325.647 122.2H312.758V125.8H325.647V122.2ZM314.448 123.382L305.354 98.5184L301.973 99.7551L311.067 124.618L314.448 123.382ZM267.546 90.5988H299.934V86.9988H267.546V90.5988ZM301.625 88.1829L285.398 43.6253L282.016 44.8571L298.242 89.4148L301.625 88.1829ZM282.015 43.6275L265.854 88.1851L269.238 89.4126L285.399 44.855L282.015 43.6275Z" fill="#1D1D1F"/>
</svg>
