<?xml version="1.0" encoding="UTF-8" standalone="no"?>
<svg
   xmlns:dc="http://purl.org/dc/elements/1.1/"
   xmlns:cc="http://creativecommons.org/ns#"
   xmlns:rdf="http://www.w3.org/1999/02/22-rdf-syntax-ns#"
   xmlns:svg="http://www.w3.org/2000/svg"
   xmlns="http://www.w3.org/2000/svg"
   xmlns:sodipodi="http://sodipodi.sourceforge.net/DTD/sodipodi-0.dtd"
   xmlns:inkscape="http://www.inkscape.org/namespaces/inkscape"
   version="1.1"
   id="svg2"
   xml:space="preserve"
   width="225.79466"
   height="79.591202"
   viewBox="0 0 225.79466 79.591202"
   sodipodi:docname="Adobe_Solution_Partner_Bronze.ai"><metadata
     id="metadata8"><rdf:RDF><cc:Work
         rdf:about=""><dc:format>image/svg+xml</dc:format><dc:type
           rdf:resource="http://purl.org/dc/dcmitype/StillImage" /></cc:Work></rdf:RDF></metadata><defs
     id="defs6"><clipPath
       clipPathUnits="userSpaceOnUse"
       id="clipPath18"><path
         d="M 0,59.693 H 169.346 V 0 H 0 Z"
         id="path16" /></clipPath></defs><sodipodi:namedview
     pagecolor="#ffffff"
     bordercolor="#666666"
     borderopacity="1"
     objecttolerance="10"
     gridtolerance="10"
     guidetolerance="10"
     inkscape:pageopacity="0"
     inkscape:pageshadow="2"
     inkscape:window-width="640"
     inkscape:window-height="480"
     id="namedview4" /><g
     id="g10"
     inkscape:groupmode="layer"
     inkscape:label="Adobe_Solution_Partner_Bronze"
     transform="matrix(1.3333333,0,0,-1.3333333,0,79.5912)"><g
       id="g12"><g
         id="g14"
         clip-path="url(#clipPath18)"><g
           id="g20"
           transform="translate(9.0544,49.4204)"><path
             d="M 0,0 C -0.479,1.584 -1.44,4.488 -1.896,6.192 H -1.92 C -2.304,4.584 -3.168,1.944 -3.792,0 Z m -4.656,-3 -1.153,-3.553 c -0.047,-0.12 -0.12,-0.192 -0.263,-0.192 h -2.784 c -0.168,0 -0.216,0.097 -0.193,0.241 l 4.801,13.849 c 0.096,0.263 0.191,0.551 0.24,1.464 0,0.096 0.071,0.168 0.144,0.168 h 3.841 c 0.119,0 0.168,-0.024 0.191,-0.144 L 5.616,-6.529 c 0.049,-0.119 0.025,-0.216 -0.12,-0.216 h -3.12 c -0.144,0 -0.216,0.048 -0.264,0.168 L 0.889,-3 Z"
             style="fill:#000000;fill-opacity:1;fill-rule:nonzero;stroke:none"
             id="path22" /></g><g
           id="g24"
           transform="translate(23.1423,51.9404)"><path
             d="m 0,0 c -0.24,0.096 -0.552,0.12 -0.888,0.12 -1.848,0 -3.432,-1.128 -3.432,-3.36 0,-2.376 1.368,-3.408 3.192,-3.408 0.408,0 0.792,0.023 1.128,0.144 z m -7.753,-3.408 c 0,3.432 2.568,6.312 6.961,6.312 C -0.6,2.904 -0.36,2.88 0,2.856 v 4.729 c 0,0.12 0.072,0.168 0.168,0.168 h 3.024 c 0.121,0 0.144,-0.048 0.144,-0.144 V -6.576 c 0,-0.552 0.024,-1.273 0.097,-1.753 0,-0.12 -0.025,-0.168 -0.168,-0.215 -1.657,-0.697 -3.241,-0.961 -4.729,-0.961 -3.553,0 -6.289,2.017 -6.289,6.097"
             style="fill:#000000;fill-opacity:1;fill-rule:nonzero;stroke:none"
             id="path26" /></g><g
           id="g28"
           transform="translate(32.0222,48.6763)"><path
             d="m 0,0 c 0,-2.112 0.984,-3.456 2.592,-3.456 1.392,0 2.448,1.2 2.448,3.408 0,1.872 -0.768,3.432 -2.592,3.432 C 1.056,3.384 0,2.136 0,0 m 8.448,0.024 c 0,-3.768 -2.448,-6.265 -5.904,-6.265 -4.105,0 -5.929,3.097 -5.929,6.193 0,3.408 2.281,6.216 5.977,6.216 3.864,0 5.856,-2.904 5.856,-6.144"
             style="fill:#000000;fill-opacity:1;fill-rule:nonzero;stroke:none"
             id="path30" /></g><g
           id="g32"
           transform="translate(47.3816,52.0127)"><path
             d="m 0,0 c -0.768,0 -1.104,-0.12 -1.416,-0.192 v -6.505 c 0.288,-0.072 0.601,-0.095 0.888,-0.095 1.824,0 3.48,1.104 3.48,3.6 C 2.952,-1.008 1.681,0 0,0 m -1.656,7.681 c 0.192,0 0.24,-0.024 0.24,-0.192 V 2.568 c 0.624,0.168 1.296,0.264 2.017,0.264 3.528,0 5.759,-2.496 5.759,-5.712 0,-4.489 -3.551,-6.697 -7.2,-6.697 -1.272,0 -2.544,0.168 -3.768,0.552 -0.073,0.024 -0.144,0.144 -0.144,0.24 V 7.513 c 0,0.119 0.048,0.168 0.168,0.168 z"
             style="fill:#000000;fill-opacity:1;fill-rule:nonzero;stroke:none"
             id="path34" /></g><g
           id="g36"
           transform="translate(61.8777,50.0923)"><path
             d="m 0,0 c 0.768,0 1.104,0.024 1.2,0.048 v 0.168 c 0,0.576 -0.456,1.896 -2.041,1.896 -1.512,0 -2.16,-1.128 -2.304,-2.112 z m -3.121,-2.328 c 0.12,-1.368 1.08,-2.496 3.433,-2.496 1.08,0 2.04,0.168 2.952,0.552 0.072,0.048 0.144,0.024 0.144,-0.12 v -2.28 C 3.408,-6.84 3.36,-6.913 3.24,-6.96 2.28,-7.417 1.224,-7.657 -0.433,-7.657 c -4.511,0 -6.096,3.097 -6.096,6.073 0,3.313 2.04,6.336 5.808,6.336 3.625,0 5.065,-2.808 5.065,-5.184 0,-0.744 -0.048,-1.344 -0.12,-1.608 C 4.2,-2.16 4.152,-2.208 4.032,-2.232 3.72,-2.28 2.808,-2.328 1.56,-2.328 Z"
             style="fill:#000000;fill-opacity:1;fill-rule:nonzero;stroke:none"
             id="path38" /></g><g
           id="g40"
           transform="translate(0.99,19.2754)"><path
             d="M 0,0 C -0.12,0.072 -0.168,0.192 -0.168,0.385 V 3.24 c 0,0.12 0.096,0.193 0.191,0.12 1.321,-0.839 2.905,-1.248 4.345,-1.248 1.824,0 2.544,0.624 2.544,1.465 0,0.768 -0.552,1.319 -2.183,2.016 L 3.528,6.097 c -2.952,1.248 -3.768,2.736 -3.768,4.608 0,2.592 1.968,4.657 5.784,4.657 1.513,0 2.881,-0.192 3.745,-0.624 0.119,-0.072 0.144,-0.168 0.144,-0.312 v -2.689 c 0,-0.095 -0.073,-0.216 -0.216,-0.12 -0.96,0.552 -2.28,0.793 -3.696,0.793 -1.849,0 -2.497,-0.624 -2.497,-1.417 0,-0.744 0.504,-1.248 2.304,-1.968 L 6.217,8.665 C 9.408,7.345 10.297,5.833 10.297,3.889 10.297,0.984 7.944,-0.84 4.248,-0.84 2.472,-0.84 1.008,-0.527 0,0"
             style="fill:#000000;fill-opacity:1;fill-rule:nonzero;stroke:none"
             id="path42" /></g><g
           id="g44"
           transform="translate(16.278,24.6768)"><path
             d="m 0,0 c 0,-2.112 0.984,-3.457 2.592,-3.457 1.392,0 2.448,1.2 2.448,3.408 0,1.872 -0.768,3.433 -2.592,3.433 C 1.056,3.384 0,2.136 0,0 m 8.448,0.023 c 0,-3.768 -2.448,-6.264 -5.904,-6.264 -4.105,0 -5.929,3.096 -5.929,6.192 0,3.408 2.281,6.217 5.977,6.217 3.864,0 5.856,-2.904 5.856,-6.145"
             style="fill:#000000;fill-opacity:1;fill-rule:nonzero;stroke:none"
             id="path46" /></g><g
           id="g48"
           transform="translate(26.8855,35.5015)"><path
             d="M 0,0 C 0,0.12 0.048,0.192 0.239,0.192 H 3.096 C 3.264,0.192 3.336,0.12 3.336,0 v -13.441 c 0,-0.673 0.216,-0.912 0.792,-0.912 0.192,0 0.216,0 0.433,0.023 0.095,0 0.119,-0.047 0.119,-0.168 v -2.064 c 0,-0.191 -0.024,-0.239 -0.168,-0.288 -0.288,-0.119 -0.744,-0.216 -1.488,-0.216 -1.728,0 -3.024,0.649 -3.024,3.313 z"
             style="fill:#000000;fill-opacity:1;fill-rule:nonzero;stroke:none"
             id="path50" /></g><g
           id="g52"
           transform="translate(43.7097,21.3398)"><path
             d="M 0,0 C 0,-1.224 0.096,-1.968 0.144,-2.472 0.168,-2.616 0.096,-2.664 -0.072,-2.664 h -2.544 c -0.193,0 -0.24,0.048 -0.288,0.168 -0.048,0.216 -0.12,0.528 -0.144,0.744 -1.056,-0.912 -2.257,-1.152 -3.289,-1.152 -2.399,0 -4.056,1.32 -4.056,4.633 v 7.344 c 0,0.168 0.048,0.192 0.216,0.192 h 2.928 c 0.145,0 0.168,-0.048 0.168,-0.192 V 2.112 c 0,-1.296 0.553,-2.135 1.873,-2.135 0.792,0 1.344,0.239 1.872,0.695 v 8.401 c 0,0.144 0.071,0.192 0.239,0.192 h 2.905 C -0.024,9.265 0,9.217 0,9.073 Z"
             style="fill:#000000;fill-opacity:1;fill-rule:nonzero;stroke:none"
             id="path54" /></g><g
           id="g56"
           transform="translate(52.781,19.084)"><path
             d="m 0,0 c 0,-0.145 -0.023,-0.265 -0.168,-0.312 -0.672,-0.24 -1.296,-0.336 -2.136,-0.336 -2.088,0 -3.312,1.032 -3.312,3.432 V 8.736 H -7.057 C -7.2,8.761 -7.248,8.809 -7.248,8.952 v 2.353 c 0,0.168 0.048,0.216 0.216,0.216 h 1.44 c 0.024,0.816 0.12,2.232 0.239,2.904 0.025,0.12 0.097,0.192 0.217,0.216 l 2.808,0.36 c 0.12,0.024 0.192,0.024 0.192,-0.144 -0.072,-0.744 -0.12,-2.16 -0.12,-3.336 h 2.208 c 0.145,0 0.193,-0.048 0.193,-0.192 V 8.904 c 0,-0.12 -0.048,-0.143 -0.168,-0.168 H -2.28 V 3.601 c 0,-1.057 0.312,-1.537 1.297,-1.537 0.288,0 0.527,0.048 0.815,0.096 C -0.071,2.16 0,2.136 0,1.992 Z"
             style="fill:#000000;fill-opacity:1;fill-rule:nonzero;stroke:none"
             id="path58" /></g><g
           id="g60"
           transform="translate(54.8445,30.4131)"><path
             d="M 0,0 C 0,0.12 0.048,0.191 0.191,0.191 H 3.144 C 3.288,0.191 3.336,0.144 3.336,0 v -11.521 c 0,-0.144 -0.024,-0.216 -0.216,-0.216 H 0.239 C 0.071,-11.737 0,-11.665 0,-11.521 Z m -0.168,3.336 c 0,1.08 0.792,1.848 1.872,1.848 1.151,0 1.848,-0.768 1.848,-1.848 0,-1.128 -0.744,-1.872 -1.872,-1.872 -1.128,0 -1.848,0.744 -1.848,1.872"
             style="fill:#000000;fill-opacity:1;fill-rule:nonzero;stroke:none"
             id="path62" /></g><g
           id="g64"
           transform="translate(63.7243,24.6768)"><path
             d="m 0,0 c 0,-2.112 0.984,-3.457 2.592,-3.457 1.392,0 2.448,1.2 2.448,3.408 0,1.872 -0.768,3.433 -2.592,3.433 C 1.056,3.384 0,2.136 0,0 m 8.448,0.023 c 0,-3.768 -2.448,-6.264 -5.904,-6.264 -4.105,0 -5.929,3.096 -5.929,6.192 0,3.408 2.281,6.217 5.977,6.217 3.864,0 5.856,-2.904 5.856,-6.145"
             style="fill:#000000;fill-opacity:1;fill-rule:nonzero;stroke:none"
             id="path66" /></g><g
           id="g68"
           transform="translate(74.3318,27.8203)"><path
             d="m 0,0 c 0,0.816 -0.048,2.064 -0.097,2.593 -0.023,0.12 0.025,0.191 0.168,0.191 H 2.592 C 2.784,2.784 2.855,2.713 2.904,2.593 3,2.377 3.048,2.137 3.096,1.801 c 1.008,0.815 2.136,1.223 3.408,1.223 1.849,0 4.032,-0.96 4.032,-4.824 v -7.129 c 0,-0.143 -0.048,-0.216 -0.216,-0.216 H 7.44 c -0.168,0 -0.24,0.073 -0.24,0.216 v 6.841 C 7.2,-0.647 6.576,0.12 5.328,0.12 4.512,0.12 3.84,-0.168 3.336,-0.624 v -8.328 c 0,-0.12 -0.072,-0.193 -0.216,-0.193 H 0.216 C 0.048,-9.145 0,-9.072 0,-8.929 Z"
             style="fill:#000000;fill-opacity:1;fill-rule:nonzero;stroke:none"
             id="path70" /></g><g
           id="g72"
           transform="translate(96.7956,26.5488)"><path
             d="m 0,0 c 0.408,-0.024 0.673,-0.024 1.345,-0.024 1.895,0 3.408,0.576 3.408,2.544 0,1.512 -1.032,2.472 -3.12,2.472 C 0.864,4.992 0.217,4.968 0,4.944 Z m -3.312,7.632 c 0,0.144 0.024,0.192 0.144,0.192 0.984,0.024 2.88,0.072 4.704,0.072 4.849,0 6.529,-2.688 6.529,-5.304 0,-3.889 -3.001,-5.544 -6.697,-5.544 H 0 v -4.729 c 0,-0.12 -0.048,-0.192 -0.191,-0.192 h -2.953 c -0.12,0 -0.168,0.072 -0.168,0.192 z"
             style="fill:#000000;fill-opacity:1;fill-rule:nonzero;stroke:none"
             id="path74" /></g><g
           id="g76"
           transform="translate(112.5876,23.8125)"><path
             d="m 0,0 c -0.384,0.048 -0.72,0.071 -1.2,0.071 -1.704,0 -2.401,-0.551 -2.401,-1.416 0,-0.792 0.601,-1.439 2.113,-1.439 0.551,0 1.032,0.071 1.488,0.216 z m 3.24,-2.473 c 0,-0.624 0,-1.128 0.048,-1.704 0,-0.048 0,-0.095 -0.048,-0.12 -2.112,-0.815 -3.504,-1.08 -5.232,-1.08 -2.664,0 -4.849,1.225 -4.849,4.009 0,2.544 2.233,3.888 5.425,3.888 0.647,0 1.2,0 1.416,-0.048 L 0,2.64 c 0,0.456 -0.288,1.512 -2.305,1.512 -1.199,0 -2.256,-0.24 -3.168,-0.648 -0.095,-0.048 -0.215,0 -0.215,0.12 v 2.424 c 0,0.12 0.024,0.192 0.167,0.24 1.056,0.504 2.424,0.744 3.769,0.744 3.456,0 4.992,-2.136 4.992,-4.872 z"
             style="fill:#000000;fill-opacity:1;fill-rule:nonzero;stroke:none"
             id="path78" /></g><g
           id="g80"
           transform="translate(121.323,30.6045)"><path
             d="m 0,0 c 0.168,0 0.24,-0.071 0.288,-0.216 0.12,-0.311 0.24,-0.816 0.265,-1.344 0.792,0.936 2.111,1.8 3.815,1.8 0.145,0 0.193,-0.048 0.193,-0.192 v -2.952 c 0,-0.12 -0.048,-0.168 -0.216,-0.168 C 2.616,-3 1.225,-3.528 0.721,-4.104 l -0.025,-7.632 c 0,-0.145 -0.048,-0.193 -0.216,-0.193 H -2.4 c -0.192,0 -0.24,0.073 -0.24,0.216 v 8.281 c 0,1.033 -0.024,2.424 -0.12,3.264 0,0.12 0.024,0.168 0.144,0.168 z"
             style="fill:#000000;fill-opacity:1;fill-rule:nonzero;stroke:none"
             id="path82" /></g><g
           id="g84"
           transform="translate(134.4265,19.084)"><path
             d="m 0,0 c 0,-0.145 -0.023,-0.265 -0.168,-0.312 -0.672,-0.24 -1.296,-0.336 -2.136,-0.336 -2.088,0 -3.312,1.032 -3.312,3.432 V 8.736 H -7.057 C -7.2,8.761 -7.248,8.809 -7.248,8.952 v 2.353 c 0,0.168 0.048,0.216 0.216,0.216 h 1.44 c 0.024,0.816 0.12,2.232 0.239,2.904 0.025,0.12 0.097,0.192 0.217,0.216 l 2.808,0.36 c 0.12,0.024 0.192,0.024 0.192,-0.144 -0.072,-0.744 -0.12,-2.16 -0.12,-3.336 h 2.208 c 0.145,0 0.193,-0.048 0.193,-0.192 V 8.904 c 0,-0.12 -0.048,-0.143 -0.168,-0.168 H -2.28 V 3.601 c 0,-1.057 0.312,-1.537 1.297,-1.537 0.288,0 0.527,0.048 0.815,0.096 C -0.071,2.16 0,2.136 0,1.992 Z"
             style="fill:#000000;fill-opacity:1;fill-rule:nonzero;stroke:none"
             id="path86" /></g><g
           id="g88"
           transform="translate(136.4421,27.8203)"><path
             d="m 0,0 c 0,0.816 -0.048,2.064 -0.097,2.593 -0.023,0.12 0.025,0.191 0.168,0.191 H 2.592 C 2.784,2.784 2.855,2.713 2.904,2.593 3,2.377 3.048,2.137 3.096,1.801 c 1.008,0.815 2.136,1.223 3.408,1.223 1.849,0 4.032,-0.96 4.032,-4.824 v -7.129 c 0,-0.143 -0.048,-0.216 -0.216,-0.216 H 7.44 c -0.168,0 -0.24,0.073 -0.24,0.216 v 6.841 C 7.2,-0.647 6.576,0.12 5.328,0.12 4.512,0.12 3.84,-0.168 3.336,-0.624 v -8.328 c 0,-0.12 -0.072,-0.193 -0.216,-0.193 H 0.216 C 0.048,-9.145 0,-9.072 0,-8.929 Z"
             style="fill:#000000;fill-opacity:1;fill-rule:nonzero;stroke:none"
             id="path90" /></g><g
           id="g92"
           transform="translate(155.6667,26.0928)"><path
             d="m 0,0 c 0.768,0 1.104,0.023 1.2,0.048 v 0.168 c 0,0.576 -0.456,1.896 -2.041,1.896 -1.512,0 -2.16,-1.129 -2.304,-2.112 z m -3.121,-2.328 c 0.12,-1.368 1.08,-2.497 3.433,-2.497 1.08,0 2.04,0.168 2.952,0.553 0.072,0.047 0.144,0.023 0.144,-0.121 v -2.28 c 0,-0.168 -0.048,-0.24 -0.168,-0.288 -0.96,-0.456 -2.016,-0.696 -3.673,-0.696 -4.511,0 -6.096,3.096 -6.096,6.072 0,3.313 2.04,6.337 5.808,6.337 3.625,0 5.065,-2.809 5.065,-5.185 0,-0.744 -0.048,-1.343 -0.12,-1.607 C 4.2,-2.16 4.152,-2.209 4.032,-2.232 3.72,-2.28 2.808,-2.328 1.56,-2.328 Z"
             style="fill:#000000;fill-opacity:1;fill-rule:nonzero;stroke:none"
             id="path94" /></g><g
           id="g96"
           transform="translate(164.7859,30.6045)"><path
             d="m 0,0 c 0.168,0 0.24,-0.071 0.288,-0.216 0.12,-0.311 0.24,-0.816 0.265,-1.344 0.792,0.936 2.111,1.8 3.815,1.8 0.145,0 0.193,-0.048 0.193,-0.192 v -2.952 c 0,-0.12 -0.048,-0.168 -0.216,-0.168 C 2.616,-3 1.225,-3.528 0.721,-4.104 l -0.025,-7.632 c 0,-0.145 -0.048,-0.193 -0.216,-0.193 H -2.4 c -0.192,0 -0.24,0.073 -0.24,0.216 v 8.281 c 0,1.033 -0.024,2.424 -0.12,3.264 0,0.12 0.024,0.168 0.144,0.168 z"
             style="fill:#000000;fill-opacity:1;fill-rule:nonzero;stroke:none"
             id="path98" /></g><g
           id="g100"
           transform="translate(2.6618,1.6377)"><path
             d="M 0,0 C 0.273,-0.013 0.559,-0.026 0.949,-0.026 2.067,-0.039 2.73,0.325 2.73,1.079 2.73,1.521 2.548,1.898 1.937,2.054 1.729,2.106 1.443,2.132 1.118,2.132 H 0 Z m 0,3.679 h 0.884 c 0.442,0 0.962,-0.038 1.157,-0.065 0.234,0.208 0.39,0.455 0.39,0.885 0,0.663 -0.494,1.014 -1.482,1.014 C 0.546,5.513 0.286,5.5 0,5.486 Z m -1.768,3.185 c 0,0.078 0.013,0.117 0.078,0.131 0.455,0.012 1.729,0.039 2.652,0.039 2.769,0 3.225,-1.418 3.225,-2.276 0,-0.883 -0.469,-1.417 -0.793,-1.651 0.48,-0.247 1.209,-0.806 1.209,-2.002 0,-1.586 -1.378,-2.639 -3.615,-2.639 -1.261,0 -2.184,0.013 -2.665,0.026 -0.065,0.013 -0.091,0.052 -0.091,0.117 z"
             style="fill:#000000;fill-opacity:1;fill-rule:nonzero;stroke:none"
             id="path102" /></g><g
           id="g104"
           transform="translate(12.072,4.8101)"><path
             d="m 0,0 c 0.975,0 1.6,0.39 1.6,1.157 0,0.793 -0.651,1.131 -1.613,1.131 -0.429,0 -0.793,-0.013 -0.988,-0.026 V 0 Z m -2.665,-4.68 c -0.078,0 -0.105,0.026 -0.105,0.117 v 8.255 c 0,0.065 0.014,0.13 0.092,0.13 1.17,0.026 1.664,0.039 2.717,0.039 2.158,0 3.367,-0.923 3.367,-2.6 C 3.406,0.182 2.73,-0.65 1.781,-1.027 2.21,-1.612 3.68,-3.822 4.082,-4.524 4.121,-4.602 4.134,-4.68 4.043,-4.68 H 2.158 c -0.117,0 -0.156,0.026 -0.181,0.078 -0.377,0.572 -1.197,1.963 -1.73,2.847 -0.091,0.156 -0.156,0.221 -0.299,0.221 h -0.949 v -3.042 c 0,-0.065 -0.039,-0.104 -0.104,-0.104 z"
             style="fill:#000000;fill-opacity:1;fill-rule:nonzero;stroke:none"
             id="path106" /></g><g
           id="g108"
           transform="translate(21.2527,1.5991)"><path
             d="M 0,0 C 1.353,0 2.158,1.105 2.158,2.782 2.146,4.511 1.339,5.577 -0.065,5.577 -1.365,5.577 -2.262,4.563 -2.262,2.782 -2.262,1.209 -1.456,0 0,0 M 4.018,2.834 C 4.03,0.182 2.366,-1.599 -0.065,-1.599 c -2.548,0 -4.056,1.872 -4.056,4.394 0,2.431 1.625,4.381 4.082,4.381 2.587,0 4.043,-1.963 4.057,-4.342"
             style="fill:#000000;fill-opacity:1;fill-rule:nonzero;stroke:none"
             id="path110" /></g><g
           id="g112"
           transform="translate(27.4343,0.1299)"><path
             d="m 0,0 c -0.078,0 -0.116,0.013 -0.116,0.117 v 8.294 c 0,0.066 0.025,0.104 0.091,0.104 H 2.08 C 2.185,8.515 2.197,8.489 2.249,8.411 3.12,6.812 4.876,3.406 5.292,2.444 H 5.305 C 5.292,2.821 5.266,3.211 5.266,4.485 v 3.913 c 0,0.079 0.039,0.117 0.117,0.117 h 1.456 c 0.091,0 0.117,-0.038 0.117,-0.13 V 0.13 C 6.956,0.026 6.93,0 6.812,0 H 4.94 C 4.823,0 4.798,0.026 4.759,0.104 4.03,1.534 2.067,5.174 1.521,6.578 H 1.509 C 1.561,5.824 1.573,5.304 1.573,4.082 V 0.117 C 1.573,0.039 1.548,0 1.47,0 Z"
             style="fill:#000000;fill-opacity:1;fill-rule:nonzero;stroke:none"
             id="path114" /></g><g
           id="g116"
           transform="translate(36.3923,0.1299)"><path
             d="m 0,0 c -0.065,0 -0.117,0.013 -0.117,0.117 v 1.001 c 0,0.091 0.013,0.117 0.039,0.169 l 4.29,5.616 H 0.064 c -0.078,0 -0.116,0.013 -0.103,0.104 l 0.208,1.404 c 0.013,0.078 0.052,0.104 0.13,0.104 h 6.11 c 0.065,0 0.078,-0.026 0.078,-0.091 V 7.345 C 6.487,7.267 6.474,7.215 6.422,7.137 L 2.223,1.625 h 4.446 c 0.065,0 0.091,-0.052 0.065,-0.13 L 6.5,0.104 C 6.487,0.039 6.461,0 6.37,0 Z"
             style="fill:#000000;fill-opacity:1;fill-rule:nonzero;stroke:none"
             id="path118" /></g><g
           id="g120"
           transform="translate(50.4402,0.2471)"><path
             d="m 0,0 c -0.013,-0.104 -0.039,-0.117 -0.13,-0.117 h -5.291 c -0.078,0 -0.103,0.039 -0.103,0.117 v 8.281 c 0,0.078 0.025,0.117 0.103,0.117 h 5.135 c 0.104,0 0.131,-0.013 0.143,-0.104 L 0,6.89 C 0.014,6.825 0,6.773 -0.091,6.773 H -3.718 V 5.031 h 3.316 c 0.064,0 0.103,-0.026 0.103,-0.104 v -1.43 c 0,-0.078 -0.052,-0.091 -0.103,-0.091 H -3.718 V 1.508 h 3.835 c 0.105,0 0.117,-0.039 0.105,-0.117 z"
             style="fill:#000000;fill-opacity:1;fill-rule:nonzero;stroke:none"
             id="path122" /></g></g></g></g></svg>
