<?xml version="1.0" encoding="UTF-8"?>
<svg xmlns="http://www.w3.org/2000/svg" id="Layer_1" data-name="Layer 1" viewBox="0 0 512 512" width="512" height="512"><path d="M126,267.366a6,6,0,0,0-6,6V276H78V234h38.454a6,6,0,1,0,0-12H71.58c-3.313,0-5.58,2.638-5.58,5.952v54.364A5.392,5.392,0,0,0,71.58,288h54.364A5.787,5.787,0,0,0,132,282.316v-8.95A6,6,0,0,0,126,267.366Z"/><path d="M126.8,237.191l-19.517,16.363L101,247.271a6,6,0,1,0-8.484,8.485l10.169,10.169a6,6,0,0,0,8.1.355l23.728-19.892a6,6,0,0,0-7.709-9.2Z"/><path d="M232.907,237H157.562a6,6,0,0,0,0,12h75.345a6,6,0,1,0,0-12Z"/><path d="M126,318H72a6,6,0,0,0-6,6v54a6,6,0,0,0,6,6h54a6,6,0,0,0,6-6V324A6,6,0,0,0,126,318Zm-6,55H78V330h42Z"/><path d="M66,132.656V187.02c0,3.313,2.267,5.98,5.58,5.98h54.364A6.031,6.031,0,0,0,132,187.02v-8.949a6,6,0,0,0-12,0V181H78V139h38.454a6,6,0,1,0,0-12H71.58A5.369,5.369,0,0,0,66,132.656Z"/><path d="M126.8,141.9l-19.517,16.362L101,151.975a6,6,0,1,0-8.484,8.485l10.169,10.169a6,6,0,0,0,8.1.355l23.728-19.893a6,6,0,0,0-7.709-9.2Z"/><path d="M151.562,148a6,6,0,0,0,6,6h75.345a6,6,0,1,0,0-12H157.562A6,6,0,0,0,151.562,148Z"/><path d="M151.562,172a6,6,0,0,0,6,6h114.25a6,6,0,0,0,0-12H157.562A6,6,0,0,0,151.562,172Z"/><path d="M71,84a6,6,0,0,0-6-6H63a6,6,0,0,0,0,12h2A6,6,0,0,0,71,84Z"/><path d="M85,90h92a6,6,0,0,0,0-12H85a6,6,0,0,0,0,12Z"/><path d="M472.344,463.665l-59.594-59.6a6,6,0,0,0-8.484,0l-3.879,3.879-2.225-2.225a96.554,96.554,0,0,0-9.1-125.8h0A95.861,95.861,0,0,0,368,264.03V64.478a15.5,15.5,0,0,0-5.314-11.688L312.556,9.056A16.467,16.467,0,0,0,301.735,5H117.457a31.7,31.7,0,0,0-17.018,4.76A32.553,32.553,0,0,0,85,37.4V49H64.632A32.728,32.728,0,0,0,32,81.632V397.371A32.725,32.725,0,0,0,64.629,430H269.475a95.3,95.3,0,0,0,51.385,15h.015a95.929,95.929,0,0,0,57.645-19.357l2.209,2.087-3.878,3.817a5.943,5.943,0,0,0,0,8.439l59.594,59.587a25.388,25.388,0,0,0,35.9-35.908ZM311,24.206,346.119,54H311ZM64.637,418h-.006A20.692,20.692,0,0,1,44,397.369V81.633A20.633,20.633,0,0,1,64.633,61H247v43.439A5.561,5.561,0,0,0,252.561,110H303v65.748A6.167,6.167,0,0,0,308.814,182,6,6,0,0,0,315,176V108.376a15.441,15.441,0,0,0-5.29-11.633L259.656,53.1A16.618,16.618,0,0,0,248.731,49H97V37.931a21.123,21.123,0,0,1,4.22-12.917A20.378,20.378,0,0,1,117.47,17H299V60.434A5.566,5.566,0,0,0,304.566,66H356V258.363a96.859,96.859,0,0,0-41-6.5V218a6,6,0,0,0-12,0v35.351a96.9,96.9,0,0,0-26.928,9.426,5.977,5.977,0,0,0-4.26-1.777H157.562a6,6,0,0,0,0,12H260.443a95.845,95.845,0,0,0-34.812,60H157.562a6,6,0,0,0,0,12h66.95c-.033,1.024-.055,2.05-.055,3.08a98.728,98.728,0,0,0,.5,9.92h-67.4a6,6,0,0,0,0,12h69.375a96.061,96.061,0,0,0,25.751,46.506c.5.505,1.015,1,1.53,1.494ZM259,98V68.218L293.218,98ZM380.557,408.043A84.1,84.1,0,0,1,320.874,433h-.012a84.72,84.72,0,0,1-59.671-144.545,85.013,85.013,0,0,1,47.385-23.846,83.611,83.611,0,0,1,12.166-.9,84.519,84.519,0,0,1,59.815,144.339Zm7.132,9.556c.454-.436.906-.872,1.352-1.318s.877-.928,1.32-1.389l1.541,1.542-2.689,2.689Zm1.889,18.129,18.93-18.93,5.221,5.222L394.8,440.95Zm74.281,55.352a13.4,13.4,0,0,1-18.929,0l-41.644-41.644,18.93-18.93,41.643,41.644a13.384,13.384,0,0,1,0,18.93Z"/><path d="M375.541,293.444a77.3,77.3,0,0,0-109.317-.017,77.3,77.3,0,1,0,109.317.017Zm-8.5,100.831a65.3,65.3,0,1,1-55.68-110.783,64.53,64.53,0,0,1,9.411-.688A65.29,65.29,0,0,1,367.04,394.275Z"/><path d="M379.534,346.069c-1.057-1.448-26.263-35.457-58.66-35.457s-57.6,34.009-58.661,35.457a6,6,0,0,0,0,7.077c1.058,1.447,26.264,35.458,58.661,35.458s57.6-34.011,58.66-35.458A6,6,0,0,0,379.534,346.069Zm-91.8,16.308a107.391,107.391,0,0,1-12.965-12.77,107.471,107.471,0,0,1,12.965-12.769,35.4,35.4,0,0,0,0,25.539Zm33.138,10.752A23.522,23.522,0,1,1,344.4,349.607,23.548,23.548,0,0,1,320.874,373.129Zm33.138-10.752a35.388,35.388,0,0,0,0-25.538,107.455,107.455,0,0,1,12.964,12.768A107.445,107.445,0,0,1,354.012,362.377Z"/></svg>
