<svg xmlns="http://www.w3.org/2000/svg" version="1.1" xmlns:xlink="http://www.w3.org/1999/xlink" xmlns:svgjs="http://svgjs.com/svgjs" width="2600" height="900" preserveAspectRatio="none" viewBox="0 0 2600 900"><g mask="url(&quot;#SvgjsMask1536&quot;)" fill="none"><rect width="2600" height="900" x="0" y="0" fill="rgba(9, 13, 45, 1)"></rect><path d="M2686.666666666667 900L0 900 L0 601.28Q101.11 572.38, 130 673.49Q181.19 594.68, 260 645.87Q288.34 544.21, 390 572.56Q512.75 478.65, 606.6666666666667 601.4Q747.89 525.96, 823.3333333333335 667.18Q905.25 532.43, 1040.0000000000002 614.34Q1116.27 560.61, 1170.0000000000002 636.88Q1258.86 509.08, 1386.666666666667 597.94Q1537.66 532.26, 1603.3333333333337 683.25Q1636.51 586.43, 1733.3333333333337 619.61Q1791.81 548.09, 1863.3333333333337 606.57Q1944.02 557.26, 1993.3333333333337 637.94Q2081 595.61, 2123.333333333334 683.28Q2192.23 535.51, 2340.0000000000005 604.4Q2422.49 556.89, 2470.0000000000005 639.38Q2584.03 536.74, 2686.666666666667 650.77z" fill="rgba(14, 20, 71, 1)"></path><path d="M2643.3333333333335 900L0 900 L0 663.66Q110.87 557.87, 216.66666666666669 668.74Q335.84 571.25, 433.33333333333337 690.42Q555.99 596.41, 650 719.07Q751.97 604.38, 866.6666666666667 706.35Q917.31 626.99, 996.6666666666667 677.63Q1102.64 653.61, 1126.6666666666667 759.58Q1142.56 645.48, 1256.6666666666667 661.37Q1328.84 603.54, 1386.6666666666667 675.71Q1538.36 610.73, 1603.3333333333335 762.42Q1688.58 631, 1820.0000000000002 716.24Q1913.57 593.14, 2036.666666666667 686.71Q2085.44 605.48, 2166.666666666667 654.25Q2257.14 614.73, 2296.666666666667 705.2Q2341.21 619.75, 2426.666666666667 664.29Q2568.3 589.25, 2643.3333333333335 730.88z" fill="rgba(37, 70, 125, 1)"></path><path d="M2686.6666666666665 900L0 900 L0 805.44Q80.78 669.55, 216.66666666666669 750.33Q298.16 701.82, 346.6666666666667 783.31Q466.19 686.17, 563.3333333333334 805.69Q645.51 671.2, 780 753.38Q857.56 700.94, 910 778.51Q956.92 695.43, 1040 742.35Q1178.64 664.33, 1256.6666666666667 802.97Q1342.33 758.63, 1386.6666666666667 844.3Q1482.3 723.27, 1603.3333333333335 818.9Q1659.78 745.35, 1733.3333333333335 801.8Q1818.44 670.24, 1950.0000000000002 755.35Q2006.93 682.29, 2080 739.22Q2174.97 704.19, 2210 799.17Q2286.49 745.65, 2340 822.14Q2423.9 689.38, 2556.6666666666665 773.28Q2652.44 739.05, 2686.6666666666665 834.82z" fill="rgba(0, 161, 224, 1)"></path><path d="M2686.6666666666665 900L0 900 L0 923.72Q82.08 789.13, 216.66666666666669 871.21Q302.97 740.85, 433.33333333333337 827.16Q570.29 747.45, 650 884.4Q726.86 831.25, 780 908.11Q869.04 780.49, 996.6666666666667 869.53Q1042.99 785.86, 1126.6666666666667 832.18Q1231.27 806.78, 1256.6666666666667 911.39Q1275.97 800.69, 1386.6666666666667 820Q1457.45 760.78, 1516.6666666666667 831.56Q1623.32 808.21, 1646.6666666666667 914.86Q1706.73 758.26, 1863.3333333333335 818.33Q1955.1 780.1, 1993.3333333333335 871.87Q2075.83 824.37, 2123.3333333333335 906.87Q2181.04 834.58, 2253.3333333333335 892.28Q2348.97 771.25, 2470 866.88Q2603.01 783.23, 2686.6666666666665 916.24z" fill="rgba(255, 255, 255, 1)"></path></g><defs><mask id="SvgjsMask1536"><rect width="2600" height="900" fill="#ffffff"></rect></mask></defs></svg>