<?xml version="1.0"?>
<svg xmlns="http://www.w3.org/2000/svg" xmlns:xlink="http://www.w3.org/1999/xlink" xmlns:svgjs="http://svgjs.com/svgjs" version="1.1" width="512" height="512" x="0" y="0" viewBox="0 0 64 64" style="enable-background:new 0 0 512 512" xml:space="preserve" class=""><g><g xmlns="http://www.w3.org/2000/svg" id="cluster"><path d="M56,43h-.208a10.87,10.87,0,0,0,1.185-4.6A7.983,7.983,0,0,0,54,23h-.885A13.805,13.805,0,0,0,55,16a13.992,13.992,0,0,0-27.414-3.958A10.994,10.994,0,0,0,9,20a10.881,10.881,0,0,0,.424,3.021A8,8,0,0,0,10,39H21.376A8.466,8.466,0,0,0,21,41.5a3.53,3.53,0,0,0,.4,1.53,6,6,0,0,0-4.832,3.476,6.939,6.939,0,0,0-2.859,2.162A6.3,6.3,0,0,0,11,48a6.006,6.006,0,0,0-6,6v.126A4,4,0,0,0,6,62H26a4,4,0,0,0,4-4,4.613,4.613,0,0,0-1.878-3H36a1,1,0,0,0,.757.97l.669.167-.355.591a1,1,0,0,0,.151,1.222l2.828,2.828a1,1,0,0,0,1.222.151l.591-.355.167.669A1,1,0,0,0,43,62h4a1,1,0,0,0,.97-.757l.167-.669.591.355a1,1,0,0,0,1.222-.151l2.828-2.828a1,1,0,0,0,.151-1.222l-.355-.591.669-.167A1,1,0,0,0,54,55h2a6,6,0,0,0,0-12ZM10,37a6,6,0,0,1,0-12h.84a1,1,0,0,0,.915-1.4A8.9,8.9,0,0,1,11,20a9,9,0,0,1,16.326-5.219,1,1,0,0,0,1.8-.443A11.992,11.992,0,0,1,53,16a11.874,11.874,0,0,1-2.558,7.384A1,1,0,0,0,51.23,25H54a5.989,5.989,0,0,1,2.849,11.263A11.008,11.008,0,0,0,46,27c-.337,0-.671.016-1,.045V20h2V18H44a1,1,0,0,0-1,1v8.413A10.86,10.86,0,0,0,39,29.5V13h2V11H38a1,1,0,0,0-1,1V31.661a10.926,10.926,0,0,0-1.669,3.665A8.562,8.562,0,0,0,33,33.77V22a1,1,0,0,0-1-1H22v2h9V33.14a8.349,8.349,0,0,0-4,.236V31a1,1,0,0,0-1-1H10v2H25v2.3A8.539,8.539,0,0,0,22.3,37ZM28,58a2,2,0,0,1-2,2H6a2,2,0,0,1,0-4,1,1,0,0,0,1-1V54a4,4,0,0,1,4-4,4.473,4.473,0,0,1,2.425.818,1,1,0,0,0,1.431-.3,5.642,5.642,0,0,1,1.152-1.366A6,6,0,0,0,21,54.91V56H14v2h8a1,1,0,0,0,1-1V55h1.715C26.432,56.047,28,57.466,28,58Zm24-3.781-1.221.3a1,1,0,0,0-.614,1.485l.647,1.079-1.724,1.724-1.079-.647a1,1,0,0,0-1.485.614L46.219,60H43.781l-.3-1.221a1,1,0,0,0-1.485-.614l-1.079.647-1.724-1.724.647-1.079a1,1,0,0,0-.614-1.485L38,54.219V51.781l1.221-.3a1,1,0,0,0,.614-1.485l-.647-1.079,1.724-1.724,1.079.647a1,1,0,0,0,1.485-.615l.3-1.22h2.438l.3,1.22a1,1,0,0,0,1.485.615l1.079-.647,1.724,1.724-.647,1.079a1,1,0,0,0,.614,1.485l1.221.3ZM56,53H54V51a1,1,0,0,0-.757-.97l-.669-.167.355-.591a1,1,0,0,0-.151-1.222L49.95,45.222a1,1,0,0,0-1.222-.151l-.591.355-.167-.669A1,1,0,0,0,47,44H43a1,1,0,0,0-.97.757l-.167.669-.591-.355a1,1,0,0,0-1.222.151L37.222,48.05a1,1,0,0,0-.151,1.222l.355.591-.669.167A1,1,0,0,0,36,51v2H22a4,4,0,0,1,0-8h1a1,1,0,0,0,.941-1.338,7.117,7.117,0,0,0-.475-.991A3.065,3.065,0,0,1,23,41.5a6.494,6.494,0,0,1,12.141-3.214,1,1,0,0,0,1.868-.474A9,9,0,1,1,53.189,43.4a1,1,0,0,0,.8,1.6H56a4,4,0,0,1,0,8Z" fill="#090d2d" data-original="#000000" style="" class=""/><path d="M45,49a4,4,0,1,0,4,4A4,4,0,0,0,45,49Zm0,6a2,2,0,1,1,2-2A2,2,0,0,1,45,55Z" fill="#090d2d" data-original="#000000" style="" class=""/><path d="M25.03,40.977l1.987.231A2.5,2.5,0,0,1,29.5,39V37A4.5,4.5,0,0,0,25.03,40.977Z" fill="#090d2d" data-original="#000000" style="" class=""/><path d="M46,31v2a5.006,5.006,0,0,1,5,5h2A7.008,7.008,0,0,0,46,31Z" fill="#090d2d" data-original="#000000" style="" class=""/><path d="M49,16h2A10.011,10.011,0,0,0,41,6V8A8.009,8.009,0,0,1,49,16Z" fill="#090d2d" data-original="#000000" style="" class=""/><path d="M15.419,22A4.946,4.946,0,0,1,15,20a5.006,5.006,0,0,1,5-5V13a7.008,7.008,0,0,0-7,7,6.922,6.922,0,0,0,.587,2.8Z" fill="#090d2d" data-original="#000000" style="" class=""/><rect x="18" y="21" width="2" height="2" fill="#090d2d" data-original="#000000" style="" class=""/><rect x="6" y="30" width="2" height="2" fill="#090d2d" data-original="#000000" style="" class=""/><rect x="43" y="11" width="2" height="2" fill="#090d2d" data-original="#000000" style="" class=""/><rect x="49" y="18" width="2" height="2" fill="#090d2d" data-original="#000000" style="" class=""/><rect x="10" y="56" width="2" height="2" fill="#090d2d" data-original="#000000" style="" class=""/></g></g></svg>
