<svg width="1080" height="800" viewBox="0 0 1080 800" fill="none" xmlns="http://www.w3.org/2000/svg">
<g clip-path="url(#clip0)">
<rect x="132" y="40" width="680" height="470" rx="11" fill="url(#paint0_linear)"/>
<rect x="186" y="85" width="150" height="144" rx="11" fill="white"/>
<rect x="206" y="170" width="110" height="12" rx="6" fill="#E1EBF4"/>
<rect x="231" y="192" width="60" height="12" rx="6" fill="#E1EBF4"/>
<rect x="186" y="85" width="150" height="144" rx="11" fill="white"/>
<rect x="206" y="170" width="110" height="12" rx="6" fill="#E1EBF4"/>
<rect x="231" y="192" width="60" height="12" rx="6" fill="#E1EBF4"/>
<path fill-rule="evenodd" clip-rule="evenodd" d="M237 134C237 147.248 247.752 158 261 158C274.248 158 285 147.248 285 134C285 120.752 274.248 110 261 110C247.752 110 237 120.752 237 134Z" fill="#F3F7FB"/>
<path fill-rule="evenodd" clip-rule="evenodd" d="M268.201 124.4C268.201 128.384 264.985 131.6 261.001 131.6C257.017 131.6 253.801 128.384 253.801 124.4C253.801 120.416 257.017 117.2 261.001 117.2C264.985 117.2 268.201 120.416 268.201 124.4Z" fill="#C0D7E9"/>
<path fill-rule="evenodd" clip-rule="evenodd" d="M246.6 143.552C246.672 138.776 256.2 136.16 261 136.16C265.776 136.16 275.328 138.776 275.4 143.552C272.304 148.208 267 151.28 261 151.28C255 151.28 249.696 148.208 246.6 143.552Z" fill="#C0D7E9"/>
<rect x="186" y="263" width="150" height="144" rx="11" fill="white"/>
<rect x="206" y="348" width="110" height="12" rx="6" fill="#E1EBF4"/>
<rect x="231" y="370" width="60" height="12" rx="6" fill="#E1EBF4"/>
<path fill-rule="evenodd" clip-rule="evenodd" d="M237 312C237 325.248 247.752 336 261 336C274.248 336 285 325.248 285 312C285 298.752 274.248 288 261 288C247.752 288 237 298.752 237 312Z" fill="#F3F7FB"/>
<path fill-rule="evenodd" clip-rule="evenodd" d="M268.201 302.4C268.201 306.384 264.985 309.6 261.001 309.6C257.017 309.6 253.801 306.384 253.801 302.4C253.801 298.416 257.017 295.2 261.001 295.2C264.985 295.2 268.201 298.416 268.201 302.4Z" fill="#C0D7E9"/>
<path fill-rule="evenodd" clip-rule="evenodd" d="M246.6 321.552C246.672 316.776 256.2 314.16 261 314.16C265.776 314.16 275.328 316.776 275.4 321.552C272.304 326.208 267 329.28 261 329.28C255 329.28 249.696 326.208 246.6 321.552Z" fill="#C0D7E9"/>
<rect x="390" y="263" width="150" height="144" rx="11" fill="white"/>
<rect x="410" y="348" width="110" height="12" rx="6" fill="#E1EBF4"/>
<rect x="435" y="370" width="60" height="12" rx="6" fill="#E1EBF4"/>
<path fill-rule="evenodd" clip-rule="evenodd" d="M441 312C441 325.248 451.752 336 465 336C478.248 336 489 325.248 489 312C489 298.752 478.248 288 465 288C451.752 288 441 298.752 441 312Z" fill="#F3F7FB"/>
<path fill-rule="evenodd" clip-rule="evenodd" d="M472.201 302.4C472.201 306.384 468.985 309.6 465.001 309.6C461.017 309.6 457.801 306.384 457.801 302.4C457.801 298.416 461.017 295.2 465.001 295.2C468.985 295.2 472.201 298.416 472.201 302.4Z" fill="#C0D7E9"/>
<path fill-rule="evenodd" clip-rule="evenodd" d="M450.6 321.552C450.672 316.776 460.2 314.16 465 314.16C469.776 314.16 479.328 316.776 479.4 321.552C476.304 326.208 471 329.28 465 329.28C459 329.28 453.696 326.208 450.6 321.552Z" fill="#C0D7E9"/>
<rect x="594" y="263" width="150" height="144" rx="11" fill="white"/>
<rect x="614" y="348" width="110" height="12" rx="6" fill="#E1EBF4"/>
<rect x="639" y="370" width="60" height="12" rx="6" fill="#E1EBF4"/>
<path fill-rule="evenodd" clip-rule="evenodd" d="M645 312C645 325.248 655.752 336 669 336C682.248 336 693 325.248 693 312C693 298.752 682.248 288 669 288C655.752 288 645 298.752 645 312Z" fill="#F3F7FB"/>
<path fill-rule="evenodd" clip-rule="evenodd" d="M676.201 302.4C676.201 306.384 672.985 309.6 669.001 309.6C665.017 309.6 661.801 306.384 661.801 302.4C661.801 298.416 665.017 295.2 669.001 295.2C672.985 295.2 676.201 298.416 676.201 302.4Z" fill="#C0D7E9"/>
<path fill-rule="evenodd" clip-rule="evenodd" d="M654.6 321.552C654.672 316.776 664.2 314.16 669 314.16C673.776 314.16 683.328 316.776 683.4 321.552C680.304 326.208 675 329.28 669 329.28C663 329.28 657.696 326.208 654.6 321.552Z" fill="#C0D7E9"/>
<rect x="390" y="85" width="150" height="144" rx="11" fill="white"/>
<rect x="410" y="170" width="110" height="12" rx="6" fill="#E1EBF4"/>
<rect x="435" y="192" width="60" height="12" rx="6" fill="#E1EBF4"/>
<path fill-rule="evenodd" clip-rule="evenodd" d="M441 134C441 147.248 451.752 158 465 158C478.248 158 489 147.248 489 134C489 120.752 478.248 110 465 110C451.752 110 441 120.752 441 134Z" fill="#F3F7FB"/>
<path fill-rule="evenodd" clip-rule="evenodd" d="M472.201 124.4C472.201 128.384 468.985 131.6 465.001 131.6C461.017 131.6 457.801 128.384 457.801 124.4C457.801 120.416 461.017 117.2 465.001 117.2C468.985 117.2 472.201 120.416 472.201 124.4Z" fill="#C0D7E9"/>
<path fill-rule="evenodd" clip-rule="evenodd" d="M450.6 143.552C450.672 138.776 460.2 136.16 465 136.16C469.776 136.16 479.328 138.776 479.4 143.552C476.304 148.208 471 151.28 465 151.28C459 151.28 453.696 148.208 450.6 143.552Z" fill="#C0D7E9"/>
<rect x="594" y="85" width="150" height="144" rx="11" fill="white"/>
<rect x="614" y="170" width="110" height="12" rx="6" fill="#E1EBF4"/>
<rect x="639" y="192" width="60" height="12" rx="6" fill="#E1EBF4"/>
<path fill-rule="evenodd" clip-rule="evenodd" d="M645 134C645 147.248 655.752 158 669 158C682.248 158 693 147.248 693 134C693 120.752 682.248 110 669 110C655.752 110 645 120.752 645 134Z" fill="#F3F7FB"/>
<path fill-rule="evenodd" clip-rule="evenodd" d="M676.201 124.4C676.201 128.384 672.985 131.6 669.001 131.6C665.017 131.6 661.801 128.384 661.801 124.4C661.801 120.416 665.017 117.2 669.001 117.2C672.985 117.2 676.201 120.416 676.201 124.4Z" fill="#C0D7E9"/>
<path fill-rule="evenodd" clip-rule="evenodd" d="M654.6 143.552C654.672 138.776 664.2 136.16 669 136.16C673.776 136.16 683.328 138.776 683.4 143.552C680.304 148.208 675 151.28 669 151.28C663 151.28 657.696 148.208 654.6 143.552Z" fill="#C0D7E9"/>
<path d="M55.9071 788.99C55.9071 788.99 92.5092 718.421 123.246 714.827C123.936 714.747 124.61 714.684 125.269 714.64C156.847 712.519 151.664 751.554 204.273 745.402C217.105 743.902 253.348 720.545 279.595 713.958C305.842 707.371 315.815 666.954 349.579 651.49C359.299 647.039 399.403 633.73 428.385 647.036C462.454 662.678 481.225 699.554 513.226 718.753C527.295 727.193 563.049 737.468 591.075 719.126C619.1 700.784 634.873 640.513 654.539 596.015C669.774 561.541 680.301 532.45 724.929 528.881C750.354 526.849 779.248 567.931 810.498 601.389C834.101 626.661 859.049 647.584 884.861 642.291C887.47 641.756 889.862 640.564 892.081 638.824C915.178 620.711 928.334 532.999 957.779 529.556C987.225 526.114 1000.78 546.304 1037.32 542.031C1082.56 536.741 1066.7 447.161 1103.58 440.962" stroke="url(#paint1_radial)" stroke-width="7" stroke-linecap="round"/>
<path d="M43.0805 670.679C43.0805 670.679 76.4597 565.25 110.155 540.573C131.705 524.79 138.568 544.286 188.931 497.292C239.294 450.298 228.244 403.769 262.089 399.812C295.934 395.854 340.895 401.81 352.17 422.409C370.798 456.438 406.094 478.283 442.172 474.064C478.249 469.846 516.931 483.228 527.149 482.033C558.556 478.361 590.255 438.243 600.142 397.095C609.347 358.792 624.331 321.099 649.323 318.177C662.069 316.687 668.566 320.943 677.356 327.368C704.32 347.076 718.434 395.158 765.684 382.481C812.934 369.804 814.05 307.065 840.339 283.265C849.153 275.285 861.069 269.495 871.54 268.27C897.395 265.247 898.804 289.006 922.227 284.239C944.116 279.785 991.117 241.199 995.237 179.669C997.881 140.184 1020.29 105.131 1071.54 99.1392C1112.36 94.3661 1145.45 48.674 1154.38 91.8778" stroke="url(#paint2_radial)" stroke-width="7" stroke-linecap="round"/>
<path d="M49.9836 738.335C49.9836 738.335 77.5021 638.357 114.686 634.009C144.967 630.469 157.55 665.508 196.272 660.98C227.646 657.312 262.454 626.258 270.977 593.425C282.939 547.339 300.126 476.897 333.798 472.96C370.509 468.667 354.758 496.006 414.162 489.06C457.672 483.973 434.378 578.469 504.199 570.305C517.865 568.707 566.08 535.613 576.58 520.51C602.166 483.711 621.669 445.79 641.939 393.781C657.058 354.987 673.02 325.276 712.262 320.687C751.504 316.099 777.795 366.753 801.264 408.313C825.545 451.312 869.212 486.294 890.322 480.208C931.033 468.471 920.364 409.806 958.815 405.31C989.594 401.711 1029 355 1029 315" stroke="url(#paint3_radial)" stroke-width="7" stroke-linecap="round"/>
<path d="M49.9836 738.335C49.9836 738.335 77.5021 638.357 114.686 634.009C144.967 630.469 157.55 665.508 196.272 660.98C227.646 657.312 262.454 626.258 270.977 593.425C282.939 547.339 300.126 476.897 333.798 472.96C370.509 468.667 354.758 496.006 414.162 489.06C457.672 483.973 434.378 578.469 504.199 570.305C517.865 568.707 566.08 535.613 576.58 520.51C602.166 483.711 621.669 445.79 641.939 393.781C657.058 354.987 673.02 325.276 712.262 320.687C751.504 316.099 777.795 366.753 801.264 408.313C825.545 451.312 869.212 486.294 890.322 480.208C931.033 468.471 920.364 409.806 958.815 405.31C989.594 401.711 1029 355 1029 315" stroke="url(#paint4_radial)" stroke-width="7" stroke-linecap="round"/>
</g>
<defs>
<linearGradient id="paint0_linear" x1="150" y1="58" x2="486.5" y2="596" gradientUnits="userSpaceOnUse">
<stop offset="0.161458" stop-color="#F3F7FB"/>
<stop offset="1" stop-color="#F3F7FB" stop-opacity="0"/>
</linearGradient>
<radialGradient id="paint1_radial" cx="0" cy="0" r="1" gradientUnits="userSpaceOnUse" gradientTransform="translate(623.445 609.866) rotate(160.85) scale(565.657 2729.8)">
<stop offset="0.385417" stop-color="#0071E3"/>
<stop offset="0.848958" stop-color="#0071E3" stop-opacity="0"/>
</radialGradient>
<radialGradient id="paint2_radial" cx="0" cy="0" r="1" gradientUnits="userSpaceOnUse" gradientTransform="translate(535.842 364.379) rotate(147.142) scale(593.817 1492.19)">
<stop offset="0.229167" stop-color="#0071E3"/>
<stop offset="0.952189" stop-color="#0071E3" stop-opacity="0"/>
</radialGradient>
<radialGradient id="paint3_radial" cx="0" cy="0" r="1" gradientUnits="userSpaceOnUse" gradientTransform="translate(580.641 540.87) rotate(159.58) scale(559.537 1782.41)">
<stop offset="0.0416667" stop-color="#1D1D1F"/>
<stop offset="0.911458" stop-color="#1D1D1F" stop-opacity="0"/>
</radialGradient>
<radialGradient id="paint4_radial" cx="0" cy="0" r="1" gradientUnits="userSpaceOnUse" gradientTransform="translate(320.043 567.027) rotate(146.619) scale(399.177 1271.58)">
<stop offset="0.203125" stop-color="#1D1D1F"/>
<stop offset="0.807317" stop-color="#1D1D1F" stop-opacity="0"/>
</radialGradient>
<clipPath id="clip0">
<rect width="1080" height="800" fill="white"/>
</clipPath>
</defs>
</svg>
