<?xml version="1.0"?>
<svg xmlns="http://www.w3.org/2000/svg" viewBox="0 0 64 64" width="512" height="512"><g id="brain"><path d="M37,29H33V23a1,1,0,0,0-1.91-.414l-5,11A1,1,0,0,0,27,35h4v6a1,1,0,0,0,.788.978A1.025,1.025,0,0,0,32,42a1,1,0,0,0,.91-.586l5-11A1,1,0,0,0,37,29Zm-4,7.383V34a1,1,0,0,0-1-1H28.553L31,27.617V30a1,1,0,0,0,1,1h3.447Z"/><rect x="31" y="18" width="2" height="2"/><path d="M15,26V24a3,3,0,0,1,0-6V16a5,5,0,0,0,0,10Z"/><path d="M62,32a8.207,8.207,0,0,0-4.59-7.555A8.777,8.777,0,0,0,58,21a8.992,8.992,0,0,0-4-7.471V6h2.184a3,3,0,1,0,0-2H53a1,1,0,0,0-1,1v7.524a8.924,8.924,0,0,0-2.091-.479A5.008,5.008,0,0,0,45,8H43A6,6,0,0,0,32,4.69,6,6,0,0,0,21,8H19a5.008,5.008,0,0,0-4.909,4.045A8.924,8.924,0,0,0,12,12.524V5a1,1,0,0,0-1-1H7.816a3,3,0,1,0,0,2H10v7.529A8.992,8.992,0,0,0,6,21a8.785,8.785,0,0,0,.59,3.446A8.213,8.213,0,0,0,2,32a8.213,8.213,0,0,0,4.59,7.554A8.785,8.785,0,0,0,6,43a8.992,8.992,0,0,0,4,7.471V58H7.816a3,3,0,1,0,0,2H11a1,1,0,0,0,1-1V51.476a8.924,8.924,0,0,0,2.091.479A5.008,5.008,0,0,0,19,56h2a6,6,0,0,0,11,3.31A6,6,0,0,0,43,56h2a5.008,5.008,0,0,0,4.909-4.045A8.924,8.924,0,0,0,52,51.476V59a1,1,0,0,0,1,1h3.184a3,3,0,1,0,0-2H54V50.471A8.992,8.992,0,0,0,58,43a8.777,8.777,0,0,0-.59-3.445A8.209,8.209,0,0,0,62,32ZM59,4a1,1,0,1,1-1,1A1,1,0,0,1,59,4ZM5,6A1,1,0,1,1,6,5,1,1,0,0,1,5,6ZM5,60a1,1,0,1,1,1-1A1,1,0,0,1,5,60Zm54-2a1,1,0,1,1-1,1A1,1,0,0,1,59,58ZM27,60a4,4,0,0,1-4-4v-.1A5.009,5.009,0,0,0,27,51H25a3,3,0,0,1-3,3H19a2.993,2.993,0,0,1-2.86-2.143A5,5,0,0,0,20,47H18a3,3,0,0,1-3,3,7.008,7.008,0,0,1-7-7,5.981,5.981,0,0,1,.848-3.469,1,1,0,0,0-.593-1.5A6.068,6.068,0,0,1,4,32a6.068,6.068,0,0,1,4.255-6.033,1,1,0,0,0,.593-1.5A5.981,5.981,0,0,1,8,21a7.008,7.008,0,0,1,7-7,3,3,0,0,1,3,3h2a5,5,0,0,0-3.86-4.857A2.993,2.993,0,0,1,19,10h3a3,3,0,0,1,3,3h2a5.009,5.009,0,0,0-4-4.9V8a4,4,0,0,1,8,0v6H29a1,1,0,0,0-.986.835l-.66,3.96a14.1,14.1,0,0,0-1.407.581l-3.265-2.332a1,1,0,0,0-1.288.107l-4.243,4.243a1,1,0,0,0-.107,1.288l2.343,3.28a13.254,13.254,0,0,0-.573,1.389l-3.979.663A1,1,0,0,0,14,29v6a1,1,0,0,0,.835.986l3.978.663a14.849,14.849,0,0,0,.563,1.405l-2.332,3.264a1,1,0,0,0,.107,1.288l4.243,4.243a1,1,0,0,0,1.288.107l3.265-2.332a14.1,14.1,0,0,0,1.407.581l.66,3.96A1,1,0,0,0,29,50h2v6A4,4,0,0,1,27,60ZM42.577,26.332a11.966,11.966,0,0,1,.908,2.2,1,1,0,0,0,.793.7l3.722.62v4.306l-3.722.62a1,1,0,0,0-.793.7,11.966,11.966,0,0,1-.908,2.2,1,1,0,0,0,.067,1.054l2.192,3.07-3.044,3.044-3.07-2.192a1,1,0,0,0-1.054-.067,11.966,11.966,0,0,1-2.2.908,1,1,0,0,0-.7.793L34.153,48H29.847l-.62-3.722a1,1,0,0,0-.7-.793,11.966,11.966,0,0,1-2.2-.908,1,1,0,0,0-1.054.067l-3.07,2.192-3.044-3.044,2.192-3.07a1,1,0,0,0,.067-1.054,13.512,13.512,0,0,1-.924-2.245,1,1,0,0,0-.777-.65L16,34.153V29.847l3.722-.62a1,1,0,0,0,.777-.65,16.4,16.4,0,0,1,.947-2.289,1,1,0,0,0-.09-1.01l-2.192-3.07,3.044-3.044,3.07,2.192a1,1,0,0,0,1.054.067,11.966,11.966,0,0,1,2.2-.908,1,1,0,0,0,.7-.793L29.847,16h4.306l.62,3.722a1,1,0,0,0,.7.793,11.966,11.966,0,0,1,2.2.908,1,1,0,0,0,1.054-.067l3.07-2.192,3.044,3.044-2.192,3.07A1,1,0,0,0,42.577,26.332Zm13.17,11.7a1,1,0,0,0-.595,1.5A5.976,5.976,0,0,1,56,43a7.008,7.008,0,0,1-7,7,3,3,0,0,1-3-3H44a5,5,0,0,0,3.86,4.857A2.993,2.993,0,0,1,45,54H42a3,3,0,0,1-3-3H37a5.009,5.009,0,0,0,4,4.9V56a4,4,0,0,1-8,0V50h2a1,1,0,0,0,.986-.835l.66-3.96a14.1,14.1,0,0,0,1.407-.581l3.265,2.332a1,1,0,0,0,1.288-.107l4.243-4.243a1,1,0,0,0,.107-1.288l-2.332-3.265a14.1,14.1,0,0,0,.581-1.407l3.96-.66A1,1,0,0,0,50,35V29a1,1,0,0,0-.835-.986l-3.96-.66a14.1,14.1,0,0,0-.581-1.407l2.332-3.265a1,1,0,0,0-.107-1.288l-4.243-4.243a1,1,0,0,0-1.288-.107l-3.265,2.332a14.1,14.1,0,0,0-1.407-.581l-.66-3.96A1,1,0,0,0,35,14H33V8a4,4,0,0,1,8,0v.1A5.009,5.009,0,0,0,37,13h2a3,3,0,0,1,3-3h3a2.993,2.993,0,0,1,2.86,2.143A5,5,0,0,0,44,17h2a3,3,0,0,1,3-3,7.008,7.008,0,0,1,7,7,5.984,5.984,0,0,1-.847,3.469,1,1,0,0,0,.594,1.5A6.063,6.063,0,0,1,60,32,6.063,6.063,0,0,1,55.747,38.033Z"/><path d="M49,16v2a3,3,0,0,1,0,6v2a5,5,0,0,0,0-10Z"/><path d="M10,43a5.006,5.006,0,0,0,5,5V46a3,3,0,0,1,0-6V38A5.006,5.006,0,0,0,10,43Z"/><path d="M49,38v2a3,3,0,0,1,0,6v2a5,5,0,0,0,0-10Z"/><rect x="21.808" y="21.808" width="2" height="2" transform="translate(-9.447 22.808) rotate(-45)"/><rect x="18" y="31" width="2" height="2"/><rect x="21.808" y="40.192" width="2" height="2" transform="translate(-22.447 28.192) rotate(-45)"/><rect x="31" y="44" width="2" height="2"/><rect x="40.192" y="40.192" width="2" height="2" transform="translate(-17.062 41.192) rotate(-45)"/><rect x="44" y="31" width="2" height="2"/><rect x="40.192" y="21.808" width="2" height="2" transform="translate(-4.062 35.808) rotate(-45)"/></g></svg>
