<svg xmlns="http://www.w3.org/2000/svg" viewBox="0 0 188.2 40"><title>freshsales_l</title><g id="Layer_2" data-name="Layer 2"><g id="Layer_1-2" data-name="Layer 1"><g id="freshsales_l"><path d="M48.62,1c-5,0-6.79,3.49-6.79,6.76v2h-1a1.38,1.38,0,1,0,0,2.75h1V26.3a1.45,1.45,0,1,0,2.9,0V12.52h3.21a1.35,1.35,0,0,0,1.37-1.34v0A1.35,1.35,0,0,0,48,9.78H44.73v-2c0-1.83.67-4,3.89-4A1.35,1.35,0,0,0,50,2.4,1.36,1.36,0,0,0,48.62,1M60,9.32a6,6,0,0,0-5,2.36v-.76a1.45,1.45,0,0,0-2.9,0V26.3a1.45,1.45,0,0,0,2.9,0V17.82c0-3.56,1.88-5.68,5-5.68a1.41,1.41,0,0,0,0-2.82m10.3,2.6c3,0,4.54,1.69,4.61,5H65.17c.3-3.24,2.1-5,5.08-5m7.48,5a8.77,8.77,0,0,0-1.39-4.79,6.91,6.91,0,0,0-6.09-2.83c-5.11,0-8,3.4-8,9.33,0,6.12,2.91,9.36,8.42,9.36a8.63,8.63,0,0,0,6.08-2.19,1.34,1.34,0,0,0-.85-2.37,1.28,1.28,0,0,0-.82.27,6.73,6.73,0,0,1-4.41,1.58c-3.31,0-5.39-2.17-5.48-5.7H76c1.76,0,1.76-1.6,1.76-2.66m9.8.24c-2.17-.75-4-1.39-4-3s2-2,3.13-2a5.14,5.14,0,0,1,4,1.52,1.34,1.34,0,0,0,2.3-.93,1.44,1.44,0,0,0-.31-.86,7.2,7.2,0,0,0-5.95-2.52c-3.72,0-6,1.85-6,4.82,0,3.64,3.19,4.72,6,5.67,2.13.72,4,1.34,4,2.9,0,2.13-2.37,2.45-3.78,2.45a6.23,6.23,0,0,1-4.64-1.79,1.4,1.4,0,0,0-1-.45,1.34,1.34,0,0,0-1,2.21,8.72,8.72,0,0,0,6.66,2.81c4.18,0,6.68-2,6.68-5.23,0-3.52-3.15-4.61-5.92-5.56m17.24-7.87a6.08,6.08,0,0,0-4.8,2.08V1.45a1.45,1.45,0,0,0-2.9,0V26.3a1.45,1.45,0,0,0,2.9,0V17c0-3.37,1.61-5.07,4.8-5.07s4.31,1.39,4.31,4.8V26.3a1.45,1.45,0,1,0,2.89,0V16.19c0-4.61-2.42-6.94-7.2-6.94" style="fill:#4d4d4d"/><path d="M122.57,17.11c-2.17-.75-4-1.39-4-3s2-2,3.14-2a5.14,5.14,0,0,1,4,1.52,1.33,1.33,0,0,0,1.89,0,1.36,1.36,0,0,0,.41-1,1.38,1.38,0,0,0-.32-.86,7.18,7.18,0,0,0-5.94-2.52c-3.73,0-6,1.85-6,4.82,0,3.64,3.19,4.72,6,5.67,2.12.72,4,1.34,4,2.9,0,2.13-2.37,2.45-3.78,2.45a6.24,6.24,0,0,1-4.65-1.79,1.4,1.4,0,0,0-1-.45,1.33,1.33,0,0,0-1.33,1.34,1.39,1.39,0,0,0,.31.87,8.76,8.76,0,0,0,6.67,2.81c4.18,0,6.67-2,6.67-5.23,0-3.52-3.14-4.61-5.92-5.56M138,25.27c-1.87,0-4.09-.52-4.09-3s2.47-3,3.93-3h5.11v1.36c0,3.17-2.57,4.61-4.95,4.61m.72-16c-3.93,0-5.76,1.95-6.5,3.11a1.44,1.44,0,0,0-.22.77,1.34,1.34,0,0,0,1.33,1.33,1.5,1.5,0,0,0,1.17-.6h0A5,5,0,0,1,138.68,12c2.65,0,4.23,1.47,4.23,3.93v.79H137.8c-4.23,0-6.86,2.14-6.86,5.58s2.54,5.65,6.79,5.65a6.57,6.57,0,0,0,5.18-2.17v.57a1.41,1.41,0,1,0,2.82,0V15.92c0-4.12-2.7-6.68-7-6.68M154,25c-.63,0-1.28-.23-1.28-1.93V1.45A1.45,1.45,0,0,0,151.26,0a1.48,1.48,0,0,0-1.45,1.45V23.08c0,3,1.48,4.67,4.17,4.67A1.37,1.37,0,1,0,154,25m11-13.09c3,0,4.54,1.69,4.61,5h-9.7c.3-3.24,2.1-5,5.09-5m7.47,5a8.77,8.77,0,0,0-1.39-4.79A6.89,6.89,0,0,0,165,9.25c-5.11,0-8,3.4-8,9.33,0,6.12,2.91,9.36,8.42,9.36a8.57,8.57,0,0,0,6.07-2.19,1.34,1.34,0,0,0-.85-2.37,1.27,1.27,0,0,0-.82.27,6.73,6.73,0,0,1-4.41,1.58c-3.3,0-5.39-2.17-5.48-5.7h10.83c1.75,0,1.75-1.6,1.75-2.66m9.8.24c-2.17-.75-4-1.39-4-3s2-2,3.13-2a5.14,5.14,0,0,1,4,1.52,1.33,1.33,0,0,0,1.89,0,1.31,1.31,0,0,0,.4-1,1.38,1.38,0,0,0-.31-.86,7.2,7.2,0,0,0-5.95-2.52c-3.72,0-6,1.85-6,4.82,0,3.64,3.19,4.72,6,5.67,2.13.72,4,1.34,4,2.9,0,2.13-2.36,2.45-3.78,2.45a6.23,6.23,0,0,1-4.64-1.79,1.4,1.4,0,0,0-1-.45,1.34,1.34,0,0,0-1.34,1.34,1.4,1.4,0,0,0,.32.87,8.74,8.74,0,0,0,6.66,2.81c4.19,0,6.68-2,6.68-5.23,0-3.52-3.14-4.61-5.92-5.56" style="fill:#4d4d4d"/><path d="M29.84,5.9H17.05A17.05,17.05,0,1,0,34.1,23V10.16A4.26,4.26,0,0,0,29.84,5.9ZM17.21,14.43a3.36,3.36,0,1,1-3.36,3.35A3.35,3.35,0,0,1,17.21,14.43Zm1.3,13.75v3.29H15.58V28.18L9.72,22.32H24.37Z" style="fill:#ffa800"/></g></g></g></svg>