<svg xmlns="http://www.w3.org/2000/svg" version="1.1" xmlns:xlink="http://www.w3.org/1999/xlink" xmlns:svgjs="http://svgjs.com/svgjs" width="2600" height="900" preserveAspectRatio="none" viewBox="0 0 2600 900" style=""><g mask="url(&quot;#SvgjsMask2011&quot;)" fill="none"><path width="2600" height="900" fill="rgba(255, 122, 89, 1)" d="M0 0 L2600 0 L2600 900 L0 900 Z" class="jcYqhMjX_0"></path><g><path d="M1246 490L1274 518M1302 518L1330 490L1358 462M770 462L798 490M1330 518L1358 546L1386 546L1414 546L1442 546L1470 546L1498 546M1414 518L1442 490L1470 490L1498 490L1526 490M686 462L714 434L742 434L770 434L798 434L826 434L854 434L882 434L910 434L938 434L966 434L994 434M1358 518L1386 490L1414 490L1442 462L1470 434L1498 434L1526 434L1554 462L1582 462L1610 462L1638 462M1162 462L1190 462L1218 462L1246 462M714 462L742 490L770 490M1190 490L1218 518L1246 518L1274 546L1302 546L1330 546M826 490L854 490L882 490L910 462L938 462L966 462L994 462M1134 462L1162 490L1190 518L1218 546L1246 546L1274 574L1302 574L1330 602L1358 602L1386 602L1414 602L1442 602L1470 602L1498 602L1526 602L1554 602L1582 602L1610 602L1638 602M1050 462L1078 434L1106 434M1526 518L1554 546L1582 574L1610 574L1638 574M-14 462L14 462L42 462L70 462L98 462L126 462L154 462L182 462L210 462L238 462L266 462L294 462L322 462L350 462L378 462L406 462L434 462L462 462L490 462L518 462L546 462L574 462L602 462L630 462L658 462L686 462L714 462L742 462L770 462L798 462L826 490L854 518L882 518L910 490L938 490L966 490L994 490L1022 462L1050 462L1078 462L1106 462L1134 462L1162 462L1190 490L1218 490L1246 490L1274 490L1302 518L1330 518L1358 518L1386 518L1414 518L1442 518L1470 518L1498 518L1526 518L1554 518L1582 546" stroke="rgba(255, 153, 128, 1)" stroke-width="4.67" class="jcYqhMjX_1"></path><path d="M1577.33 546 a4.67 4.67 0 1 0 9.34 0 a4.67 4.67 0 1 0 -9.34 0zM1269.33 518 a4.67 4.67 0 1 0 9.34 0 a4.67 4.67 0 1 0 -9.34 0zM1353.33 462 a4.67 4.67 0 1 0 9.34 0 a4.67 4.67 0 1 0 -9.34 0zM793.33 490 a4.67 4.67 0 1 0 9.34 0 a4.67 4.67 0 1 0 -9.34 0zM1493.33 546 a4.67 4.67 0 1 0 9.34 0 a4.67 4.67 0 1 0 -9.34 0zM1521.33 490 a4.67 4.67 0 1 0 9.34 0 a4.67 4.67 0 1 0 -9.34 0zM989.33 434 a4.67 4.67 0 1 0 9.34 0 a4.67 4.67 0 1 0 -9.34 0zM1633.33 462 a4.67 4.67 0 1 0 9.34 0 a4.67 4.67 0 1 0 -9.34 0zM1241.33 462 a4.67 4.67 0 1 0 9.34 0 a4.67 4.67 0 1 0 -9.34 0zM765.33 490 a4.67 4.67 0 1 0 9.34 0 a4.67 4.67 0 1 0 -9.34 0zM1325.33 546 a4.67 4.67 0 1 0 9.34 0 a4.67 4.67 0 1 0 -9.34 0zM989.33 462 a4.67 4.67 0 1 0 9.34 0 a4.67 4.67 0 1 0 -9.34 0zM1633.33 602 a4.67 4.67 0 1 0 9.34 0 a4.67 4.67 0 1 0 -9.34 0zM1101.33 434 a4.67 4.67 0 1 0 9.34 0 a4.67 4.67 0 1 0 -9.34 0zM1633.33 574 a4.67 4.67 0 1 0 9.34 0 a4.67 4.67 0 1 0 -9.34 0z" fill="rgba(255, 153, 128, 1)" class="jcYqhMjX_2"></path><path d="M546 406L574 434L602 434L630 434L658 434L686 434M882 378L910 406M518 406L546 434M938 378L966 406M490 434L518 434M1162 406L1190 434L1218 434L1246 434M1022 378L1050 406L1078 406M154 406L182 434L210 434M770 406L798 406L826 406M350 434L378 406L406 406L434 406L462 406L490 406M1134 406L1162 434M-14 434L14 434L42 434L70 434L98 434L126 406L154 406L182 406L210 406L238 406L266 434L294 434L322 434L350 434L378 434L406 434L434 434L462 434L490 434L518 406L546 406L574 406L602 406L630 406L658 406L686 406L714 406L742 406L770 406L798 378L826 378L854 378L882 378L910 378L938 378L966 378L994 378L1022 378L1050 378L1078 378L1106 406L1134 406L1162 406L1190 406" stroke="rgba(255, 153, 128, 1)" stroke-width="4.67" class="jcYqhMjX_3"></path><path d="M1185.33 406 a4.67 4.67 0 1 0 9.34 0 a4.67 4.67 0 1 0 -9.34 0zM681.33 434 a4.67 4.67 0 1 0 9.34 0 a4.67 4.67 0 1 0 -9.34 0zM905.33 406 a4.67 4.67 0 1 0 9.34 0 a4.67 4.67 0 1 0 -9.34 0zM541.33 434 a4.67 4.67 0 1 0 9.34 0 a4.67 4.67 0 1 0 -9.34 0zM961.33 406 a4.67 4.67 0 1 0 9.34 0 a4.67 4.67 0 1 0 -9.34 0zM513.33 434 a4.67 4.67 0 1 0 9.34 0 a4.67 4.67 0 1 0 -9.34 0zM1241.33 434 a4.67 4.67 0 1 0 9.34 0 a4.67 4.67 0 1 0 -9.34 0zM1073.33 406 a4.67 4.67 0 1 0 9.34 0 a4.67 4.67 0 1 0 -9.34 0zM205.33 434 a4.67 4.67 0 1 0 9.34 0 a4.67 4.67 0 1 0 -9.34 0zM821.33 406 a4.67 4.67 0 1 0 9.34 0 a4.67 4.67 0 1 0 -9.34 0zM485.33 406 a4.67 4.67 0 1 0 9.34 0 a4.67 4.67 0 1 0 -9.34 0zM1157.33 434 a4.67 4.67 0 1 0 9.34 0 a4.67 4.67 0 1 0 -9.34 0z" fill="rgba(255, 153, 128, 1)" class="jcYqhMjX_4"></path><path d="M266 490L294 518L322 518L350 518M406 490L434 518L462 518L490 518L518 518L546 546M770 518L798 546M574 490L602 490L630 490M210 490L238 518L266 518M714 518L742 546L770 546L798 574L826 574M154 490L182 518L210 518L238 546L266 546L294 546L322 546M126 490L154 518L182 546L210 546M-14 490L14 490L42 490L70 490L98 490L126 490L154 490L182 490L210 490L238 490L266 490L294 490L322 490L350 490L378 490L406 490L434 490L462 490L490 490L518 490L546 490L574 490L602 518L630 518L658 518L686 518L714 518L742 518L770 518L798 518L826 518L854 546L882 546" stroke="rgba(255, 153, 128, 1)" stroke-width="4.67" class="jcYqhMjX_5"></path><path d="M877.33 546 a4.67 4.67 0 1 0 9.34 0 a4.67 4.67 0 1 0 -9.34 0zM345.33 518 a4.67 4.67 0 1 0 9.34 0 a4.67 4.67 0 1 0 -9.34 0zM541.33 546 a4.67 4.67 0 1 0 9.34 0 a4.67 4.67 0 1 0 -9.34 0zM793.33 546 a4.67 4.67 0 1 0 9.34 0 a4.67 4.67 0 1 0 -9.34 0zM625.33 490 a4.67 4.67 0 1 0 9.34 0 a4.67 4.67 0 1 0 -9.34 0zM261.33 518 a4.67 4.67 0 1 0 9.34 0 a4.67 4.67 0 1 0 -9.34 0zM821.33 574 a4.67 4.67 0 1 0 9.34 0 a4.67 4.67 0 1 0 -9.34 0zM317.33 546 a4.67 4.67 0 1 0 9.34 0 a4.67 4.67 0 1 0 -9.34 0zM205.33 546 a4.67 4.67 0 1 0 9.34 0 a4.67 4.67 0 1 0 -9.34 0z" fill="rgba(255, 153, 128, 1)" class="jcYqhMjX_6"></path><path d="M826 350L854 322L882 322L910 322L938 294M462 378L490 350L518 350L546 350M1134 350L1162 350L1190 350L1218 350L1246 350L1274 350M1078 350L1106 322L1134 322L1162 322L1190 322M742 378L770 350L798 322L826 322L854 294L882 294L910 294L938 266L966 266L994 266L1022 266L1050 266L1078 266L1106 266L1134 294L1162 294L1190 294L1218 294M994 350L1022 322L1050 322L1078 322M406 378L434 350L462 350M1106 350L1134 378M966 350L994 322L1022 294M1414 406L1442 434M1582 406L1610 406L1638 406M1218 378L1246 406L1274 406L1302 406L1330 434M1302 378L1330 378L1358 378L1386 378M1526 406L1554 378L1582 378L1610 350L1638 350M266 378L294 378L322 378M-14 406L14 406L42 406L70 406L98 406L126 378L154 378L182 378L210 378L238 378L266 378L294 406L322 406L350 378L378 378L406 378L434 378L462 378L490 378L518 378L546 378L574 378L602 378L630 378L658 378L686 378L714 378L742 378L770 378L798 350L826 350L854 350L882 350L910 350L938 350L966 350L994 350L1022 350L1050 350L1078 350L1106 350L1134 350L1162 378L1190 378L1218 378L1246 378L1274 378L1302 378L1330 406L1358 406L1386 406L1414 406L1442 406L1470 406L1498 406L1526 406L1554 406L1582 406L1610 378L1638 378" stroke="rgba(255, 153, 128, 1)" stroke-width="4.67" class="jcYqhMjX_7"></path><path d="M1633.33 378 a4.67 4.67 0 1 0 9.34 0 a4.67 4.67 0 1 0 -9.34 0zM933.33 294 a4.67 4.67 0 1 0 9.34 0 a4.67 4.67 0 1 0 -9.34 0zM541.33 350 a4.67 4.67 0 1 0 9.34 0 a4.67 4.67 0 1 0 -9.34 0zM1269.33 350 a4.67 4.67 0 1 0 9.34 0 a4.67 4.67 0 1 0 -9.34 0zM1185.33 322 a4.67 4.67 0 1 0 9.34 0 a4.67 4.67 0 1 0 -9.34 0zM1213.33 294 a4.67 4.67 0 1 0 9.34 0 a4.67 4.67 0 1 0 -9.34 0zM1073.33 322 a4.67 4.67 0 1 0 9.34 0 a4.67 4.67 0 1 0 -9.34 0zM457.33 350 a4.67 4.67 0 1 0 9.34 0 a4.67 4.67 0 1 0 -9.34 0zM1129.33 378 a4.67 4.67 0 1 0 9.34 0 a4.67 4.67 0 1 0 -9.34 0zM1017.33 294 a4.67 4.67 0 1 0 9.34 0 a4.67 4.67 0 1 0 -9.34 0zM1437.33 434 a4.67 4.67 0 1 0 9.34 0 a4.67 4.67 0 1 0 -9.34 0zM1633.33 406 a4.67 4.67 0 1 0 9.34 0 a4.67 4.67 0 1 0 -9.34 0zM1325.33 434 a4.67 4.67 0 1 0 9.34 0 a4.67 4.67 0 1 0 -9.34 0zM1381.33 378 a4.67 4.67 0 1 0 9.34 0 a4.67 4.67 0 1 0 -9.34 0zM1633.33 350 a4.67 4.67 0 1 0 9.34 0 a4.67 4.67 0 1 0 -9.34 0zM317.33 378 a4.67 4.67 0 1 0 9.34 0 a4.67 4.67 0 1 0 -9.34 0z" fill="rgba(255, 153, 128, 1)" class="jcYqhMjX_8"></path><path d="M-14 378L14 378L42 378L70 378L98 378L126 350L154 350L182 350L210 350L238 350L266 350L294 350L322 350L350 350L378 350" stroke="rgba(255, 153, 128, 1)" stroke-width="4.67" class="jcYqhMjX_9"></path><path d="M373.33 350 a4.67 4.67 0 1 0 9.34 0 a4.67 4.67 0 1 0 -9.34 0z" fill="rgba(255, 153, 128, 1)" class="jcYqhMjX_10"></path><path d="M1246 658L1274 630L1302 630M658 686L686 658L714 658L742 658L770 658L798 658M1218 658L1246 686L1274 686L1302 686L1330 686L1358 686L1386 686M238 574L266 602L294 602M182 574L210 602L238 602M1134 658L1162 630L1190 630M966 630L994 658L1022 658L1050 658L1078 658L1106 658L1134 686L1162 686L1190 686L1218 686L1246 714L1274 714L1302 714L1330 714L1358 714L1386 714L1414 686L1442 686L1470 686L1498 686L1526 686L1554 686M350 602L378 630M126 574L154 546M854 686L882 658L910 658L938 630L966 602L994 602L1022 602L1050 602L1078 602L1106 602M14 546L42 518L70 518L98 518L126 518M-14 546L14 546L42 546L70 546L98 546L126 574L154 574L182 574L210 574L238 574L266 574L294 574L322 602L350 602L378 602L406 602L434 602L462 602L490 602L518 602L546 602L574 630L602 658L630 686L658 686L686 686L714 686L742 686L770 686L798 686L826 686L854 686L882 686L910 686L938 658L966 630L994 630L1022 630L1050 630L1078 630L1106 630L1134 658L1162 658L1190 658L1218 658L1246 658L1274 658" stroke="rgba(255, 153, 128, 1)" stroke-width="4.67" class="jcYqhMjX_11"></path><path d="M1269.33 658 a4.67 4.67 0 1 0 9.34 0 a4.67 4.67 0 1 0 -9.34 0zM1297.33 630 a4.67 4.67 0 1 0 9.34 0 a4.67 4.67 0 1 0 -9.34 0zM793.33 658 a4.67 4.67 0 1 0 9.34 0 a4.67 4.67 0 1 0 -9.34 0zM1381.33 686 a4.67 4.67 0 1 0 9.34 0 a4.67 4.67 0 1 0 -9.34 0zM289.33 602 a4.67 4.67 0 1 0 9.34 0 a4.67 4.67 0 1 0 -9.34 0zM233.33 602 a4.67 4.67 0 1 0 9.34 0 a4.67 4.67 0 1 0 -9.34 0zM1185.33 630 a4.67 4.67 0 1 0 9.34 0 a4.67 4.67 0 1 0 -9.34 0zM1549.33 686 a4.67 4.67 0 1 0 9.34 0 a4.67 4.67 0 1 0 -9.34 0zM373.33 630 a4.67 4.67 0 1 0 9.34 0 a4.67 4.67 0 1 0 -9.34 0zM149.33 546 a4.67 4.67 0 1 0 9.34 0 a4.67 4.67 0 1 0 -9.34 0zM1101.33 602 a4.67 4.67 0 1 0 9.34 0 a4.67 4.67 0 1 0 -9.34 0zM121.33 518 a4.67 4.67 0 1 0 9.34 0 a4.67 4.67 0 1 0 -9.34 0z" fill="rgba(255, 153, 128, 1)" class="jcYqhMjX_12"></path><path d="M602 350L630 322M462 322L490 294L518 294L546 294M378 322L406 322L434 322M434 294L462 294L490 266L518 266M406 294L434 266L462 266L490 238L518 238M658 350L686 322M-14 350L14 350L42 350L70 350L98 350L126 322L154 322L182 322L210 322L238 322L266 322L294 322L322 322L350 322L378 322L406 294L434 294L462 322L490 322L518 322L546 322L574 350L602 350L630 350L658 350L686 350" stroke="rgba(255, 153, 128, 1)" stroke-width="4.67" class="jcYqhMjX_13"></path><path d="M681.33 350 a4.67 4.67 0 1 0 9.34 0 a4.67 4.67 0 1 0 -9.34 0zM625.33 322 a4.67 4.67 0 1 0 9.34 0 a4.67 4.67 0 1 0 -9.34 0zM541.33 294 a4.67 4.67 0 1 0 9.34 0 a4.67 4.67 0 1 0 -9.34 0zM429.33 322 a4.67 4.67 0 1 0 9.34 0 a4.67 4.67 0 1 0 -9.34 0zM513.33 266 a4.67 4.67 0 1 0 9.34 0 a4.67 4.67 0 1 0 -9.34 0zM513.33 238 a4.67 4.67 0 1 0 9.34 0 a4.67 4.67 0 1 0 -9.34 0zM681.33 322 a4.67 4.67 0 1 0 9.34 0 a4.67 4.67 0 1 0 -9.34 0z" fill="rgba(255, 153, 128, 1)" class="jcYqhMjX_14"></path><path d="M938 742L966 714L994 714L1022 686M994 742L1022 770L1050 770M630 742L658 742M854 714L882 742L910 770L938 770L966 770L994 770L1022 798L1050 798L1078 798L1106 798L1134 826L1162 826M182 630L210 658L238 658L266 658L294 658L322 658M126 602L154 602M462 714L490 686L518 686L546 686L574 686L602 686L630 714M882 714L910 714M490 714L518 714L546 714L574 714L602 714M1106 742L1134 714L1162 714L1190 714L1218 714L1246 742L1274 742L1302 742L1330 742L1358 742L1386 742L1414 742L1442 742L1470 742L1498 742M-14 574L14 574L42 574L70 574L98 574L126 602L154 630L182 630L210 630L238 630L266 630L294 630L322 630L350 658L378 686L406 686L434 714L462 714L490 714L518 742L546 742L574 742L602 742L630 742L658 714L686 714L714 714L742 714L770 714L798 714L826 714L854 714L882 714L910 742L938 742L966 742L994 742L1022 742L1050 742L1078 742L1106 742L1134 742L1162 742" stroke="rgba(255, 153, 128, 1)" stroke-width="4.67" class="jcYqhMjX_15"></path><path d="M1157.33 742 a4.67 4.67 0 1 0 9.34 0 a4.67 4.67 0 1 0 -9.34 0zM1017.33 686 a4.67 4.67 0 1 0 9.34 0 a4.67 4.67 0 1 0 -9.34 0zM1045.33 770 a4.67 4.67 0 1 0 9.34 0 a4.67 4.67 0 1 0 -9.34 0zM653.33 742 a4.67 4.67 0 1 0 9.34 0 a4.67 4.67 0 1 0 -9.34 0zM1157.33 826 a4.67 4.67 0 1 0 9.34 0 a4.67 4.67 0 1 0 -9.34 0zM317.33 658 a4.67 4.67 0 1 0 9.34 0 a4.67 4.67 0 1 0 -9.34 0zM149.33 602 a4.67 4.67 0 1 0 9.34 0 a4.67 4.67 0 1 0 -9.34 0zM625.33 714 a4.67 4.67 0 1 0 9.34 0 a4.67 4.67 0 1 0 -9.34 0zM905.33 714 a4.67 4.67 0 1 0 9.34 0 a4.67 4.67 0 1 0 -9.34 0zM597.33 714 a4.67 4.67 0 1 0 9.34 0 a4.67 4.67 0 1 0 -9.34 0zM1493.33 742 a4.67 4.67 0 1 0 9.34 0 a4.67 4.67 0 1 0 -9.34 0z" fill="rgba(255, 153, 128, 1)" class="jcYqhMjX_16"></path><path d="M210 294L238 266L266 266L294 266L322 266M182 294L210 266M350 294L378 266L406 266M-14 322L14 322L42 322L70 322L98 322L126 294L154 294L182 294L210 294L238 294L266 294L294 294L322 294L350 294L378 294" stroke="rgba(255, 153, 128, 1)" stroke-width="4.67" class="jcYqhMjX_17"></path><path d="M373.33 294 a4.67 4.67 0 1 0 9.34 0 a4.67 4.67 0 1 0 -9.34 0zM317.33 266 a4.67 4.67 0 1 0 9.34 0 a4.67 4.67 0 1 0 -9.34 0zM205.33 266 a4.67 4.67 0 1 0 9.34 0 a4.67 4.67 0 1 0 -9.34 0zM401.33 266 a4.67 4.67 0 1 0 9.34 0 a4.67 4.67 0 1 0 -9.34 0z" fill="rgba(255, 153, 128, 1)" class="jcYqhMjX_18"></path><path d="M266 714L294 686M518 770L546 798L574 798M322 686L350 714L378 742L406 742M602 770L630 798L658 798L686 798L714 798L742 798L770 798M658 770L686 770L714 770L742 770L770 770M238 686L266 686M154 658L182 658M-14 602L14 602L42 602L70 602L98 602L126 630L154 658L182 686L210 686L238 686L266 714L294 714L322 686L350 686L378 714L406 714L434 742L462 742L490 742L518 770L546 770L574 770L602 770L630 770L658 770L686 742L714 742L742 742L770 742" stroke="rgba(255, 153, 128, 1)" stroke-width="4.67" class="jcYqhMjX_19"></path><path d="M765.33 742 a4.67 4.67 0 1 0 9.34 0 a4.67 4.67 0 1 0 -9.34 0zM289.33 686 a4.67 4.67 0 1 0 9.34 0 a4.67 4.67 0 1 0 -9.34 0zM569.33 798 a4.67 4.67 0 1 0 9.34 0 a4.67 4.67 0 1 0 -9.34 0zM401.33 742 a4.67 4.67 0 1 0 9.34 0 a4.67 4.67 0 1 0 -9.34 0zM765.33 798 a4.67 4.67 0 1 0 9.34 0 a4.67 4.67 0 1 0 -9.34 0zM765.33 770 a4.67 4.67 0 1 0 9.34 0 a4.67 4.67 0 1 0 -9.34 0zM261.33 686 a4.67 4.67 0 1 0 9.34 0 a4.67 4.67 0 1 0 -9.34 0zM177.33 658 a4.67 4.67 0 1 0 9.34 0 a4.67 4.67 0 1 0 -9.34 0z" fill="rgba(255, 153, 128, 1)" class="jcYqhMjX_20"></path><path d="M518 210L546 182L574 182L602 182L630 182L658 182M350 210L378 238L406 238L434 238L462 238M462 182L490 182L518 182M378 210L406 210L434 210L462 210M770 238L798 210L826 210L854 210L882 210L910 210M154 266L182 266M602 210L630 210L658 210L686 210L714 210M826 238L854 266L882 266L910 266L938 238L966 238L994 238L1022 238L1050 238L1078 238L1106 238L1134 238M-14 294L14 294L42 294L70 294L98 294L126 266L154 266L182 238L210 238L238 238L266 238L294 238L322 238L350 210L378 210L406 182L434 182L462 182L490 210L518 210L546 210L574 210L602 210L630 238L658 238L686 238L714 238L742 238L770 238L798 238L826 238L854 238L882 238" stroke="rgba(255, 153, 128, 1)" stroke-width="4.67" class="jcYqhMjX_21"></path><path d="M877.33 238 a4.67 4.67 0 1 0 9.34 0 a4.67 4.67 0 1 0 -9.34 0zM653.33 182 a4.67 4.67 0 1 0 9.34 0 a4.67 4.67 0 1 0 -9.34 0zM457.33 238 a4.67 4.67 0 1 0 9.34 0 a4.67 4.67 0 1 0 -9.34 0zM513.33 182 a4.67 4.67 0 1 0 9.34 0 a4.67 4.67 0 1 0 -9.34 0zM457.33 210 a4.67 4.67 0 1 0 9.34 0 a4.67 4.67 0 1 0 -9.34 0zM905.33 210 a4.67 4.67 0 1 0 9.34 0 a4.67 4.67 0 1 0 -9.34 0zM177.33 266 a4.67 4.67 0 1 0 9.34 0 a4.67 4.67 0 1 0 -9.34 0zM709.33 210 a4.67 4.67 0 1 0 9.34 0 a4.67 4.67 0 1 0 -9.34 0zM1129.33 238 a4.67 4.67 0 1 0 9.34 0 a4.67 4.67 0 1 0 -9.34 0z" fill="rgba(255, 153, 128, 1)" class="jcYqhMjX_22"></path><path d="M42 630L70 658L98 658L126 658L154 686M-14 630L14 630L42 630L70 630" stroke="rgba(255, 153, 128, 1)" stroke-width="4.67" class="jcYqhMjX_23"></path><path d="M65.33 630 a4.67 4.67 0 1 0 9.34 0 a4.67 4.67 0 1 0 -9.34 0zM149.33 686 a4.67 4.67 0 1 0 9.34 0 a4.67 4.67 0 1 0 -9.34 0z" fill="rgba(255, 153, 128, 1)" class="jcYqhMjX_24"></path><path d="M-14 266L14 266L42 266L70 266L98 266L126 238L154 238L182 210L210 210L238 210L266 210L294 210L322 210L350 182L378 182" stroke="rgba(255, 153, 128, 1)" stroke-width="4.67" class="jcYqhMjX_25"></path><path d="M373.33 182 a4.67 4.67 0 1 0 9.34 0 a4.67 4.67 0 1 0 -9.34 0z" fill="rgba(255, 153, 128, 1)" class="jcYqhMjX_26"></path><path d="M966 154L994 182M238 182L266 154L294 154L322 154L350 126M882 154L910 126L938 126M1106 154L1134 182L1162 210M1246 154L1274 182L1302 182M994 154L1022 126L1050 126L1078 126L1106 126L1134 126L1162 126L1190 126L1218 126L1246 126M714 126L742 126L770 126L798 126L826 126L854 126L882 98L910 98L938 98L966 70L994 70L1022 70L1050 70L1078 70L1106 70L1134 70M42 238L70 210L98 210L126 182L154 154M1078 154L1106 182L1134 210M770 154L798 182L826 182L854 182L882 182M1190 182L1218 154M602 126L630 154L658 154L686 154L714 154L742 182L770 182M-14 238L14 238L42 238L70 238L98 238L126 210L154 210L182 182L210 182L238 182L266 182L294 182L322 182L350 154L378 154L406 154L434 154L462 154L490 154L518 154L546 154L574 154L602 126L630 126L658 126L686 126L714 126L742 154L770 154L798 154L826 154L854 154L882 154L910 154L938 154L966 154L994 154L1022 154L1050 154L1078 154L1106 154L1134 154L1162 182L1190 182L1218 182L1246 154L1274 154L1302 154" stroke="rgba(255, 153, 128, 1)" stroke-width="4.67" class="jcYqhMjX_27"></path><path d="M1297.33 154 a4.67 4.67 0 1 0 9.34 0 a4.67 4.67 0 1 0 -9.34 0zM989.33 182 a4.67 4.67 0 1 0 9.34 0 a4.67 4.67 0 1 0 -9.34 0zM345.33 126 a4.67 4.67 0 1 0 9.34 0 a4.67 4.67 0 1 0 -9.34 0zM933.33 126 a4.67 4.67 0 1 0 9.34 0 a4.67 4.67 0 1 0 -9.34 0zM1157.33 210 a4.67 4.67 0 1 0 9.34 0 a4.67 4.67 0 1 0 -9.34 0zM1297.33 182 a4.67 4.67 0 1 0 9.34 0 a4.67 4.67 0 1 0 -9.34 0zM1241.33 126 a4.67 4.67 0 1 0 9.34 0 a4.67 4.67 0 1 0 -9.34 0zM1129.33 70 a4.67 4.67 0 1 0 9.34 0 a4.67 4.67 0 1 0 -9.34 0zM149.33 154 a4.67 4.67 0 1 0 9.34 0 a4.67 4.67 0 1 0 -9.34 0zM1129.33 210 a4.67 4.67 0 1 0 9.34 0 a4.67 4.67 0 1 0 -9.34 0zM877.33 182 a4.67 4.67 0 1 0 9.34 0 a4.67 4.67 0 1 0 -9.34 0zM1213.33 154 a4.67 4.67 0 1 0 9.34 0 a4.67 4.67 0 1 0 -9.34 0zM765.33 182 a4.67 4.67 0 1 0 9.34 0 a4.67 4.67 0 1 0 -9.34 0z" fill="rgba(255, 153, 128, 1)" class="jcYqhMjX_28"></path></g></g><defs><mask id="SvgjsMask2011"><path width="2600" height="900" fill="#ffffff" d="M0 0 L2600 0 L2600 900 L0 900 Z" class="jcYqhMjX_29"></path></mask></defs><style data-made-with="vivus-instant">.jcYqhMjX_0{stroke-dasharray:7000 7002;stroke-dashoffset:7001;animation:jcYqhMjX_draw 1666ms ease-in-out 0ms forwards;}.jcYqhMjX_1{stroke-dasharray:4044 4046;stroke-dashoffset:4045;animation:jcYqhMjX_draw 1666ms ease-in-out 28ms forwards;}.jcYqhMjX_2{stroke-dasharray:441 443;stroke-dashoffset:442;animation:jcYqhMjX_draw 1666ms ease-in-out 57ms forwards;}.jcYqhMjX_3{stroke-dasharray:2039 2041;stroke-dashoffset:2040;animation:jcYqhMjX_draw 1666ms ease-in-out 86ms forwards;}.jcYqhMjX_4{stroke-dasharray:353 355;stroke-dashoffset:354;animation:jcYqhMjX_draw 1666ms ease-in-out 114ms forwards;}.jcYqhMjX_5{stroke-dasharray:1775 1777;stroke-dashoffset:1776;animation:jcYqhMjX_draw 1666ms ease-in-out 143ms forwards;}.jcYqhMjX_6{stroke-dasharray:265 267;stroke-dashoffset:266;animation:jcYqhMjX_draw 1666ms ease-in-out 172ms forwards;}.jcYqhMjX_7{stroke-dasharray:3550 3552;stroke-dashoffset:3551;animation:jcYqhMjX_draw 1666ms ease-in-out 201ms forwards;}.jcYqhMjX_8{stroke-dasharray:470 472;stroke-dashoffset:471;animation:jcYqhMjX_draw 1666ms ease-in-out 229ms forwards;}.jcYqhMjX_9{stroke-dasharray:404 406;stroke-dashoffset:405;animation:jcYqhMjX_draw 1666ms ease-in-out 258ms forwards;}.jcYqhMjX_10{stroke-dasharray:30 32;stroke-dashoffset:31;animation:jcYqhMjX_draw 1666ms ease-in-out 287ms forwards;}.jcYqhMjX_11{stroke-dasharray:3107 3109;stroke-dashoffset:3108;animation:jcYqhMjX_draw 1666ms ease-in-out 316ms forwards;}.jcYqhMjX_12{stroke-dasharray:353 355;stroke-dashoffset:354;animation:jcYqhMjX_draw 1666ms ease-in-out 344ms forwards;}.jcYqhMjX_13{stroke-dasharray:1208 1210;stroke-dashoffset:1209;animation:jcYqhMjX_draw 1666ms ease-in-out 373ms forwards;}.jcYqhMjX_14{stroke-dasharray:206 208;stroke-dashoffset:207;animation:jcYqhMjX_draw 1666ms ease-in-out 402ms forwards;}.jcYqhMjX_15{stroke-dasharray:2752 2754;stroke-dashoffset:2753;animation:jcYqhMjX_draw 1666ms ease-in-out 431ms forwards;}.jcYqhMjX_16{stroke-dasharray:323 325;stroke-dashoffset:324;animation:jcYqhMjX_draw 1666ms ease-in-out 459ms forwards;}.jcYqhMjX_17{stroke-dasharray:635 637;stroke-dashoffset:636;animation:jcYqhMjX_draw 1666ms ease-in-out 488ms forwards;}.jcYqhMjX_18{stroke-dasharray:118 120;stroke-dashoffset:119;animation:jcYqhMjX_draw 1666ms ease-in-out 517ms forwards;}.jcYqhMjX_19{stroke-dasharray:1451 1453;stroke-dashoffset:1452;animation:jcYqhMjX_draw 1666ms ease-in-out 545ms forwards;}.jcYqhMjX_20{stroke-dasharray:235 237;stroke-dashoffset:236;animation:jcYqhMjX_draw 1666ms ease-in-out 574ms forwards;}.jcYqhMjX_21{stroke-dasharray:2004 2006;stroke-dashoffset:2005;animation:jcYqhMjX_draw 1666ms ease-in-out 603ms forwards;}.jcYqhMjX_22{stroke-dasharray:265 267;stroke-dashoffset:266;animation:jcYqhMjX_draw 1666ms ease-in-out 632ms forwards;}.jcYqhMjX_23{stroke-dasharray:220 222;stroke-dashoffset:221;animation:jcYqhMjX_draw 1666ms ease-in-out 660ms forwards;}.jcYqhMjX_24{stroke-dasharray:59 61;stroke-dashoffset:60;animation:jcYqhMjX_draw 1666ms ease-in-out 689ms forwards;}.jcYqhMjX_25{stroke-dasharray:427 429;stroke-dashoffset:428;animation:jcYqhMjX_draw 1666ms ease-in-out 718ms forwards;}.jcYqhMjX_26{stroke-dasharray:30 32;stroke-dashoffset:31;animation:jcYqhMjX_draw 1666ms ease-in-out 747ms forwards;}.jcYqhMjX_27{stroke-dasharray:3074 3076;stroke-dashoffset:3075;animation:jcYqhMjX_draw 1666ms ease-in-out 775ms forwards;}.jcYqhMjX_28{stroke-dasharray:382 384;stroke-dashoffset:383;animation:jcYqhMjX_draw 1666ms ease-in-out 804ms forwards;}.jcYqhMjX_29{stroke-dasharray:7000 7002;stroke-dashoffset:7001;animation:jcYqhMjX_draw 1666ms ease-in-out 833ms forwards;}@keyframes jcYqhMjX_draw{100%{stroke-dashoffset:0;}}@keyframes jcYqhMjX_fade{0%{stroke-opacity:1;}94.02985074626866%{stroke-opacity:1;}100%{stroke-opacity:0;}}</style></svg>