<svg xmlns="http://www.w3.org/2000/svg" xmlns:xlink="http://www.w3.org/1999/xlink" viewBox="0 0 117.883 37.883" fill="#fff" fill-rule="evenodd" stroke="#000" stroke-linecap="round" stroke-linejoin="round"><use xlink:href="#A" x="2.441" y="2.441"/><symbol id="A" overflow="visible"><g stroke="none" fill-rule="nonzero"><path d="M0 6.035h3.931v8.789h8.291V6.035h3.935v21.484h-3.935v-8.96H3.936v8.911H0zm28.613 14.453a3.27 3.27 0 0 1-3.257 3.257 3.27 3.27 0 0 1-3.257-3.257v-9.277h-3.726v9.277c0 3.856 3.126 6.982 6.982 6.982s6.983-3.126 6.983-6.982v-9.277h-3.726v9.277m14.141-9.121c-1.647-.074-3.245.567-4.385 1.758v-7.09h-3.74V19.18c0 4.922 3.564 8.291 7.554 8.291 4.395 0 8.335-3.433 8.335-8.057 0-4.565-3.589-8.057-7.812-8.057zm.098 12.695c-2.539 0-4.473-2.114-4.473-4.59s1.938-4.59 4.473-4.59c2.148 0 4.087 2.119 4.087 4.59s-1.938 4.59-4.087 4.59zm13.955-11.704c0-1.88 1.255-2.476 2.622-2.476 1.104 0 2.563.83 3.516 1.855l2.441-2.861c-1.221-1.641-3.696-2.773-5.723-2.773-4.053 0-6.982 2.358-6.982 6.265 0 7.246 8.916 4.951 8.916 9.009 0 1.25-1.221 2.354-2.622 2.354-2.207 0-2.93-1.074-3.936-2.207l-2.715 2.803c1.729 2.119 3.877 3.193 6.445 3.193 3.848 0 6.948-2.441 6.948-6.113 0-8.057-8.916-5.547-8.916-9.033m18.765-1.152c-4.004 0-7.554 3.418-7.554 8.291v13.184h3.74v-7.129c1.245 1.221 2.539 1.758 4.385 1.758 4.175 0 7.813-3.491 7.813-8.057 0-4.624-3.896-8.057-8.34-8.057zm.664 12.695c-2.539 0-4.473-2.119-4.473-4.59s1.938-4.59 4.473-4.59c2.148 0 4.087 2.119 4.087 4.59s-1.939 4.59-4.087 4.59zm35.156.21c-2.207 0-2.832-.952-2.832-2.417v-6.577h3.428v-3.286h-3.428V7.519l-3.784 1.699v13.184c0 3.418 2.324 5.068 5.518 5.068.501.01 1.001-.029 1.494-.117l.977-3.399-1.318.059" fill="#45535e"/><path d="M101.558 15.322c-.718-1.235-1.724-2.222-2.988-2.969-.927-.548-1.955-.903-3.022-1.045V7.388a2.88 2.88 0 0 0 1.782-2.71 2.93 2.93 0 0 0-2.964-2.93 2.98 2.98 0 0 0-2.988 2.979c0 1.206.644 2.246 1.743 2.71v3.921c-.879.127-1.792.4-2.627.83L79.937 4.17c.078-.278.137-.566.137-.869A3.3 3.3 0 0 0 76.773 0c-1.826 0-3.296 1.48-3.296 3.301a3.3 3.3 0 0 0 3.301 3.301 3.27 3.27 0 0 0 1.694-.479l.684.523 9.473 6.826a7.71 7.71 0 0 0-1.343 1.572c-.778 1.172-1.202 2.544-1.221 3.95v.293c.006.975.181 1.941.518 2.857.293.781.708 1.489 1.221 2.134l-3.145 3.154a2.54 2.54 0 0 0-3.423 2.393 2.55 2.55 0 0 0 2.549 2.549 2.55 2.55 0 0 0 2.549-2.549c0-.264-.039-.522-.117-.767l3.252-3.252a8.35 8.35 0 0 0 1.445.791 8.45 8.45 0 0 0 3.379.708h.225a7.96 7.96 0 0 0 3.858-.977c1.269-.693 2.27-1.641 3.027-2.847a7.47 7.47 0 0 0 1.172-4.023v-.073a7.91 7.91 0 0 0-1.04-4.004zm-3.97 6.826c-.879.977-1.894 1.587-3.042 1.587h-.195a4.15 4.15 0 0 1-1.924-.508c-.685-.356-1.266-.884-1.685-1.533-.454-.644-.703-1.343-.703-2.09v-.244c0-.732.147-1.426.488-2.08a4.49 4.49 0 0 1 1.567-1.714c.669-.488 1.377-.654 2.173-.654h.073c.708-.011 1.408.15 2.041.469a4.37 4.37 0 0 1 1.611 1.465c.398.617.644 1.32.718 2.051l.02.464c-.014 1.04-.426 2.034-1.152 2.778z" fill="#f8761f"/></g></symbol></svg>