<svg xmlns="http://www.w3.org/2000/svg" width="44" height="44" viewBox="0 0 44 44">
    <g fill="none" fill-rule="evenodd">
        <path d="M0 3H40V43H0z"/>
        <g fill-rule="nonzero">
            <path fill="#FFF" d="M22.478 8.175v22.262H11.522V8.175c0-.396.042-.83.123-1.287.111-.64.297-1.32.54-1.992.215-.59.476-1.175.771-1.716C14.076 1.13 15.512 0 17 0c1.488 0 2.924 1.13 4.044 3.18.295.541.556 1.125.77 1.716.244.671.43 1.353.541 1.992.08.457.123.891.123 1.287z" transform="rotate(16 1.712 37.288)"/>
            <path fill="#D0D0D0" d="M22.478 8.175v22.262H17V0c1.488 0 2.924 1.13 4.044 3.18.295.541.556 1.125.77 1.716.244.671.43 1.353.541 1.992.08.457.123.891.123 1.287z" transform="rotate(16 1.712 37.288)"/>
            <path fill="#594CB9" d="M22.355 6.888h-10.71c.111-.64.297-1.32.54-1.992h9.63c.243.671.429 1.353.54 1.992z" transform="rotate(16 1.712 37.288)"/>
            <path fill="#4638AB" d="M22.355 6.888H17V4.896h4.814c.244.671.43 1.353.541 1.992z" transform="rotate(16 1.712 37.288)"/>
            <path fill="#FF413C" d="M8.849 18.534L8.849 18.534 8.849 18.534 8.046 17.944.024 28.857 8.801 28.857 8.801 27.861 8.801 27.861 8.84 20.228 9.651 19.124zM33.976 28.857L25.954 17.944 25.151 18.534 25.151 18.534 25.151 18.534 24.349 19.124 25.16 20.228 25.199 27.861 25.199 27.861 25.199 28.857z" transform="rotate(16 1.712 37.288)"/>
            <path fill="#FFF" d="M15.709 34L6.282 34 8.922 28.444 13.07 28.444z" transform="rotate(16 1.712 37.288)"/>
            <path fill="#D0D0D0" d="M15.709 34L10.996 34 10.996 28.444 13.07 28.444z" transform="rotate(16 1.712 37.288)"/>
            <path fill="#FFF" d="M27.718 34L18.291 34 20.931 28.444 25.079 28.444z" transform="rotate(16 1.712 37.288)"/>
            <path fill="#D0D0D0" d="M27.718 34L23.005 34 23.005 28.444 25.079 28.444z" transform="rotate(16 1.712 37.288)"/>
            <path fill="#4638AB" d="M27.224 13.79v-.001c-.181-2.19-1.992-3.922-4.22-3.96h-.076c-2.383 0-4.322 1.938-4.322 4.322v16.286h8.618V13.79z" transform="rotate(16 1.712 37.288)"/>
            <path fill="#4638AB" d="M27.23 13.79v-.001c-.182-2.19-1.993-3.922-4.22-3.96v20.608h4.22V13.79zM15.216 13.79c-.182-2.19-1.993-3.923-4.22-3.961h-.076c-2.384 0-4.323 1.938-4.323 4.322v16.286h8.619V13.79z" transform="rotate(16 1.712 37.288)"/>
            <path fill="#4638AB" d="M15.216 13.79c-.182-2.19-1.993-3.923-4.22-3.961v20.608h4.22V13.79z" transform="rotate(16 1.712 37.288)"/>
        </g>
        <path fill="#FFF" fill-opacity=".01" d="M0 42H1V43H0zM39 3H40V4H39z"/>
    </g>
</svg>
