<svg xmlns="http://www.w3.org/2000/svg" width="40" height="40" viewBox="0 0 40 40">
    <g fill="none" fill-rule="evenodd">
        <path d="M0 0H40V40H0z"/>
        <g fill-rule="nonzero">
            <path fill="#D8D8D8" d="M31.012 0H2.988C1.341 0 0 1.442 0 3.214V7h34V3.214C34 1.442 32.66 0 31.012 0zm-25.7 4.571c-.55 0-.996-.48-.996-1.071 0-.592.446-1.071.997-1.071.55 0 .996.48.996 1.071 0 .592-.446 1.071-.997 1.071zm4.25 0c-.55 0-.996-.48-.996-1.07 0-.593.446-1.072.996-1.072s.997.48.997 1.071c0 .592-.446 1.072-.996 1.072zm4.25 0c-.55 0-.996-.48-.996-1.071 0-.592.446-1.071.996-1.071s.997.48.997 1.071c0 .592-.446 1.071-.996 1.071z" transform="translate(3 6)"/>
            <path fill="#4638AB" d="M0 8v17.02c0 .47.11.916.306 1.312l6.4-6.888c.15-.161.35-.269.568-.305l5.838-.97 1.379-3.21c.157-.365.517-.601.915-.601h5.151l1.512-.503c-.138-.17-.221-.387-.221-.623 0-.549.446-.994.996-.994h4.25c.42 0 .794.262.936.656.143.393.024.833-.299 1.101l-3.187 2.649c-.186.155-.412.23-.637.23-.286 0-.569-.121-.766-.357-.206-.247-.271-.565-.205-.856l-1.902.632c-.102.034-.208.051-.315.051h-4.656l-1.335 3.107c-.134.311-.417.533-.752.589l-6.04 1.003-6.205 6.68c.382.177.808.277 1.257.277h7.172v-4.172c0-.549.446-.994.996-.994s.996.445.996.994V28h3.852v-5.762c0-.548.446-.993.996-.993s.996.445.996.993V28h3.852v-7.88c0-.55.446-.994.996-.994s.996.445.996.993V28h7.172C32.659 28 34 26.663 34 25.02V8H0z" transform="translate(3 6)"/>
        </g>
        <path fill="#FFF" fill-opacity=".01" d="M0 39H1V40H0zM39 0H40V1H39z"/>
    </g>
</svg>
