<svg id="Layer_1" enable-background="new 0 0 510 510" height="512" viewBox="0 0 510 510" width="512" xmlns="http://www.w3.org/2000/svg"><path d="m510 150v-120h-45v-30h-30v30h-45v45h-33.458c-21.084 0-41.311 8.948-55.496 24.55l-61.866 68.053-15.721-43.233c-10.738-29.53-39.064-49.37-70.484-49.37h-32.975v-45h-45v-30h-30v30h-45v120h45v45h-45v120h45v45h-45v120h45v30h30v-30h45v-45h33.458c21.085 0 41.312-8.948 55.496-24.55l61.866-68.054 15.722 43.235c10.738 29.529 39.063 49.369 70.483 49.369h32.975v45h45v30h30v-30h45v-120h-45v-45h45v-120h-45v-45zm-90-90h60v60h-60zm-390 0h60v60h-60zm45 90h45v-45h32.975c18.853 0 35.848 11.904 42.29 29.621l21.114 58.064-29.623 32.586c-8.51 9.36-20.646 14.73-33.297 14.73h-33.459v-45h-45zm-45 75h60v60h-60zm60 225h-60v-60h60zm96.755-59.729c-8.51 9.36-20.646 14.729-33.297 14.729h-33.458v-45h-45v-45h45v-45h33.458c21.085 0 41.312-8.948 55.496-24.55l19.009-20.91 31.272 86.001zm293.245 59.729h-60v-60h60zm-45-90h-45v45h-32.975c-18.853 0-35.848-11.904-42.291-29.621l-21.113-58.064 29.623-32.586c8.511-9.36 20.648-14.729 33.298-14.729h33.458v45h45zm45-75h-60v-60h60zm-45-90h-45v45h-33.458c-21.084 0-41.311 8.948-55.496 24.55l-19.009 20.91-31.273-86.001 72.48-79.729c8.511-9.36 20.648-14.729 33.298-14.729h33.458v45h45z"/></svg>