<?xml version="1.0" encoding="UTF-8"?>
<svg width="20px" height="20px" viewBox="0 0 20 20" version="1.1" xmlns="http://www.w3.org/2000/svg" xmlns:xlink="http://www.w3.org/1999/xlink">
    <title>815AAAB6-D814-4C47-B619-1B5E6DE6999B</title>
    <g id="Design-2.0" stroke="none" stroke-width="1" fill="none" fill-rule="evenodd">
        <g id="Home-page-desktop" transform="translate(-235.000000, -6574.000000)">
            <g id="Get-in-touch" transform="translate(0.000000, 6308.000000)">
                <g id="+46-72-512-21-89" transform="translate(235.000000, 264.000000)">
                    <g id="icon-phone" transform="translate(0.000000, 2.000000)">
                        <g id="telephone">
                            <rect id="Rectangle" x="0" y="0" width="20" height="20"></rect>
                            <rect id="Rectangle" fill-opacity="0.01" fill="#FFFFFF" x="19" y="0" width="1" height="1"></rect>
                            <g id="Group-50" transform="translate(0.999968, 1.000000)" fill-rule="nonzero">
                                <g id="Group" transform="translate(1.100276, -0.000000)" fill="#171631">
                                    <path d="M5.35304156,4.98261125 L4.41558924,5.92006357 L2.32081174,5.14324694 L1.18993643,4.004978 L0.0190562347,1.51028362 C0.203853301,1.18021027 0.401897311,0.863339853 0.626347188,0.546513447 C1.07529095,-0.0739804401 2.07871394,-0.153198044 2.63323716,0.401281174 L5.35304156,3.12108557 C5.87072861,3.63872861 5.85748166,4.47817115 5.35304156,4.98261125 L5.35304156,4.98261125 Z" id="Path"></path>
                                    <path d="M16.8527971,15.2941027 C16.8263472,15.6770318 16.6283032,16.0203081 16.3246357,16.2447579 C16.0077653,16.4691638 15.6909389,16.6672518 15.3476186,16.83889 L13.0742494,15.8858142 L12.1046259,14.9161907 L10.9642445,12.4555159 L11.8884499,11.5180636 C12.3901614,11.0163521 13.261511,11.0163521 13.7500196,11.5180636 L16.469824,14.237868 C16.7471736,14.5151736 16.8924059,14.8980147 16.8527971,15.2941027 L16.8527971,15.2941027 Z" id="Path"></path>
                                </g>
                                <path d="M12.0645646,12.4555159 C12.0645646,12.4555159 11.2855475,13.0099951 10.8366918,13.1024597 C9.9521392,13.3268655 8.97503406,13.1024597 8.31488736,12.4555159 L6.91537636,11.0560049 L5.51586536,9.65649389 C4.8293568,8.96989731 4.60486291,7.99292421 4.84251572,7.10832763 C4.94818321,6.6725868 5.17258907,6.26333985 5.51586536,5.92001956 L1.11933235,1.51023961 C0.894838462,1.9327335 0.696838462,2.36847433 0.551518169,2.81741809 C-0.649904814,6.10494866 0.129112301,9.86774083 2.71679934,12.4555599 L4.11631034,13.8550709 L5.51582135,15.2545819 C7.25860863,16.9973692 9.58236902,17.9611834 12.0512737,17.9611834 C13.1207113,17.9611834 14.1636991,17.7763423 15.1539191,17.4199071 C15.6028629,17.2746308 16.0385597,17.0766308 16.4478507,16.838978 L12.0645646,12.4555159 Z" id="Path" fill="#D8D8D8"></path>
                                <path d="M12.0513617,17.9610954 C13.1207993,17.9610954 14.1637871,17.7762543 15.1540072,17.4198191 C15.6029509,17.2745428 16.0386478,17.0765428 16.4479387,16.83889 L12.0645646,12.4555159 C12.0645646,12.4555159 11.2855475,13.0099951 10.8366918,13.1024597 C9.9521392,13.3268655 8.97503406,13.1024597 8.31488736,12.4555159 L6.91537636,11.0560049 L4.11635435,13.8550269 L5.51586536,15.2545379 C7.25865264,16.9973252 9.58241303,17.9610954 12.0513617,17.9610954 L12.0513617,17.9610954 Z" id="Path" fill="#4638AB"></path>
                            </g>
                        </g>
                        <rect id="Rectangle" fill-opacity="0.01" fill="#FFFFFF" x="0" y="19" width="1" height="1"></rect>
                    </g>
                </g>
            </g>
        </g>
    </g>
</svg>