<?xml version="1.0"?>
<svg xmlns="http://www.w3.org/2000/svg" xmlns:xlink="http://www.w3.org/1999/xlink" xmlns:svgjs="http://svgjs.com/svgjs" version="1.1" width="512" height="512" x="0" y="0" viewBox="0 0 256 256" style="enable-background:new 0 0 512 512" xml:space="preserve" class=""><g><g xmlns="http://www.w3.org/2000/svg"><g><path d="m7.75 43.045h240.5v68.61h-240.5z" fill="#afafaf" data-original="#afafaf" style="" class=""/></g><g><path d="m7.75 111.655h240.5v68.61h-240.5z" fill="#efefef" data-original="#efefef" style="" class=""/></g><g><path d="m7.75 180.265h240.5v68.61h-240.5z" fill="#afafaf" data-original="#afafaf" style="" class=""/></g><g><g><path d="m122.947 25.085-11.74 17.96h-41.768l11.74-17.96-11.74-17.96h41.768z" fill="#437bff" data-original="#fc5d3d" style="" class=""/></g><g><path d="m122.95 27.585h-30.95c-1.38 0-2.5-1.12-2.5-2.5s1.12-2.5 2.5-2.5h30.95c1.38 0 2.5 1.12 2.5 2.5s-1.12 2.5-2.5 2.5z" fill="#ffcbc2" data-original="#ffcbc2" style=""/></g><g><path d="m164.715 25.085-11.74 17.96h-41.768l11.74-17.96-11.74-17.96h41.768z" fill="#f0c020" data-original="#f0c020" style="" class=""/></g><g><path d="m164.71 27.585h-41.76c-1.381 0-2.5-1.12-2.5-2.5s1.119-2.5 2.5-2.5h41.76c1.38 0 2.5 1.12 2.5 2.5s-1.12 2.5-2.5 2.5z" fill="#f9e5af" data-original="#f9e5af" style=""/></g><g><path d="m206.482 25.085-11.74 17.96h-41.767l11.74-17.96-11.74-17.96h41.767z" fill="#13bf6d" data-original="#13bf6d" style="" class=""/></g><g><path d="m206.479 27.585h-41.77c-1.38 0-2.5-1.12-2.5-2.5s1.12-2.5 2.5-2.5h41.77c1.38 0 2.5 1.12 2.5 2.5s-1.12 2.5-2.5 2.5z" fill="#76ffba" data-original="#76ffba" style="" class=""/></g><g><path d="m248.25 25.085-11.74 17.96h-41.768l11.74-17.96-11.74-17.96h41.768z" fill="#b7a9fb" data-original="#72c1e8" style="" class=""/></g><g><path d="m234.25 27.585h-27.771c-1.38 0-2.5-1.12-2.5-2.5s1.12-2.5 2.5-2.5h27.771c1.38 0 2.5 1.12 2.5 2.5s-1.12 2.5-2.5 2.5z" fill="#c5e5ff" data-original="#c5e5ff" style="" class=""/></g></g><g><circle cx="39.307" cy="77.35" fill="#f0c020" r="19.97" data-original="#f0c020" style="" class=""/></g><g><circle cx="39.307" cy="145.96" fill="#b7a9fb" r="19.97" data-original="#72c1e8" style="" class=""/></g><g><circle cx="39.307" cy="214.57" fill="#437bff" r="19.97" data-original="#fc5d3d" style="" class=""/></g><g><circle cx="89.715" cy="145.96" fill="#b7a9fb" r="7.465" data-original="#72c1e8" style="" class=""/></g><g><circle cx="135.465" cy="77.35" fill="#f0c020" r="7.465" data-original="#f0c020" style="" class=""/></g><g><circle cx="221.496" cy="145.96" fill="#b7a9fb" r="7.465" data-original="#72c1e8" style="" class=""/></g><g><circle cx="179.729" cy="214.57" fill="#437bff" r="7.465" data-original="#fc5d3d" style="" class=""/></g><g><path d="m248.25 40.545h-7.119l9.212-14.092c.543-.831.543-1.905 0-2.735l-11.74-17.96c-.462-.707-1.249-1.132-2.093-1.132-12.196 0-120.913 0-136.07 0-1.38 0-2.5 1.12-2.5 2.5s1.12 2.5 2.5 2.5h.011 9.399l10.11 15.46-10.11 15.46c-14.94 0-87.167 0-102.1 0-1.381 0-2.5 1.119-2.5 2.5s1.119 2.5 2.5 2.5h240.5c1.381 0 2.5-1.119 2.5-2.5s-1.119-2.501-2.5-2.501zm-96.628 0h-35.792l9.21-14.09c.079-.121.122-.256.178-.387.273-.632.273-1.335 0-1.967-.056-.13-.099-.265-.178-.387l-9.21-14.09h35.792l10.106 15.46zm15.186-14.092c.543-.831.543-1.905 0-2.735l-9.212-14.092h35.794l10.106 15.46-10.106 15.46h-35.794zm32.555 14.092 9.212-14.092c.543-.831.543-1.905 0-2.735l-9.212-14.092h35.794l10.106 15.46-10.106 15.46h-35.794z" fill="#000000" data-original="#000000" style="" class=""/><circle cx="178.25" cy="111.655" r="2.5" fill="#000000" data-original="#000000" style="" class=""/><path d="m248.25 109.155h-60c-1.38 0-2.5 1.12-2.5 2.5s1.12 2.5 2.5 2.5h60c1.38 0 2.5-1.12 2.5-2.5s-1.12-2.5-2.5-2.5z" fill="#000000" data-original="#000000" style="" class=""/><path d="m248.25 246.375h-240.5c-1.381 0-2.5 1.119-2.5 2.5s1.119 2.5 2.5 2.5h240.5c1.381 0 2.5-1.119 2.5-2.5s-1.119-2.5-2.5-2.5z" fill="#000000" data-original="#000000" style="" class=""/><circle cx="68.25" cy="180.265" r="2.5" fill="#000000" data-original="#000000" style="" class=""/><path d="m248.25 177.765h-43.189l13.556-22.268c.912.276 1.878.428 2.879.428 5.495 0 9.965-4.47 9.965-9.965s-4.47-9.965-9.965-9.965-9.965 4.47-9.965 9.965c0 2.693 1.078 5.135 2.819 6.93l-15.143 24.875h-28.724l-20.516-63.61h18.282c1.38 0 2.5-1.12 2.5-2.5s-1.12-2.5-2.5-2.5h-19.894l-7.549-23.406c2.775-1.771 4.623-4.87 4.623-8.398 0-5.495-4.47-9.965-9.965-9.965s-9.965 4.47-9.965 9.965c0 2.545.967 4.862 2.542 6.625l-16.79 25.18h-103.501c-1.38 0-2.5 1.12-2.5 2.5s1.12 2.5 2.5 2.5h100.168l-14.937 22.401c-1.025-.357-2.121-.561-3.266-.561-5.495 0-9.965 4.47-9.965 9.965s4.47 9.965 9.965 9.965 9.965-4.47 9.965-9.965c0-2.545-.967-4.863-2.542-6.625l16.79-25.18h30.788l20.516 63.61h-86.982c-1.38 0-2.5 1.12-2.5 2.5s1.12 2.5 2.5 2.5h88.594l7.548 23.404c-2.777 1.771-4.628 4.87-4.628 8.401 0 5.495 4.47 9.965 9.965 9.965s9.965-4.47 9.965-9.965c0-2.693-1.078-5.135-2.819-6.93l15.143-24.875h46.233c1.38 0 2.5-1.12 2.5-2.5-.001-1.381-1.121-2.501-2.501-2.501zm-26.754-36.77c2.737 0 4.965 2.227 4.965 4.965s-2.228 4.965-4.965 4.965-4.965-2.227-4.965-4.965 2.228-4.965 4.965-4.965zm-131.781 9.93c-2.737 0-4.965-2.227-4.965-4.965s2.228-4.965 4.965-4.965 4.965 2.227 4.965 4.965-2.228 4.965-4.965 4.965zm45.75-78.54c2.737 0 4.965 2.227 4.965 4.965s-2.228 4.965-4.965 4.965-4.965-2.227-4.965-4.965 2.228-4.965 4.965-4.965zm-18.204 36.77 14.937-22.401c1.391.485 2.597.604 3.851.531l7.053 21.869h-25.841zm62.468 110.38c-2.737 0-4.965-2.227-4.965-4.965s2.228-4.965 4.965-4.965 4.965 2.227 4.965 4.965-2.228 4.965-4.965 4.965zm2.878-14.502c-1.248-.378-2.325-.464-3.457-.398l-7.053-21.87h24.067z" fill="#000000" data-original="#000000" style="" class=""/><path d="m5.25 180.265c0 1.38 1.12 2.5 2.5 2.5h50.5c1.38 0 2.5-1.12 2.5-2.5s-1.12-2.5-2.5-2.5h-50.5c-1.38 0-2.5 1.12-2.5 2.5z" fill="#000000" data-original="#000000" style="" class=""/><path d="m69.439 9.625h11c1.38 0 2.5-1.12 2.5-2.5s-1.12-2.5-2.5-2.5h-11c-1.38 0-2.5 1.12-2.5 2.5s1.121 2.5 2.5 2.5z" fill="#000000" data-original="#000000" style="" class=""/><circle cx="90.439" cy="7.125" r="2.5" fill="#000000" data-original="#000000" style="" class=""/><path d="m32.308 75.516c1.381 0 2.5-1.119 2.5-2.5v-.875c0-1.381-1.119-2.5-2.5-2.5s-2.5 1.119-2.5 2.5v.875c0 1.38 1.119 2.5 2.5 2.5z" fill="#000000" data-original="#000000" style="" class=""/><path d="m46.308 75.516c1.381 0 2.5-1.119 2.5-2.5v-.875c0-1.381-1.119-2.5-2.5-2.5s-2.5 1.119-2.5 2.5v.875c0 1.38 1.119 2.5 2.5 2.5z" fill="#000000" data-original="#000000" style="" class=""/><path d="m48.571 82.685c.553-1.266-.025-2.739-1.291-3.292-1.266-.554-2.739.025-3.291 1.291-1.783 4.083-7.585 4.077-9.363.001-.552-1.267-2.022-1.843-3.291-1.292-1.266.552-1.844 2.025-1.291 3.291 3.518 8.065 15.001 8.078 18.527.001z" fill="#000000" data-original="#000000" style="" class=""/><path d="m34.808 141.49v-.875c0-1.381-1.119-2.5-2.5-2.5s-2.5 1.119-2.5 2.5v.875c0 1.381 1.119 2.5 2.5 2.5s2.5-1.119 2.5-2.5z" fill="#000000" data-original="#000000" style="" class=""/><path d="m46.308 143.99c1.381 0 2.5-1.119 2.5-2.5v-.875c0-1.381-1.119-2.5-2.5-2.5s-2.5 1.119-2.5 2.5v.875c0 1.381 1.119 2.5 2.5 2.5z" fill="#000000" data-original="#000000" style="" class=""/><path d="m47.474 151.625c0-1.381-1.119-2.5-2.5-2.5h-11.333c-1.381 0-2.5 1.119-2.5 2.5s1.119 2.5 2.5 2.5h11.333c1.38 0 2.5-1.119 2.5-2.5z" fill="#000000" data-original="#000000" style="" class=""/><path d="m32.308 212.6c1.381 0 2.5-1.119 2.5-2.5v-.875c0-1.381-1.119-2.5-2.5-2.5s-2.5 1.119-2.5 2.5v.875c0 1.381 1.119 2.5 2.5 2.5z" fill="#000000" data-original="#000000" style="" class=""/><path d="m46.308 212.6c1.381 0 2.5-1.119 2.5-2.5v-.875c0-1.381-1.119-2.5-2.5-2.5s-2.5 1.119-2.5 2.5v.875c0 1.381 1.119 2.5 2.5 2.5z" fill="#000000" data-original="#000000" style="" class=""/><path d="m39.308 216.6c-4.048 0-7.71 2.397-9.329 6.108-.553 1.265.025 2.739 1.291 3.291 1.263.554 2.738-.026 3.291-1.291.824-1.888 2.688-3.108 4.747-3.108s3.922 1.22 4.745 3.108c.553 1.268 2.03 1.843 3.291 1.292 1.266-.552 1.845-2.025 1.293-3.291-1.619-3.711-5.281-6.109-9.329-6.109z" fill="#000000" data-original="#000000" style="" class=""/><path d="m61.777 77.35c0-12.39-10.08-22.47-22.47-22.47s-22.47 10.08-22.47 22.47 10.08 22.47 22.47 22.47 22.47-10.08 22.47-22.47zm-39.939 0c0-9.633 7.837-17.47 17.47-17.47s17.47 7.837 17.47 17.47-7.837 17.47-17.47 17.47-17.47-7.837-17.47-17.47z" fill="#000000" data-original="#000000" style="" class=""/><path d="m61.777 145.96c0-12.39-10.08-22.47-22.47-22.47s-22.47 10.08-22.47 22.47 10.08 22.47 22.47 22.47 22.47-10.08 22.47-22.47zm-39.939 0c0-9.633 7.837-17.47 17.47-17.47s17.47 7.837 17.47 17.47-7.837 17.47-17.47 17.47-17.47-7.837-17.47-17.47z" fill="#000000" data-original="#000000" style="" class=""/><path d="m39.308 192.1c-12.39 0-22.47 10.08-22.47 22.47s10.08 22.47 22.47 22.47 22.47-10.08 22.47-22.47c-.001-12.39-10.081-22.47-22.47-22.47zm0 39.94c-9.633 0-17.47-7.837-17.47-17.47s7.837-17.47 17.47-17.47 17.47 7.837 17.47 17.47c-.001 9.633-7.838 17.47-17.47 17.47z" fill="#000000" data-original="#000000" style="" class=""/><path d="m29.844 27.585h13.697l-3.392 4.202c-.867 1.074-.699 2.648.375 3.516 1.079.87 2.651.696 3.516-.375l6.678-8.272c.739-.916.739-2.225 0-3.141l-6.678-8.272c-.866-1.073-2.441-1.243-3.516-.375-1.074.867-1.242 2.441-.375 3.516l3.392 4.202h-13.697c-1.381 0-2.5 1.119-2.5 2.5s1.119 2.499 2.5 2.499z" fill="#000000" data-original="#000000" style="" class=""/></g></g></g></svg>
