<svg version="1.1" id="Layer_1" xmlns="http://www.w3.org/2000/svg" xmlns:xlink="http://www.w3.org/1999/xlink" x="0px" y="0px" viewBox="0 0 135 24" style="enable-background:new 0 0 135 24;" xml:space="preserve">
    <style type="text/css">
		.marketo-dual-logo .st0{fill-rule:evenodd;clip-rule:evenodd;fill:#1C154C;display:block}
		.marketo-dual-logo .st1{fill-rule:evenodd;clip-rule:evenodd;fill:#8D89C2;}
		.marketo-dual-logo .st2{fill:#DED8EC;}
		.marketo-dual-logo .st3{fill:#0C131F;}
    </style>
<g>
	<g>
		<circle id="XMLID_28_" class="st0" cx="12.3" cy="12" r="11.2" style="
    fill: transparent;
"></circle>
		<path class="st1" d="M1,12c0,6.2,5,11.2,11.2,11.2s11.2-5,11.2-11.2s-5-11.2-11.2-11.2S1,5.8,1,12z M2.2,12
			c0-5.6,4.5-10.1,10.1-10.1S22.4,6.4,22.4,12s-4.5,10.1-10.1,10.1S2.2,17.6,2.2,12z" style="
    fill: #ffffff;
"></path>
		<g>
			<polygon class="st2" points="14.3,5.7 14.3,18.9 17.7,16.2 17.7,7.5 			" style="
    fill: #ffffff;
"></polygon>
			<polygon class="st2" points="12.8,16 10,17.2 10,6.8 12.8,7.6 			" style="
    fill: #ffffff;
"></polygon>
			<polygon class="st2" points="6.4,15.7 8.5,15.1 8.5,8.5 6.4,8.2 			" style="
    fill: #ffffff;
"></polygon>
		</g>
	</g>
	<g>
		<g>
			<path class="st3" d="M32,6.6h2.8c0.1,0,0.1,0,0.2,0.1c0.4,1.6,1.5,5.6,1.8,7.1h0c0.3-1.3,1.6-5.5,2.1-7.1c0-0.1,0-0.1,0.1-0.1
				h2.8c0.1,0,0.1,0,0.1,0.1l0.4,9.9c0,0.1,0,0.1-0.1,0.1h-2c-0.1,0-0.1,0-0.1-0.1c0-3.2,0-7.5,0-8.4h0c-0.3,1.5-1.7,6.3-2.3,8.4
				c0,0.1-0.1,0.1-0.2,0.1h-1.8c-0.1,0-0.1,0-0.2-0.1c-0.6-2.2-1.6-6.4-2.1-8.5h0c0,1.7-0.1,5.2-0.2,8.5c0,0.1,0,0.1-0.1,0.1h-1.8
				c-0.1,0-0.1,0-0.1-0.1l0.5-9.9C31.8,6.6,31.9,6.6,32,6.6z" style="
    fill: #ffffff;
"></path>
			<path class="st3" d="M49.8,15c0,0.4,0,0.7,0,1.1c0,0,0,0.1,0,0.1c-1.4,0.5-2.3,0.7-3.4,0.7c-1.7,0-3.1-0.8-3.1-2.6
				c0-1.6,1.4-2.5,3.5-2.5c0.4,0,0.8,0,0.9,0v-0.1c0-0.3-0.2-1-1.5-1c-0.8,0-1.4,0.2-2,0.4c-0.1,0-0.1,0-0.1-0.1V9.5
				c0-0.1,0-0.1,0.1-0.2c0.7-0.3,1.6-0.5,2.4-0.5c2.2,0,3.2,1.4,3.2,3.1V15z M47.8,13.4c-0.2,0-0.5,0-0.8,0c-1.1,0-1.5,0.4-1.5,0.9
				c0,0.5,0.4,0.9,1.4,0.9c0.4,0,0.7,0,1-0.1V13.4z" style="
    fill: #ffffff;
"></path>
			<path class="st3" d="M53,9c0.1,0,0.2,0,0.2,0.1c0.1,0.2,0.2,0.5,0.2,0.9c0.5-0.6,1.4-1.2,2.5-1.2c0.1,0,0.1,0,0.1,0.1v1.9
				c0,0.1,0,0.1-0.1,0.1c-1.1,0-2,0.3-2.3,0.7l0,4.9c0,0.1,0,0.1-0.1,0.1h-1.8c-0.1,0-0.2,0-0.2-0.1v-5.3c0-0.7,0-1.6-0.1-2.1
				c0-0.1,0-0.1,0.1-0.1H53z" style="
    fill: #ffffff;
"></path>
			<path class="st3" d="M63.5,9c0.1,0,0.2,0.1,0.1,0.2c-0.5,0.6-2.3,2.6-2.9,3.3c0,0,0,0,0,0.1c0.9,1.1,2.4,2.9,3.3,4.1
				c0.1,0,0,0.1-0.1,0.1h-2.5c-0.1,0-0.1,0-0.2-0.1c-0.5-0.6-1.8-2.3-2.5-3.3v3.2c0,0.1,0,0.2-0.1,0.2h-1.9c-0.1,0-0.2,0-0.2-0.2
				V5.9c0-0.1,0-0.1,0.2-0.1h1.9c0.1,0,0.1,0,0.1,0.1v6.3c0.8-1,2.2-2.7,2.6-3.1C61.4,9,61.5,9,61.5,9H63.5z" style="
    fill: #ffffff;
"></path>
			<path class="st3" d="M65.8,13.4c0.1,0.9,0.7,1.6,2.2,1.6c0.7,0,1.3-0.1,1.9-0.4c0,0,0.1,0,0.1,0.1v1.5c0,0.1,0,0.2-0.1,0.2
				c-0.6,0.3-1.3,0.4-2.4,0.4c-2.9,0-3.9-2-3.9-3.9c0-2.1,1.3-4.1,3.7-4.1c2.3,0,3.3,1.8,3.3,3.3c0,0.5,0,0.9-0.1,1
				c0,0.1,0,0.1-0.1,0.1c-0.2,0-0.8,0.1-1.6,0.1H65.8z M67.8,11.9c0.5,0,0.7,0,0.8,0c0,0,0-0.1,0-0.1c0-0.4-0.3-1.2-1.3-1.2
				c-1,0-1.4,0.7-1.5,1.4H67.8z" style="
    fill: #ffffff;
"></path>
			<path class="st3" d="M75.6,16.4c0,0.1,0,0.2-0.1,0.2c-0.4,0.2-0.8,0.2-1.4,0.2c-1.3,0-2.1-0.7-2.1-2.2v-3.8h-0.9
				c-0.1,0-0.1,0-0.1-0.1V9.1C70.9,9,71,9,71.1,9H72c0-0.5,0.1-1.4,0.2-1.9c0-0.1,0.1-0.1,0.1-0.1l1.8-0.2c0.1,0,0.1,0,0.1,0.1
				c0,0.5-0.1,1.4-0.1,2.1h1.4c0.1,0,0.1,0,0.1,0.1v1.6c0,0.1,0,0.1-0.1,0.1h-1.4v3.3c0,0.7,0.2,1,0.8,1c0.2,0,0.3,0,0.5-0.1
				c0.1,0,0.1,0,0.1,0.1V16.4z" style="
    fill: #ffffff;
"></path>
			<path class="st3" d="M83.7,12.8c0,2.4-1.6,4-3.8,4c-2.6,0-3.8-2-3.8-4c0-2.2,1.5-4,3.8-4C82.4,8.9,83.7,10.7,83.7,12.8z
				 M78.3,12.8c0,1.4,0.6,2.2,1.7,2.2c0.9,0,1.6-0.8,1.6-2.2c0-1.2-0.5-2.2-1.7-2.2C79,10.6,78.3,11.4,78.3,12.8z" style="
    fill: #ffffff;
"></path>
			<path class="st3" d="M95,16.5c0,0.1,0,0.1-0.2,0.1h-6.3c-0.1,0-0.1,0-0.1-0.1V6.7c0-0.1,0-0.1,0.1-0.1h6.1c0.1,0,0.2,0,0.2,0.1
				L95,8.4c0,0.1,0,0.1-0.1,0.1h-4.3v2.1h3.9c0.1,0,0.1,0,0.1,0.1v1.7c0,0.1-0.1,0.1-0.1,0.1h-3.9v2.3h4.5c0.1,0,0.1,0,0.1,0.1
				L95,16.5z" style="
    fill: #ffffff;
"></path>
			<path class="st3" d="M96.4,10.8c0-0.5,0-1.3-0.1-1.7c0-0.1,0-0.1,0.1-0.1h1.6c0.1,0,0.2,0,0.2,0.1c0.1,0.1,0.1,0.3,0.1,0.5
				c0.6-0.5,1.4-0.8,2.2-0.8c1.2,0,2.6,0.6,2.6,3.1v4.6c0,0.1,0,0.1-0.1,0.1h-1.8c-0.1,0-0.2,0-0.2-0.1v-4.4c0-0.9-0.4-1.4-1.2-1.4
				c-0.5,0-1,0.2-1.3,0.5v5.3c0,0.1,0,0.1-0.1,0.1h-1.9c-0.1,0-0.1,0-0.1-0.1V10.8z" style="
    fill: #ffffff;
"></path>
			<path class="st3" d="M108.7,14.9c2.2,0.1,3,1,3,2.2c0,1.6-1.6,2.9-4.1,2.9c-2.6,0-3.7-1.3-3.7-2.4c0-0.5,0.4-1.1,1.4-2
				c-0.2-0.3-0.3-0.8-0.3-1.2c0-0.4,0.1-0.7,0.3-1c-0.6-0.4-1.1-1-1.1-2c0-1.5,1.2-2.6,3.2-2.6c0.6,0,1.1,0.1,1.5,0.1
				c0.1,0,0.3,0,0.4,0h2.1c0.1,0,0.1,0,0.1,0.1v1.4c0,0.1,0,0.1-0.1,0.1c-0.2,0-0.7,0-1.1-0.1c0.1,0.2,0.2,0.5,0.2,1
				c0,1.6-1.3,2.5-3.1,2.5c-0.2,0-0.4,0-0.5,0c0,0.1-0.1,0.3,0,0.4c0,0.1,0.1,0.3,0.2,0.4L108.7,14.9z M106.6,16.6
				c-0.3,0.2-0.6,0.7-0.6,0.8c0,0.5,0.7,1,1.9,1c1.4,0,2-0.5,2-1c0-0.6-0.7-0.7-1.5-0.8L106.6,16.6z M106.4,11.5c0,0.6,0.4,1,1.1,1
				c0.7,0,1.1-0.4,1.1-1c0-0.6-0.3-1.1-1.1-1.1C106.8,10.4,106.4,10.8,106.4,11.5z" style="
    fill: #ffffff;
"></path>
			<path class="st3" d="M118.3,15c0,0.4,0,0.7,0,1.1c0,0,0,0.1,0,0.1c-1.4,0.5-2.3,0.7-3.4,0.7c-1.7,0-3.1-0.8-3.1-2.6
				c0-1.6,1.4-2.5,3.5-2.5c0.4,0,0.8,0,0.9,0v-0.1c0-0.3-0.2-1-1.5-1c-0.8,0-1.4,0.2-2,0.4c-0.1,0-0.1,0-0.1-0.1V9.5
				c0-0.1,0-0.1,0.1-0.2c0.7-0.3,1.6-0.5,2.4-0.5c2.2,0,3.2,1.4,3.2,3.1V15z M116.3,13.4c-0.2,0-0.5,0-0.8,0c-1.1,0-1.5,0.4-1.5,0.9
				c0,0.5,0.4,0.9,1.4,0.9c0.4,0,0.7,0,1-0.1V13.4z" style="
    fill: #ffffff;
"></path>
			<path class="st3" d="M123.9,14.9c2.2,0.1,3,1,3,2.2c0,1.6-1.6,2.9-4.1,2.9c-2.6,0-3.7-1.3-3.7-2.4c0-0.5,0.4-1.1,1.4-2
				c-0.2-0.3-0.3-0.8-0.3-1.2c0-0.4,0.1-0.7,0.3-1c-0.6-0.4-1.1-1-1.1-2c0-1.5,1.2-2.6,3.2-2.6c0.6,0,1.1,0.1,1.5,0.1
				c0.1,0,0.3,0,0.4,0h2.1c0.1,0,0.1,0,0.1,0.1v1.4c0,0.1,0,0.1-0.1,0.1c-0.2,0-0.7,0-1.1-0.1c0.1,0.2,0.2,0.5,0.2,1
				c0,1.6-1.3,2.5-3.1,2.5c-0.2,0-0.4,0-0.5,0c0,0.1-0.1,0.3,0,0.4c0,0.1,0.1,0.3,0.2,0.4L123.9,14.9z M121.7,16.6
				c-0.3,0.2-0.6,0.7-0.6,0.8c0,0.5,0.7,1,1.9,1c1.4,0,2-0.5,2-1c0-0.6-0.7-0.7-1.5-0.8L121.7,16.6z M121.5,11.5c0,0.6,0.4,1,1.1,1
				c0.7,0,1.1-0.4,1.1-1c0-0.6-0.3-1.1-1.1-1.1C121.9,10.4,121.5,10.8,121.5,11.5z" style="
    fill: #ffffff;
"></path>
			<path class="st3" d="M129.2,13.4c0.1,0.9,0.7,1.6,2.2,1.6c0.7,0,1.3-0.1,1.9-0.4c0,0,0.1,0,0.1,0.1v1.5c0,0.1,0,0.2-0.1,0.2
				c-0.6,0.3-1.3,0.4-2.4,0.4c-2.9,0-3.9-2-3.9-3.9c0-2.1,1.3-4.1,3.7-4.1c2.3,0,3.3,1.8,3.3,3.3c0,0.5,0,0.9-0.1,1
				c0,0.1,0,0.1-0.1,0.1c-0.2,0-0.8,0.1-1.6,0.1H129.2z M131.2,11.9c0.5,0,0.7,0,0.8,0c0,0,0-0.1,0-0.1c0-0.4-0.3-1.2-1.3-1.2
				c-1,0-1.4,0.7-1.5,1.4H131.2z" style="
    fill: #ffffff;
"></path>
		</g>
	</g>
</g>
</svg>