<svg id="Layer_3" enable-background="new 0 0 64 64" height="512" viewBox="0 0 64 64" width="512" xmlns="http://www.w3.org/2000/svg"><g><path d="m9 20.479v1.521c0 .553.447 1 1 1h4c.553 0 1-.447 1-1v-1.521c.259-.091.512-.193.758-.307l1.535 1.535c.391.391 1.023.391 1.414 0l3-3c.391-.391.391-1.023 0-1.414l-1.535-1.535c.113-.246.216-.499.307-.758h1.521c.553 0 1-.447 1-1v-4c0-.553-.447-1-1-1h-1.521c-.091-.259-.193-.512-.307-.758l1.535-1.535c.391-.391.391-1.023 0-1.414l-3-3c-.391-.391-1.023-.391-1.414 0l-1.535 1.535c-.246-.113-.499-.216-.758-.307v-1.521c0-.553-.447-1-1-1h-4c-.553 0-1 .447-1 1v1.521c-.259.091-.512.194-.758.307l-1.535-1.535c-.391-.391-1.023-.391-1.414 0l-3 3c-.391.391-.391 1.023 0 1.414l1.535 1.535c-.113.246-.216.499-.307.758h-1.521c-.553 0-1 .447-1 1v4c0 .553.447 1 1 1h1.521c.091.259.193.512.307.758l-1.535 1.535c-.391.391-.391 1.023 0 1.414l3 3c.391.391 1.023.391 1.414 0l1.535-1.535c.246.113.499.216.758.307zm-1.658-2.235-1.342 1.342-1.586-1.586 1.342-1.342c.318-.318.385-.811.162-1.202-.3-.525-.531-1.1-.688-1.707-.115-.44-.512-.749-.968-.749h-1.262v-2h1.262c.456 0 .854-.309.968-.749.157-.607.389-1.182.688-1.707.223-.392.156-.884-.162-1.202l-1.342-1.342 1.586-1.586 1.342 1.342c.318.318.81.383 1.202.162.525-.3 1.1-.531 1.707-.688.44-.115.749-.512.749-.968v-1.262h2v1.262c0 .456.309.854.749.968.607.157 1.182.389 1.707.688.391.221.883.156 1.202-.162l1.342-1.342 1.586 1.586-1.342 1.342c-.318.318-.385.811-.162 1.202.3.525.531 1.1.688 1.707.115.44.512.749.968.749h1.262v2h-1.262c-.456 0-.854.309-.968.749-.157.607-.389 1.182-.688 1.707-.223.392-.156.884.162 1.202l1.342 1.342-1.586 1.586-1.342-1.342c-.319-.319-.812-.385-1.202-.162-.525.3-1.1.531-1.707.688-.44.115-.749.512-.749.968v1.262h-2v-1.262c0-.456-.309-.854-.749-.968-.607-.157-1.182-.389-1.707-.688-.393-.223-.884-.157-1.202.162z"/><path d="m17 12c0-2.757-2.243-5-5-5s-5 2.243-5 5 2.243 5 5 5 5-2.243 5-5zm-8 0c0-1.654 1.346-3 3-3s3 1.346 3 3-1.346 3-3 3-3-1.346-3-3z"/><path d="m62 49h-1.521c-.091-.259-.193-.512-.307-.758l1.535-1.535c.391-.391.391-1.023 0-1.414l-3-3c-.391-.391-1.023-.391-1.414 0l-1.535 1.535c-.246-.113-.499-.216-.758-.307v-1.521c0-.553-.447-1-1-1h-4c-.553 0-1 .447-1 1v1.521c-.259.091-.512.193-.758.307l-1.535-1.535c-.391-.391-1.023-.391-1.414 0l-3 3c-.391.391-.391 1.023 0 1.414l1.535 1.535c-.113.246-.216.499-.307.758h-1.521c-.553 0-1 .447-1 1v4c0 .553.447 1 1 1h1.521c.091.259.193.512.307.758l-1.535 1.535c-.391.391-.391 1.023 0 1.414l3 3c.391.391 1.023.391 1.414 0l1.535-1.535c.246.113.499.216.758.307v1.521c0 .553.447 1 1 1h4c.553 0 1-.447 1-1v-1.521c.259-.091.512-.193.758-.307l1.535 1.535c.391.391 1.023.391 1.414 0l3-3c.391-.391.391-1.023 0-1.414l-1.535-1.535c.113-.246.216-.499.307-.758h1.521c.553 0 1-.447 1-1v-4c0-.553-.447-1-1-1zm-1 4h-1.262c-.456 0-.854.309-.968.749-.157.607-.389 1.182-.688 1.707-.223.392-.156.884.162 1.202l1.342 1.342-1.586 1.586-1.342-1.342c-.319-.319-.811-.384-1.202-.162-.525.3-1.1.531-1.707.688-.44.115-.749.512-.749.968v1.262h-2v-1.262c0-.456-.309-.854-.749-.968-.607-.157-1.182-.389-1.707-.688-.393-.222-.884-.157-1.202.162l-1.342 1.342-1.586-1.586 1.342-1.342c.318-.318.385-.811.162-1.202-.3-.525-.531-1.1-.688-1.707-.115-.44-.512-.749-.968-.749h-1.262v-2h1.262c.456 0 .854-.309.968-.749.157-.607.389-1.182.688-1.707.223-.392.156-.884-.162-1.202l-1.342-1.342 1.586-1.586 1.342 1.342c.318.318.81.384 1.202.162.525-.3 1.1-.531 1.707-.688.44-.115.749-.512.749-.968v-1.262h2v1.262c0 .456.309.854.749.968.607.157 1.182.389 1.707.688.392.222.883.156 1.202-.162l1.342-1.342 1.586 1.586-1.342 1.342c-.318.318-.385.811-.162 1.202.3.525.531 1.1.688 1.707.115.44.512.749.968.749h1.262z"/><path d="m52 47c-2.757 0-5 2.243-5 5s2.243 5 5 5 5-2.243 5-5-2.243-5-5-5zm0 8c-1.654 0-3-1.346-3-3s1.346-3 3-3 3 1.346 3 3-1.346 3-3 3z"/><path d="m31 23v2.142c-1.721.447-3 1.999-3 3.858 0 2.206 1.794 4 4 4 1.103 0 2 .897 2 2s-.897 2-2 2-2-.897-2-2h-2c0 1.859 1.279 3.411 3 3.858v2.142h2v-2.142c1.721-.447 3-1.999 3-3.858 0-2.206-1.794-4-4-4-1.103 0-2-.897-2-2s.897-2 2-2 2 .897 2 2h2c0-1.859-1.279-3.411-3-3.858v-2.142z"/><path d="m31.293 12.707 1.414-1.414-2.293-2.293h3.586c11.579 0 21 9.421 21 21h2c0-12.683-10.317-23-23-23h-3.586l2.293-2.293-1.414-1.414-4 4c-.391.391-.391 1.023 0 1.414z"/><path d="m32.707 51.293-1.414 1.414 2.293 2.293h-3.586c-11.579 0-21-9.421-21-21h-2c0 12.683 10.317 23 23 23h3.586l-2.293 2.293 1.414 1.414 4-4c.391-.391.391-1.023 0-1.414z"/><path d="m19 32c0 7.168 5.832 13 13 13s13-5.832 13-13-5.832-13-13-13-13 5.832-13 13zm24 0c0 6.065-4.935 11-11 11s-11-4.935-11-11 4.935-11 11-11 11 4.935 11 11z"/></g></svg>