<svg width="328" height="97" xmlns="http://www.w3.org/2000/svg">
 <metadata id="metadata8">image/svg+xml</metadata>
 <defs>
  <clipPath id="clipPath18" clipPathUnits="userSpaceOnUse">
   <path id="path16" d="m-183.08388,1151.74989l612,0l0,-792l-612,0l0,792z"/>
  </clipPath>
  <clipPath id="clipPath26" clipPathUnits="userSpaceOnUse">
   <path id="path24" d="m0.42712,791.74589l244.978,0l0,-71.992l-244.978,0l0,71.992z"/>
  </clipPath>
  <linearGradient id="linearGradient40" spreadMethod="pad" y2="0.49999" x2="1" y1="0.49999" x1="0">
   <stop stop-color="#c4e6f9" id="stop32" offset="0"/>
   <stop stop-color="#c4e6f9" id="stop34" offset="0.03493"/>
   <stop stop-color="#8ed2f3" id="stop36" offset="0.3372"/>
   <stop stop-color="#34a1da" id="stop38" offset="1"/>
  </linearGradient>
 </defs>
 <g>
  <title>Layer 1</title>
  <g transform="matrix(1.3333333,0,0,-1.3333333,0,1056) " id="g10">
   <g id="g12">
    <g clip-path="url(#clipPath18)" id="g14">
     <g id="g20">
      <g id="g22"/>
      <g id="g54">
       <g id="g52" opacity="0.5" clip-path="url(#clipPath26)">
        <g id="g50">
         <g id="g48">
          <g id="g46">
           <g id="g44">
            <path fill="url(#linearGradient40)" id="path42" d="m237.35312,719.75389l-228.874,0c-4.446,0 -8.052,3.604 -8.052,8.052l0,55.888c0,4.447 3.606,8.053 8.052,8.053l228.874,0c4.447,0 8.051,-3.606 8.051,-8.053l0,-55.888c0,-4.448 -3.604,-8.052 -8.051,-8.052"/>
           </g>
          </g>
         </g>
        </g>
       </g>
      </g>
     </g>
     <g id="g56">
      <path fill="#00a1e0" fill-rule="nonzero" id="path58" d="m45.53232,777.36321c2.547,2.654 6.094,4.3 10.017,4.3c5.213,0 9.762,-2.907 12.184,-7.223c2.106,0.941 4.436,1.464 6.888,1.464c9.404,0 17.028,-7.69 17.028,-17.178c0,-9.487 -7.624,-17.177 -17.028,-17.177c-1.148,0 -2.27,0.115 -3.355,0.334c-2.132,-3.805 -6.198,-6.375 -10.864,-6.375c-1.953,0 -3.801,0.45 -5.446,1.252c-2.162,-5.086 -7.201,-8.653 -13.072,-8.653c-6.116,0 -11.329,3.869 -13.328,9.295c-0.875,-0.185 -1.781,-0.281 -2.71,-0.281c-7.281,0 -13.183,5.963 -13.183,13.32c0,4.931 2.651,9.235 6.592,11.538c-0.811,1.868 -1.262,3.927 -1.262,6.093c0,8.461 6.868,15.321 15.341,15.321c4.974,0 9.395,-2.365 12.198,-6.03"/>
     </g>
     <g id="g60">
      <path fill="#ffffff" fill-rule="nonzero" id="path62" d="m24.10312,754.72258c-0.05,-0.129 0.018,-0.156 0.034,-0.179c0.148,-0.107 0.299,-0.185 0.451,-0.272c0.806,-0.427 1.566,-0.552 2.362,-0.552c1.62,0 2.627,0.861 2.627,2.249l0,0.027c0,1.283 -1.137,1.748 -2.202,2.085l-0.139,0.045c-0.802,0.261 -1.496,0.486 -1.496,1.015l0,0.027c0,0.453 0.405,0.786 1.033,0.786c0.698,0 1.525,-0.232 2.059,-0.526c0,0 0.157,-0.102 0.214,0.05c0.031,0.082 0.301,0.808 0.329,0.887c0.031,0.085 -0.023,0.149 -0.078,0.182c-0.61,0.371 -1.451,0.624 -2.321,0.624l-0.162,-0.001c-1.483,0 -2.519,-0.896 -2.519,-2.18l0,-0.028c0,-1.352 1.142,-1.792 2.213,-2.097l0.172,-0.054c0.779,-0.239 1.452,-0.445 1.452,-0.994l0,-0.027c0,-0.502 -0.438,-0.875 -1.142,-0.875c-0.273,0 -1.145,0.005 -2.087,0.601c-0.114,0.066 -0.179,0.114 -0.267,0.167c-0.046,0.029 -0.162,0.08 -0.213,-0.073l-0.32,-0.887z"/>
     </g>
     <g id="g64">
      <path fill="#ffffff" fill-rule="nonzero" id="path66" d="m47.82281,754.72258c-0.05,-0.129 0.018,-0.156 0.034,-0.179c0.148,-0.107 0.299,-0.185 0.451,-0.272c0.805,-0.427 1.566,-0.552 2.361,-0.552c1.621,0 2.627,0.861 2.627,2.249l0,0.027c0,1.283 -1.136,1.748 -2.201,2.085l-0.139,0.045c-0.803,0.261 -1.496,0.486 -1.496,1.015l0,0.027c0,0.453 0.405,0.786 1.033,0.786c0.698,0 1.525,-0.232 2.059,-0.526c0,0 0.157,-0.102 0.214,0.05c0.031,0.082 0.301,0.808 0.329,0.887c0.031,0.085 -0.023,0.149 -0.078,0.182c-0.61,0.371 -1.451,0.624 -2.321,0.624l-0.163,-0.001c-1.482,0 -2.518,-0.896 -2.518,-2.18l0,-0.028c0,-1.352 1.142,-1.792 2.213,-2.097l0.172,-0.054c0.778,-0.239 1.452,-0.445 1.452,-0.994l0,-0.027c0,-0.502 -0.438,-0.875 -1.142,-0.875c-0.274,0 -1.145,0.005 -2.087,0.601c-0.114,0.066 -0.181,0.112 -0.267,0.167c-0.03,0.019 -0.166,0.073 -0.213,-0.073l-0.32,-0.887z"/>
     </g>
     <g id="g68">
      <path fill="#ffffff" fill-rule="nonzero" id="path70" d="m64.01523,757.44029c0,-0.784 -0.146,-1.402 -0.434,-1.838c-0.285,-0.433 -0.716,-0.643 -1.317,-0.643c-0.601,0 -1.03,0.21 -1.311,0.643c-0.283,0.436 -0.427,1.054 -0.427,1.838c0,0.784 0.144,1.4 0.427,1.832c0.281,0.428 0.71,0.636 1.311,0.636c0.601,0 1.032,-0.209 1.317,-0.637c0.288,-0.431 0.434,-1.047 0.434,-1.831m1.353,1.454c-0.133,0.449 -0.34,0.844 -0.616,1.174c-0.276,0.331 -0.625,0.597 -1.038,0.79c-0.413,0.193 -0.901,0.29 -1.45,0.29c-0.549,0 -1.037,-0.097 -1.45,-0.29c-0.413,-0.193 -0.763,-0.459 -1.039,-0.79c-0.276,-0.331 -0.483,-0.726 -0.615,-1.174c-0.132,-0.447 -0.199,-0.936 -0.199,-1.454c0,-0.519 0.067,-1.008 0.199,-1.453c0.132,-0.449 0.339,-0.844 0.615,-1.175c0.277,-0.332 0.626,-0.596 1.039,-0.783c0.414,-0.189 0.902,-0.284 1.45,-0.284c0.548,0 1.036,0.095 1.449,0.284c0.413,0.187 0.763,0.451 1.039,0.783c0.276,0.33 0.483,0.725 0.616,1.175c0.132,0.446 0.199,0.935 0.199,1.453c0,0.518 -0.067,1.007 -0.199,1.454"/>
     </g>
     <g id="g72">
      <path fill="#ffffff" fill-rule="evenodd" id="path74" d="m76.47423,755.16881c-0.045,0.131 -0.173,0.082 -0.173,0.082c-0.197,-0.075 -0.406,-0.145 -0.629,-0.18c-0.225,-0.035 -0.474,-0.053 -0.741,-0.053c-0.654,0 -1.175,0.195 -1.547,0.58c-0.373,0.385 -0.583,1.007 -0.581,1.849c0.003,0.765 0.188,1.341 0.519,1.781c0.33,0.436 0.832,0.66 1.501,0.66c0.558,0 0.984,-0.065 1.43,-0.204c0,0 0.105,-0.047 0.156,0.093c0.119,0.329 0.207,0.563 0.333,0.924c0.036,0.103 -0.052,0.147 -0.084,0.159c-0.175,0.068 -0.59,0.181 -0.902,0.228c-0.293,0.044 -0.634,0.068 -1.015,0.068c-0.568,0 -1.075,-0.097 -1.508,-0.29c-0.432,-0.193 -0.799,-0.458 -1.089,-0.789c-0.29,-0.331 -0.511,-0.726 -0.658,-1.175c-0.146,-0.446 -0.22,-0.937 -0.22,-1.456c0,-1.122 0.302,-2.028 0.899,-2.692c0.6,-0.666 1.498,-1.005 2.671,-1.005c0.693,0 1.403,0.141 1.915,0.342c0,0 0.098,0.047 0.055,0.161l-0.332,0.917z"/>
     </g>
     <g id="g76">
      <path fill="#ffffff" fill-rule="evenodd" id="path78" d="m78.84041,758.19179c0.064,0.436 0.184,0.797 0.37,1.08c0.28,0.428 0.708,0.664 1.309,0.664c0.601,0 0.997,-0.236 1.283,-0.664c0.188,-0.283 0.271,-0.66 0.303,-1.08l-3.265,0zm4.553,0.957c-0.115,0.434 -0.399,0.871 -0.585,1.072c-0.295,0.317 -0.583,0.539 -0.87,0.662c-0.373,0.16 -0.821,0.266 -1.311,0.266c-0.572,0 -1.091,-0.096 -1.512,-0.293c-0.421,-0.198 -0.775,-0.469 -1.054,-0.805c-0.278,-0.336 -0.486,-0.735 -0.62,-1.189c-0.133,-0.451 -0.201,-0.942 -0.201,-1.461c0,-0.528 0.07,-1.02 0.208,-1.461c0.139,-0.447 0.362,-0.838 0.663,-1.164c0.301,-0.327 0.689,-0.584 1.152,-0.763c0.46,-0.178 1.02,-0.271 1.661,-0.269c1.323,0.004 2.019,0.3 2.306,0.458c0.051,0.029 0.099,0.077 0.039,0.219l-0.3,0.838c-0.045,0.125 -0.171,0.08 -0.171,0.08c-0.329,-0.122 -0.793,-0.341 -1.88,-0.338c-0.71,0.001 -1.236,0.211 -1.567,0.538c-0.338,0.335 -0.504,0.827 -0.532,1.523l4.578,-0.004c0,0 0.12,0.002 0.132,0.119c0.006,0.049 0.158,0.941 -0.136,1.972"/>
     </g>
     <g id="g80">
      <path fill="#ffffff" fill-rule="evenodd" id="path82" d="m42.17493,758.19179c0.065,0.436 0.185,0.797 0.37,1.08c0.281,0.428 0.708,0.664 1.309,0.664c0.601,0 0.997,-0.236 1.283,-0.664c0.188,-0.283 0.271,-0.66 0.303,-1.08l-3.265,0zm4.553,0.957c-0.115,0.434 -0.399,0.871 -0.585,1.072c-0.295,0.317 -0.583,0.539 -0.87,0.662c-0.373,0.16 -0.821,0.266 -1.311,0.266c-0.571,0 -1.091,-0.096 -1.512,-0.293c-0.421,-0.198 -0.775,-0.469 -1.054,-0.805c-0.278,-0.336 -0.486,-0.735 -0.619,-1.189c-0.134,-0.451 -0.202,-0.942 -0.202,-1.461c0,-0.528 0.07,-1.02 0.208,-1.461c0.14,-0.447 0.363,-0.838 0.663,-1.164c0.302,-0.327 0.689,-0.584 1.152,-0.763c0.461,-0.178 1.02,-0.271 1.662,-0.269c1.322,0.004 2.018,0.3 2.306,0.458c0.05,0.029 0.098,0.077 0.038,0.219l-0.299,0.838c-0.046,0.125 -0.172,0.08 -0.172,0.08c-0.329,-0.122 -0.793,-0.341 -1.88,-0.338c-0.71,0.001 -1.236,0.211 -1.566,0.538c-0.338,0.335 -0.505,0.827 -0.533,1.523l4.578,-0.004c0,0 0.12,0.002 0.132,0.119c0.006,0.049 0.158,0.941 -0.136,1.972"/>
     </g>
     <g id="g84">
      <path fill="#ffffff" fill-rule="nonzero" id="path86" d="m32.27891,755.19368c-0.179,0.143 -0.204,0.179 -0.264,0.271c-0.09,0.141 -0.137,0.341 -0.137,0.596c0,0.402 0.133,0.692 0.409,0.886c-0.003,-0.001 0.394,0.343 1.327,0.331c0.657,-0.008 1.244,-0.105 1.244,-0.105l0,-2.082c0,0 -0.582,-0.125 -1.237,-0.164c-0.931,-0.056 -1.344,0.268 -1.342,0.267m1.822,3.217c-0.186,0.014 -0.426,0.021 -0.715,0.021c-0.392,0 -0.771,-0.049 -1.127,-0.145c-0.358,-0.096 -0.679,-0.245 -0.956,-0.443c-0.278,-0.2 -0.502,-0.453 -0.664,-0.755c-0.163,-0.302 -0.245,-0.657 -0.245,-1.055c0,-0.406 0.071,-0.758 0.21,-1.046c0.14,-0.289 0.341,-0.53 0.597,-0.715c0.254,-0.186 0.568,-0.322 0.932,-0.405c0.36,-0.082 0.768,-0.124 1.213,-0.124c0.47,0 0.937,0.039 1.391,0.117c0.449,0.076 1,0.188 1.152,0.223c0.153,0.035 0.321,0.081 0.321,0.081c0.113,0.029 0.105,0.151 0.105,0.151l-0.002,4.186c0,0.919 -0.245,1.598 -0.728,2.021c-0.48,0.421 -1.188,0.633 -2.103,0.633c-0.344,0 -0.895,-0.046 -1.227,-0.113c0,0 -0.999,-0.193 -1.411,-0.516c0,0 -0.09,-0.056 -0.041,-0.182l0.324,-0.871c0.04,-0.113 0.15,-0.074 0.15,-0.074c0,0 0.035,0.014 0.075,0.038c0.881,0.478 1.995,0.464 1.995,0.464c0.495,0 0.876,-0.1 1.132,-0.296c0.25,-0.192 0.376,-0.48 0.376,-1.09l0,-0.194c-0.392,0.057 -0.754,0.089 -0.754,0.089"/>
     </g>
     <g id="g88">
      <path fill="#ffffff" fill-rule="evenodd" id="path90" d="m71.02652,760.76939c0.035,0.104 -0.039,0.153 -0.068,0.165c-0.078,0.03 -0.468,0.112 -0.768,0.131c-0.575,0.035 -0.894,-0.062 -1.181,-0.191c-0.283,-0.127 -0.598,-0.334 -0.773,-0.57l-0.001,0.558c0,0.077 -0.054,0.139 -0.131,0.139l-1.174,0c-0.076,0 -0.131,-0.062 -0.131,-0.139l0,-6.829c0,-0.076 0.062,-0.139 0.139,-0.139l1.203,0c0.076,0 0.138,0.063 0.138,0.139l0,3.411c0,0.459 0.051,0.915 0.152,1.202c0.099,0.284 0.234,0.511 0.401,0.674c0.167,0.162 0.358,0.276 0.566,0.34c0.212,0.065 0.448,0.086 0.614,0.086c0.239,0 0.503,-0.061 0.503,-0.061c0.088,-0.01 0.137,0.043 0.167,0.123c0.078,0.21 0.302,0.837 0.344,0.961"/>
     </g>
     <g id="g92">
      <path fill="#ffffff" fill-rule="evenodd" id="path94" d="m59.73642,763.93449c-0.146,0.045 -0.279,0.075 -0.453,0.107c-0.175,0.033 -0.384,0.049 -0.622,0.049c-0.827,0 -1.48,-0.235 -1.939,-0.697c-0.455,-0.458 -0.764,-1.157 -0.92,-2.076l-0.056,-0.309l-1.039,0c0,0 -0.127,0.004 -0.154,-0.134l-0.17,-0.952c-0.012,-0.091 0.027,-0.148 0.149,-0.147l1.012,0l-1.027,-5.731c-0.08,-0.461 -0.172,-0.84 -0.274,-1.128c-0.101,-0.284 -0.198,-0.497 -0.319,-0.651c-0.117,-0.149 -0.228,-0.259 -0.419,-0.323c-0.158,-0.053 -0.34,-0.077 -0.539,-0.077c-0.111,0 -0.258,0.018 -0.367,0.04c-0.109,0.021 -0.165,0.046 -0.247,0.08c0,0 -0.118,0.045 -0.165,-0.073c-0.038,-0.098 -0.308,-0.839 -0.34,-0.931c-0.032,-0.091 0.013,-0.162 0.07,-0.183c0.135,-0.048 0.236,-0.079 0.419,-0.123c0.254,-0.059 0.469,-0.063 0.671,-0.063c0.42,0 0.805,0.059 1.123,0.175c0.32,0.115 0.6,0.317 0.846,0.589c0.266,0.295 0.434,0.604 0.595,1.025c0.159,0.417 0.294,0.934 0.402,1.538l1.032,5.836l1.508,0c0,0 0.126,-0.005 0.153,0.133l0.171,0.952c0.012,0.091 -0.027,0.148 -0.15,0.148l-1.463,0c0.007,0.032 0.074,0.547 0.241,1.032c0.072,0.207 0.207,0.373 0.322,0.488c0.112,0.113 0.241,0.193 0.383,0.239c0.145,0.047 0.311,0.07 0.491,0.07c0.138,0 0.274,-0.015 0.376,-0.037c0.142,-0.031 0.198,-0.047 0.234,-0.057c0.15,-0.046 0.17,-0.002 0.199,0.07l0.35,0.962c0.036,0.102 -0.052,0.147 -0.084,0.159"/>
     </g>
     <g id="g96">
      <path fill="#ffffff" fill-rule="evenodd" id="path98" d="m39.28383,754.0331c0,-0.076 -0.055,-0.139 -0.131,-0.139l-1.214,0c-0.077,0 -0.132,0.063 -0.132,0.139l0,9.771c0,0.077 0.055,0.139 0.132,0.139l1.214,0c0.076,0 0.131,-0.062 0.131,-0.139l0,-9.771z"/>
     </g>
     <g id="g100">
      <path fill="#ffffff" fill-rule="nonzero" id="path102" d="m127.23842,757.3568c1.675,0 2.512,0.573 2.512,1.961c0,1.322 -0.815,1.917 -2.666,1.917l-1.63,0l0,-3.878l1.784,0zm-5.772,-8.77l0,16.305l5.508,0c1.741,0.023 3.04,-0.22 3.9,-0.617c1.762,-0.815 2.864,-2.688 2.864,-4.891c0,-3.019 -1.675,-5.685 -6.346,-5.685l-1.938,0l0,-5.112l-3.988,0z"/>
     </g>
     <g id="g104">
      <path fill="#ffffff" fill-rule="nonzero" id="path106" d="m140.54402,759.8026l-0.066,0.022l-1.674,-5.575l3.415,0l-1.675,5.553zm3.569,-11.216l-0.793,2.358l-5.663,0l-0.859,-2.358l-4.473,0l6.544,16.305l3.283,0l6.479,-16.305l-4.518,0z"/>
     </g>
     <g id="g108">
      <path fill="#ffffff" fill-rule="nonzero" id="path110" d="m155.83211,756.69569c1.652,0 2.666,0.771 2.666,2.335c0,1.411 -1.058,2.204 -2.622,2.204l-1.586,0l0,-4.539l1.542,0zm2.27,-8.109l-3.768,5.267l-0.044,0l0,-5.267l-3.988,0l0,16.305l5.332,0c1.696,0 2.997,-0.22 3.855,-0.594c1.763,-0.793 2.997,-2.71 2.997,-5.024c0,-2.578 -1.542,-4.694 -4.054,-5.134l4.429,-5.553l-4.759,0z"/>
     </g>
     <g id="g112">
      <path fill="#ffffff" fill-rule="nonzero" id="path114" d="m166.09773,748.58681l0,12.648l-3.217,0l0,3.657l10.576,0l0,-3.657l-3.195,0l0,-12.648l-4.164,0z"/>
     </g>
     <g id="g116">
      <path fill="#ffffff" fill-rule="nonzero" id="path118" d="m185.26472,748.58681l-6.258,9.959l0.111,-9.959l-3.989,0l0,16.305l3.592,0l6.346,-10.312l-0.176,10.312l3.987,0l0,-16.305l-3.613,0z"/>
     </g>
     <g id="g120">
      <path fill="#ffffff" fill-rule="nonzero" id="path122" d="m191.84972,748.58681l0,16.305l9.056,0l0,-3.657l-5.068,0l0,-2.534l4.913,0l0,-3.657l-4.913,0l0,-2.799l5.068,0l0,-3.658l-9.056,0z"/>
     </g>
     <g id="g124">
      <path fill="#ffffff" fill-rule="nonzero" id="path126" d="m209.01182,756.69569c1.652,0 2.666,0.771 2.666,2.335c0,1.411 -1.058,2.204 -2.622,2.204l-1.587,0l0,-4.539l1.543,0zm2.27,-8.109l-3.769,5.267l-0.044,0l0,-5.267l-3.988,0l0,16.305l5.333,0c1.696,0 2.996,-0.22 3.855,-0.594c1.763,-0.793 2.996,-2.71 2.996,-5.024c0,-2.578 -1.542,-4.694 -4.053,-5.134l4.428,-5.553l-4.758,0z"/>
     </g>
    </g>
   </g>
  </g>
 </g>
</svg>