<svg xmlns="http://www.w3.org/2000/svg" xmlns:xlink="http://www.w3.org/1999/xlink" viewBox="0 0 102 28" fill="#fff" fill-rule="evenodd" stroke="#000" stroke-linecap="round" stroke-linejoin="round"><use xlink:href="#A" x=".5" y=".5"/><symbol id="A" overflow="visible"><g stroke="none" fill-rule="nonzero"><path d="M13.774 9.251c-.683.252-1.438.252-2.12 0l-10.318-4.1c-.575-.252-.575-.575 0-.827L11.69.189c.683-.252 1.438-.252 2.12 0l10.318 4.1c.575.252.575.575 0 .827z" fill="#e22329"/><path d="M12.408 25.798a.76.76 0 0 1-.575.8.59.59 0 0 1-.431-.072L1.046 22.338c-.6-.288-1.007-.863-1.043-1.5V6.518a.76.76 0 0 1 .575-.8.59.59 0 0 1 .431.072l10.354 4.135c.6.288 1.007.863 1.043 1.5z" fill="#404041"/><path d="M13.056 25.798a.76.76 0 0 0 .575.8.59.59 0 0 0 .431-.072l10.354-4.063c.6-.288 1.007-.863 1.043-1.5V6.59a.76.76 0 0 0-.575-.8.59.59 0 0 0-.431.072l-10.354 4.146c-.6.288-1.007.863-1.043 1.5z" fill="#929497"/><path d="M30.263 14.318h1.903v.123c0 .247.053.405.176.476.123.088.352.123.722.123h2.396c.176.018.352-.035.5-.123.106-.106.16-.264.14-.405.018-.16-.035-.317-.176-.405-.23-.106-.493-.16-.74-.176l-3.03-.053c-.775-.018-1.268-.176-1.533-.44s-.405-.74-.405-1.445a2.94 2.94 0 0 1 .088-.881 1.48 1.48 0 0 1 .335-.581 1.63 1.63 0 0 1 .722-.352c.476-.094.96-.135 1.445-.123h2.924c.722 0 1.25.123 1.568.388s.476.705.476 1.304v.123c0 .07 0 .14-.018.2h-1.85v-.018a.51.51 0 0 0-.176-.458.65.65 0 0 0-.476-.14h-2.22a1.46 1.46 0 0 0-.722.123c-.123.088-.194.23-.176.388a.43.43 0 0 0 .176.388c.194.088.388.14.6.14l3.153.053c.722.018 1.233.194 1.515.476.282.317.44.8.44 1.568a2.16 2.16 0 0 1-.176 1.004 1.52 1.52 0 0 1-1.251.863c-.405.053-.828.088-1.25.07h-2.572c-1.057 0-1.762-.123-2.114-.352-.352-.247-.528-.67-.528-1.32v-.194c.088-.106.14-.23.123-.352m8.5-4.175h1.92v3.717c0 .44.088.722.282.863s.617.2 1.268.2h1.075c.528 0 .88-.07 1.075-.247.194-.14.264-.44.264-.846v-3.717h1.92v4.316c0 .74-.194 1.268-.6 1.585s-1.075.458-2.06.458h-2.132c-1.145 0-1.938-.14-2.378-.44-.44-.282-.652-.846-.652-1.603v-4.298zm14.634 2.263c0-.317-.088-.5-.264-.6s-.58-.176-1.18-.176h-1.126c-.652 0-1.075.07-1.25.247-.194.176-.282.476-.282.987v.88c0 .458.088.775.317.934s.617.247 1.233.247h1.1c.546 0 .934-.053 1.127-.14a.52.52 0 0 0 .317-.528c0-.053 0-.106-.018-.176v-.018h-2.255v-1.257h4.28v2.06c0 .6-.2 1.004-.652 1.268-.44.247-1.198.388-2.3.388h-2.132c-.476.018-.97-.018-1.445-.088a1.9 1.9 0 0 1-.793-.352 1.63 1.63 0 0 1-.546-.74 3.33 3.33 0 0 1-.176-1.11v-1.726c0-.88.2-1.533.652-1.867.44-.352 1.198-.528 2.325-.528h2.132c.513-.015 1.025.015 1.533.088a1.58 1.58 0 0 1 .775.317 1.48 1.48 0 0 1 .44.6 2.59 2.59 0 0 1 .141.969v.352zm4.052 4.017h-2.096l3.435-6.3h2.466l3.382 6.3h-2.114l-.6-1.057h-3.84zm1.356-2.537h2.43l-1.233-2.237zm11.098-3.735c1.004 0 1.674.14 2.044.458.352.282.546.846.546 1.603 0 .546-.07.97-.247 1.233-.194.282-.493.476-.8.528a1.34 1.34 0 0 1 .74.405 1.11 1.11 0 0 1 .247.775v1.268h-1.92v-.97a.7.7 0 0 0-.176-.511c-.123-.088-.335-.14-.705-.14h-2.875v1.606h-1.92v-6.272h5.056zm-.07 1.568h-3.056v1.533h3.048c.194.018.388-.053.528-.176.088-.123.14-.335.14-.652.018-.194-.035-.405-.176-.546-.07-.106-.264-.16-.493-.16" fill="#404041"/><path d="M87.006 10.144c1.004 0 1.674.14 2.044.458.352.282.546.846.546 1.603 0 .546-.07.97-.247 1.233-.194.282-.493.476-.8.528a1.34 1.34 0 0 1 .74.405c.176.2.264.493.264.775v1.268h-1.92v-.97c0-.247-.053-.405-.176-.5-.123-.088-.352-.14-.705-.14h-2.9v1.594h-1.92v-6.272h5.074zm-.106 1.568h-3.03v1.533h3.048c.194.018.388-.053.528-.176.088-.123.14-.335.14-.652.018-.194-.035-.405-.176-.546-.07-.106-.264-.16-.5-.16m-7.628.687v-.07a.57.57 0 0 0-.247-.528c-.176-.123-.405-.176-.775-.176h-1.544c-.652 0-1.075.07-1.268.247s-.282.5-.282 1.004v.863c0 .458.088.775.317.934.2.176.617.264 1.233.264h1.1c.6 0 1.004-.07 1.198-.194s.282-.352.282-.67v-.07h1.938v.053l.018.405a2.78 2.78 0 0 1-.14 1.004c-.088.247-.264.476-.476.617-.247.16-.528.282-.8.335-.493.088-1.004.106-1.515.088h-2.115c-.476.018-.97-.018-1.445-.088a1.9 1.9 0 0 1-.793-.352c-.247-.194-.44-.458-.546-.74a3.33 3.33 0 0 1-.176-1.11v-1.7c0-.916.2-1.533.652-1.903.44-.352 1.198-.528 2.325-.528h2.132c.513-.015 1.025.015 1.533.088a2.03 2.03 0 0 1 .775.317 1.42 1.42 0 0 1 .44.617c.108.317.156.652.141.987v.2c0 .053 0 .106-.018.14h-1.938v-.034zm12.966 4.017h-1.867v-6.272h2.854l2.237 3.9 2.3-3.9h2.82v6.272h-1.867V11.94l-2.6 4.475h-1.25l-2.625-4.457z" fill="#636668"/></g></symbol></svg>