<svg height="512pt" viewBox="-1 0 512 512.00097" width="512pt" xmlns="http://www.w3.org/2000/svg" xmlns:xlink="http://www.w3.org/1999/xlink"><linearGradient id="a"><stop offset="0" stop-color="#662d91"/><stop offset=".437" stop-color="#3873b3"/><stop offset="1" stop-color="#00c9dd"/></linearGradient><linearGradient id="b" gradientTransform="matrix(1.082153 0 0 -1.082153 -.936659 502.370676)" gradientUnits="userSpaceOnUse" x1="94.3849" x2="460.9237" xlink:href="#a" y1="440.2085" y2="73.6776"/><linearGradient id="c" gradientTransform="matrix(1.082153 0 0 -1.082153 -.936659 502.370676)" gradientUnits="userSpaceOnUse" x1="7.9223" x2="374.3924" xlink:href="#a" y1="353.7459" y2="-12.7241"/><linearGradient id="d" gradientTransform="matrix(1.082153 0 0 -1.082153 -.936659 502.370676)" gradientUnits="userSpaceOnUse" x1="64.0558" x2="430.5866" xlink:href="#a" y1="409.8793" y2="43.3484"/><linearGradient id="e" gradientTransform="matrix(1.082153 0 0 -1.082153 -.936659 502.370676)" gradientUnits="userSpaceOnUse" x1="-14.5458" x2="351.985" xlink:href="#a" y1="331.2777" y2="-35.2532"/><linearGradient id="f" gradientTransform="matrix(1.082153 0 0 -1.082153 -.936659 502.370676)" gradientUnits="userSpaceOnUse" x1="42.0019" x2="408.5328" xlink:href="#a" y1="387.8254" y2="21.2866"/><linearGradient id="g" gradientTransform="matrix(1.082153 0 0 -1.082153 -.936659 502.370676)" gradientUnits="userSpaceOnUse" x1="-39.3791" x2="327.0909" xlink:href="#a" y1="306.4445" y2="-60.0256"/><linearGradient id="h" gradientTransform="matrix(1.082153 0 0 -1.082153 -.936659 502.370676)" gradientUnits="userSpaceOnUse" x1="16.7543" x2="383.2852" xlink:href="#a" y1="362.5779" y2="-3.953"/><linearGradient id="i" gradientTransform="matrix(1.082153 0 0 -1.082153 -.936659 502.370676)" gradientUnits="userSpaceOnUse" x1="-61.8473" x2="304.6836" xlink:href="#a" y1="283.9763" y2="-82.5546"/><linearGradient id="j" gradientTransform="matrix(1.082153 0 0 -1.082153 -.936659 502.370676)" gradientUnits="userSpaceOnUse" x1="-5.2991" x2="361.2319" xlink:href="#a" y1="340.5245" y2="-26.0143"/><linearGradient id="k" gradientTransform="matrix(1.082153 0 0 -1.082153 -.936659 502.370676)" gradientUnits="userSpaceOnUse" x1="55.2238" x2="421.6938" xlink:href="#a" y1="401.0473" y2="34.5773"/><linearGradient id="l" gradientTransform="matrix(1.082153 0 0 -1.082153 -.936659 502.370676)" gradientUnits="userSpaceOnUse" x1="109.9429" x2="476.4738" xlink:href="#a" y1="455.7665" y2="89.2356"/><linearGradient id="m" gradientTransform="matrix(1.082153 0 0 -1.082153 -.936659 502.370676)" gradientUnits="userSpaceOnUse" x1="31.9655" x2="398.5043" xlink:href="#a" y1="377.7891" y2="11.2582"/><linearGradient id="n" gradientTransform="matrix(1.082153 0 0 -1.082153 -.936659 502.370676)" gradientUnits="userSpaceOnUse" x1="86.7817" x2="453.3126" xlink:href="#a" y1="432.6053" y2="66.0743"/><linearGradient id="o" gradientTransform="matrix(1.082153 0 0 -1.082153 -.936659 502.370676)" gradientUnits="userSpaceOnUse" x1="72.9614" x2="439.4923" xlink:href="#a" y1="418.7849" y2="52.254"/><linearGradient id="p" gradientTransform="matrix(1.082153 0 0 -1.082153 -.936659 502.370676)" gradientUnits="userSpaceOnUse" x1="136.0308" x2="502.5617" xlink:href="#a" y1="481.8544" y2="115.3234"/><path d="m450.40625 128.09375c-6.222656-.003906-12.414062.949219-18.351562 2.824219.566406-4.472657.851562-8.976563.855468-13.488281-1.109375-65.953126-55.472656-118.519532-121.429687-117.414063-48.128907.808594-91.066407 30.429687-108.914063 75.132813-34.519531-21.402344-79.851562-10.769532-101.253906 23.746093-6.96875 11.238281-10.777344 24.144531-11.027344 37.363281-9.289062-5.363281-19.835937-8.179687-30.566406-8.164062-32.980469 0-59.71875 26.738281-59.71875 59.71875s26.738281 59.71875 59.71875 59.71875c4.710938 0 8.53125-3.820312 8.53125-8.53125s-3.820312-8.53125-8.53125-8.53125c-23.554688-.382812-42.339844-19.789062-41.957031-43.34375.382812-23.554688 19.789062-42.339844 43.34375-41.957031 14.339843.230469 27.601562 7.65625 35.296875 19.753906 2.582031 3.945313 7.867187 5.046875 11.8125 2.46875 3.40625-2.230469 4.761718-6.558594 3.238281-10.332031-2.6875-6.480469-4.089844-13.421875-4.128906-20.433594.339843-30.917969 25.644531-55.722656 56.5625-55.453125 13.773437.054687 27.0625 5.097656 37.40625 14.195313 3.550781 3.097656 8.941406 2.730468 12.039062-.824219.839844-.960938 1.449219-2.097657 1.789063-3.332031 15.613281-54.316407 72.300781-85.695313 126.617187-70.085938 43.128907 12.394531 73.148438 51.4375 74.046875 96.304688-.035156 8.941406-1.285156 17.839843-3.710937 26.445312-1.261719 4.539062 1.394531 9.242188 5.933593 10.503906 2.457032.683594 5.089844.234375 7.179688-1.230468 7.378906-5.203126 16.1875-7.996094 25.21875-7.992188 23.558594 0 42.65625 19.097656 42.65625 42.65625s-19.097656 42.65625-42.65625 42.65625c-4.710938 0-8.53125 3.820312-8.53125 8.53125s3.820312 8.53125 8.53125 8.53125c32.980469 0 59.71875-26.738281 59.71875-59.71875s-26.734375-59.71875-59.71875-59.71875zm0 0" fill="url(#b)"/><path d="m84.417969 384.03125c0 14.136719 11.457031 25.59375 25.59375 25.59375h290.0625c14.132812 0 25.59375-11.457031 25.59375-25.59375v-34.125c0-14.132812-11.460938-25.59375-25.59375-25.59375h-290.0625c-14.136719 0-25.59375 11.460938-25.59375 25.59375zm17.0625-34.125c0-4.710938 3.820312-8.53125 8.53125-8.53125h290.0625c4.710937 0 8.53125 3.820312 8.53125 8.53125v34.125c0 4.710938-3.820313 8.53125-8.53125 8.53125h-290.0625c-4.710938 0-8.53125-3.820312-8.53125-8.53125zm0 0" fill="url(#c)"/><path d="m376.613281 383.503906c9.128907-.058594 16.488281-7.503906 16.429688-16.636718-.054688-9.132813-7.503907-16.488282-16.636719-16.429688-9.089844.054688-16.429688 7.441406-16.429688 16.53125.042969 9.152344 7.480469 16.546875 16.636719 16.535156zm0-17.0625v1.066406c-.257812 0-.425781-.28125-.425781-.539062zm0 0" fill="url(#d)"/><path d="m125.367188 375.5h162.09375c4.710937 0 8.53125-3.820312 8.53125-8.53125s-3.820313-8.53125-8.53125-8.53125h-162.09375c-4.710938 0-8.53125 3.820312-8.53125 8.53125s3.820312 8.53125 8.53125 8.53125zm0 0" fill="url(#e)"/><path d="m317.449219 375.5h22.691406c4.710937 0 8.53125-3.820312 8.53125-8.53125s-3.820313-8.53125-8.53125-8.53125h-22.691406c-4.714844 0-8.53125 3.820312-8.53125 8.53125s3.816406 8.53125 8.53125 8.53125zm0 0" fill="url(#f)"/><path d="m84.417969 486.40625c0 14.136719 11.457031 25.59375 25.59375 25.59375h290.0625c14.132812 0 25.59375-11.457031 25.59375-25.59375v-34.125c0-14.132812-11.460938-25.59375-25.59375-25.59375h-290.0625c-14.136719 0-25.59375 11.460938-25.59375 25.59375zm17.0625-34.125c0-4.710938 3.820312-8.53125 8.53125-8.53125h290.0625c4.710937 0 8.53125 3.820312 8.53125 8.53125v34.125c0 4.710938-3.820313 8.53125-8.53125 8.53125h-290.0625c-4.710938 0-8.53125-3.820312-8.53125-8.53125zm0 0" fill="url(#g)"/><path d="m376.613281 485.878906c9.128907-.058594 16.488281-7.503906 16.429688-16.636718-.054688-9.132813-7.503907-16.488282-16.636719-16.433594-9.089844.058594-16.429688 7.445312-16.429688 16.535156.042969 9.152344 7.480469 16.546875 16.636719 16.535156zm0-17.0625v1.066406c-.257812 0-.425781-.28125-.425781-.539062zm0 0" fill="url(#h)"/><path d="m125.367188 477.875h162.09375c4.710937 0 8.53125-3.820312 8.53125-8.53125s-3.820313-8.53125-8.53125-8.53125h-162.09375c-4.710938 0-8.53125 3.820312-8.53125 8.53125s3.820312 8.53125 8.53125 8.53125zm0 0" fill="url(#i)"/><path d="m317.449219 477.875h22.691406c4.710937 0 8.53125-3.820312 8.53125-8.53125s-3.820313-8.53125-8.53125-8.53125h-22.691406c-4.714844 0-8.53125 3.820312-8.53125 8.53125s3.816406 8.53125 8.53125 8.53125zm0 0" fill="url(#j)"/><path d="m84.417969 247.53125v34.125c0 14.136719 11.457031 25.59375 25.59375 25.59375h290.0625c14.132812 0 25.59375-11.457031 25.59375-25.59375v-34.125c0-14.132812-11.460938-25.59375-25.59375-25.59375h-290.0625c-14.136719 0-25.59375 11.460938-25.59375 25.59375zm324.1875 0v34.125c0 4.710938-3.820313 8.53125-8.53125 8.53125h-290.0625c-4.710938 0-8.53125-3.820312-8.53125-8.53125v-34.125c0-4.710938 3.820312-8.53125 8.53125-8.53125h290.0625c4.710937 0 8.53125 3.820312 8.53125 8.53125zm0 0" fill="url(#k)"/><path d="m374.011719 281.65625c.929687 0 1.859375-.078125 2.777343-.230469 4.382813-.722656 8.285157-3.183593 10.828126-6.824219 2.539062-3.574218 3.53125-8.023437 2.746093-12.335937-1.644531-9.0625-10.324219-15.078125-19.386719-13.433594-4.296874.777344-8.113281 3.207031-10.636718 6.769531-2.53125 3.574219-3.519532 8.015626-2.746094 12.328126 1.4375 7.941406 8.347656 13.71875 16.417969 13.726562zm-.054688-17.0625.042969 1.066406c-.382812 0-.40625-.210937-.425781-.390625zm0 0" fill="url(#l)"/><path d="m123.660156 273.125h162.09375c4.710938 0 8.53125-3.820312 8.53125-8.53125s-3.820312-8.53125-8.53125-8.53125h-162.09375c-4.710937 0-8.53125 3.820312-8.53125 8.53125s3.820313 8.53125 8.53125 8.53125zm0 0" fill="url(#m)"/><path d="m311.996094 273.125h22.695312c4.710938 0 8.53125-3.820312 8.53125-8.53125s-3.820312-8.53125-8.53125-8.53125h-22.695312c-4.710938 0-8.53125 3.820312-8.53125 8.53125s3.820312 8.53125 8.53125 8.53125zm0 0" fill="url(#n)"/><path d="m186.792969 204.875c4.710937 0 8.53125-3.820312 8.53125-8.53125v-56.1875l11.03125 11.03125c3.386719 3.273438 8.789062 3.179688 12.0625-.207031 3.191406-3.308594 3.191406-8.546875 0-11.855469l-25.59375-25.59375c-3.332031-3.332031-8.734375-3.332031-12.0625 0l-25.59375 25.59375c-3.277344 3.390625-3.179688 8.792969.207031 12.0625 3.308594 3.195312 8.546875 3.195312 11.855469 0l11.027343-11.03125v56.1875c.003907 4.710938 3.824219 8.53125 8.535157 8.53125zm0 0" fill="url(#o)"/><path d="m323.292969 111.03125c-4.710938 0-8.53125 3.820312-8.53125 8.53125v56.1875l-11.03125-11.03125c-3.390625-3.273438-8.789063-3.179688-12.0625.210938-3.195313 3.304687-3.195313 8.546874 0 11.855468l25.59375 25.59375c3.332031 3.328125 8.730469 3.328125 12.0625 0l25.59375-25.59375c3.273437-3.390625 3.179687-8.792968-.210938-12.0625-3.304687-3.195312-8.546875-3.195312-11.851562 0l-11.03125 11.027344v-56.183594c0-4.714844-3.820313-8.535156-8.53125-8.535156zm0 0" fill="url(#p)"/></svg>