<?xml version="1.0" encoding="utf-8"?>
<!-- Generator: Adobe Illustrator 17.1.0, SVG Export Plug-In . SVG Version: 6.00 Build 0)  -->
<!DOCTYPE svg PUBLIC "-//W3C//DTD SVG 1.1//EN" "http://www.w3.org/Graphics/SVG/1.1/DTD/svg11.dtd">
<svg version="1.1" id="Layer_1" xmlns="http://www.w3.org/2000/svg" xmlns:xlink="http://www.w3.org/1999/xlink" x="0px" y="0px"
	 viewBox="0 0 113.8 23.8" style="enable-background:new 0 0 113.8 23.8;" xml:space="preserve">
<style type="text/css">
	.st0{fill:#DA1C52;}
	.st1{fill:#231F20;}
</style>
<path class="st0" d="M11.5,3c6.1,0.5,12.8,3.6,16.6,8c4.9,5.6,3.2,11.2-3.8,12.5c-7,1.3-16.6-2.2-21.5-7.8c-3.7-4.3-3.6-8.6-0.3-11
	l19.4,14.3L11.5,3"/>
<path class="st1" d="M107.3,23.5l-2.4-9.8c-0.4-1.2-0.5-2.3-0.7-3.5h-0.1c-0.2,1.2-0.3,2.4-0.6,3.5l-2.5,9.7h-4.2l5.7-20.4h3.3
	l5.9,20.4H107.3"/>
<path class="st1" d="M42.9,3.1l2.4,9.8c0.4,1.2,0.5,2.3,0.7,3.5h0.1c0.2-1.2,0.3-2.4,0.6-3.5l2.5-9.7h4.2l-5.7,20.4h-3.3L38.6,3.1
	H42.9"/>
<rect x="56.5" y="3.1" class="st1" width="4" height="20.4"/>
<polyline class="st1" points="83.3,3.1 85.3,15.1 85.3,15.1 87,3.1 92.4,3.1 94.5,23.5 90.4,23.5 89.4,8.8 89.3,8.8 88.7,13.8 
	87,23.5 83.8,23.5 81.9,13.7 81.2,9.2 81.2,8.8 81.1,8.8 80.5,23.5 76.2,23.5 78,3.1 83.3,3.1 "/>
<path class="st1" d="M70.5,3.1c-0.7,0.5-1.2,1.3-1.6,2.2C67.9,7.8,69,9.8,70,11.5c0.1,0.3,0.3,0.5,0.4,0.8c2.2,3.7,3,6.5,1.4,10.4
	c-0.1,0.3-0.4,0.8-0.4,0.8h-4.9c0.5-0.4,1.2-1.1,1.5-1.9c1.1-2.7-0.2-5.2-1.5-7.5c-1.5-2.9-3.1-5.8-1.4-9.9c0.2-0.4,0.5-1,0.5-1
	H70.5"/>
<path class="st1" d="M111.3,4.4c-1.1,0-2-0.9-2-2c0-1.1,0.9-2,2-2c1.1,0,2,0.9,2,2C113.3,3.5,112.4,4.4,111.3,4.4 M111.3,0
	c-1.4,0-2.5,1.1-2.5,2.4c0,1.4,1.1,2.5,2.5,2.5c1.4,0,2.4-1.1,2.4-2.5C113.8,1.1,112.7,0,111.3,0z M111,2.7h0.2
	c0.5,0,0.4,0.3,0.4,0.6c0,0.2,0,0.4,0.1,0.6h0.6c-0.1-0.1-0.1-0.7-0.1-0.8c0-0.5-0.4-0.5-0.6-0.6v0c0.4-0.1,0.6-0.3,0.6-0.7
	c0-0.5-0.3-0.7-0.7-0.7h-1.2v2.8h0.6V2.7z M111,1.5h0.3c0.2,0,0.3,0.1,0.3,0.4c0,0.2-0.1,0.4-0.3,0.4H111V1.5z"/>
</svg>
